<mxfile host="app.diagrams.net" modified="2024-06-26T13:38:15.947Z" agent="Mozilla/5.0 (Windows NT 10.0; Win64; x64) AppleWebKit/537.36 (KHTML, like Gecko) Chrome/125.0.0.0 Safari/537.36" etag="K2BCO_DTOzwA_sBgFUwO" version="24.4.9" type="github">
  <diagram name="第 1 页" id="9U5tdtwdsk4YeRcDLCJk">
    <mxGraphModel dx="1272" dy="732" grid="0" gridSize="10" guides="1" tooltips="1" connect="1" arrows="1" fold="1" page="1" pageScale="1" pageWidth="2000" pageHeight="2000" math="0" shadow="0">
      <root>
        <mxCell id="0" />
        <mxCell id="1" parent="0" />
        <mxCell id="K9o9ax7KUyAUVBjDeXE--57" style="edgeStyle=orthogonalEdgeStyle;rounded=0;orthogonalLoop=1;jettySize=auto;html=1;entryX=0;entryY=0.5;entryDx=0;entryDy=0;fontSize=14;" edge="1" parent="1" source="K9o9ax7KUyAUVBjDeXE--20" target="K9o9ax7KUyAUVBjDeXE--58">
          <mxGeometry relative="1" as="geometry">
            <mxPoint x="821" y="295" as="targetPoint" />
          </mxGeometry>
        </mxCell>
        <mxCell id="K9o9ax7KUyAUVBjDeXE--20" value="" style="rounded=0;whiteSpace=wrap;html=1;fontSize=14;fillColor=#fff2cc;strokeColor=#d6b656;" vertex="1" parent="1">
          <mxGeometry x="500" y="179.25" width="287" height="231.5" as="geometry" />
        </mxCell>
        <mxCell id="K9o9ax7KUyAUVBjDeXE--7" value="" style="rounded=0;whiteSpace=wrap;html=1;fontSize=14;fillColor=#d5e8d4;strokeColor=#82b366;" vertex="1" parent="1">
          <mxGeometry x="154" y="204" width="170" height="176" as="geometry" />
        </mxCell>
        <mxCell id="K9o9ax7KUyAUVBjDeXE--5" style="edgeStyle=orthogonalEdgeStyle;rounded=0;orthogonalLoop=1;jettySize=auto;html=1;exitX=0;exitY=0;exitDx=80;exitDy=65;exitPerimeter=0;fontSize=14;" edge="1" parent="1" source="K9o9ax7KUyAUVBjDeXE--1" target="K9o9ax7KUyAUVBjDeXE--3">
          <mxGeometry relative="1" as="geometry" />
        </mxCell>
        <mxCell id="K9o9ax7KUyAUVBjDeXE--1" value="流量" style="shape=note;whiteSpace=wrap;html=1;backgroundOutline=1;darkOpacity=0.05;fontSize=14;fillColor=#ffe6cc;strokeColor=#d79b00;" vertex="1" parent="1">
          <mxGeometry x="33" y="230" width="80" height="100" as="geometry" />
        </mxCell>
        <mxCell id="K9o9ax7KUyAUVBjDeXE--56" style="edgeStyle=orthogonalEdgeStyle;rounded=0;orthogonalLoop=1;jettySize=auto;html=1;entryX=0;entryY=0.5;entryDx=0;entryDy=0;fontSize=14;" edge="1" parent="1" source="K9o9ax7KUyAUVBjDeXE--3" target="K9o9ax7KUyAUVBjDeXE--12">
          <mxGeometry relative="1" as="geometry" />
        </mxCell>
        <mxCell id="K9o9ax7KUyAUVBjDeXE--3" value="" style="sketch=0;outlineConnect=0;fontColor=#232F3E;gradientColor=none;fillColor=#01A88D;strokeColor=none;dashed=0;verticalLabelPosition=bottom;verticalAlign=top;align=center;html=1;fontSize=14;fontStyle=0;aspect=fixed;pointerEvents=1;shape=mxgraph.aws4.sagemaker_model;" vertex="1" parent="1">
          <mxGeometry x="198" y="256" width="78" height="78" as="geometry" />
        </mxCell>
        <mxCell id="K9o9ax7KUyAUVBjDeXE--4" value="流量检测模型" style="text;html=1;align=center;verticalAlign=middle;whiteSpace=wrap;rounded=0;fontSize=14;" vertex="1" parent="1">
          <mxGeometry x="133" y="334" width="210" height="36" as="geometry" />
        </mxCell>
        <mxCell id="K9o9ax7KUyAUVBjDeXE--216" style="edgeStyle=orthogonalEdgeStyle;rounded=0;orthogonalLoop=1;jettySize=auto;html=1;exitX=0.5;exitY=1;exitDx=0;exitDy=0;exitPerimeter=0;" edge="1" parent="1" source="K9o9ax7KUyAUVBjDeXE--10" target="K9o9ax7KUyAUVBjDeXE--3">
          <mxGeometry relative="1" as="geometry" />
        </mxCell>
        <mxCell id="K9o9ax7KUyAUVBjDeXE--10" value="少量带标签&lt;div&gt;训练流量&lt;/div&gt;" style="shape=note;whiteSpace=wrap;html=1;backgroundOutline=1;darkOpacity=0.05;fontSize=14;fillColor=#f8cecc;strokeColor=#b85450;" vertex="1" parent="1">
          <mxGeometry x="240" y="94" width="83" height="93" as="geometry" />
        </mxCell>
        <mxCell id="K9o9ax7KUyAUVBjDeXE--55" style="edgeStyle=orthogonalEdgeStyle;rounded=0;orthogonalLoop=1;jettySize=auto;html=1;fontSize=14;" edge="1" parent="1" source="K9o9ax7KUyAUVBjDeXE--12" target="K9o9ax7KUyAUVBjDeXE--20">
          <mxGeometry relative="1" as="geometry" />
        </mxCell>
        <mxCell id="K9o9ax7KUyAUVBjDeXE--12" value="带标签的分类流量" style="shape=document;whiteSpace=wrap;html=1;boundedLbl=1;dashed=0;flipH=1;fontSize=14;fillColor=#dae8fc;strokeColor=#6c8ebf;" vertex="1" parent="1">
          <mxGeometry x="360" y="260" width="110" height="70" as="geometry" />
        </mxCell>
        <mxCell id="K9o9ax7KUyAUVBjDeXE--42" style="edgeStyle=orthogonalEdgeStyle;rounded=0;orthogonalLoop=1;jettySize=auto;html=1;exitX=1;exitY=0.5;exitDx=0;exitDy=0;fontSize=14;" edge="1" parent="1" source="K9o9ax7KUyAUVBjDeXE--14" target="K9o9ax7KUyAUVBjDeXE--31">
          <mxGeometry relative="1" as="geometry" />
        </mxCell>
        <mxCell id="K9o9ax7KUyAUVBjDeXE--14" value="" style="shape=ellipse;html=1;dashed=0;whiteSpace=wrap;aspect=fixed;perimeter=ellipsePerimeter;fontSize=14;fillColor=#f0a30a;fontColor=#000000;strokeColor=#BD7000;" vertex="1" parent="1">
          <mxGeometry x="545" y="199" width="30" height="30" as="geometry" />
        </mxCell>
        <mxCell id="K9o9ax7KUyAUVBjDeXE--43" style="edgeStyle=orthogonalEdgeStyle;rounded=0;orthogonalLoop=1;jettySize=auto;html=1;entryX=0;entryY=0.5;entryDx=0;entryDy=0;fontSize=14;" edge="1" parent="1" source="K9o9ax7KUyAUVBjDeXE--15" target="K9o9ax7KUyAUVBjDeXE--32">
          <mxGeometry relative="1" as="geometry" />
        </mxCell>
        <mxCell id="K9o9ax7KUyAUVBjDeXE--15" value="" style="shape=ellipse;html=1;dashed=0;whiteSpace=wrap;aspect=fixed;perimeter=ellipsePerimeter;fontSize=14;fillColor=#e3c800;fontColor=#000000;strokeColor=#B09500;" vertex="1" parent="1">
          <mxGeometry x="545" y="244" width="30" height="30" as="geometry" />
        </mxCell>
        <mxCell id="K9o9ax7KUyAUVBjDeXE--44" style="edgeStyle=orthogonalEdgeStyle;rounded=0;orthogonalLoop=1;jettySize=auto;html=1;entryX=0;entryY=0.5;entryDx=0;entryDy=0;fontSize=14;" edge="1" parent="1" source="K9o9ax7KUyAUVBjDeXE--16" target="K9o9ax7KUyAUVBjDeXE--33">
          <mxGeometry relative="1" as="geometry" />
        </mxCell>
        <mxCell id="K9o9ax7KUyAUVBjDeXE--16" value="" style="shape=ellipse;html=1;dashed=0;whiteSpace=wrap;aspect=fixed;perimeter=ellipsePerimeter;fontSize=14;fillColor=#b0e3e6;strokeColor=#0e8088;" vertex="1" parent="1">
          <mxGeometry x="545" y="288" width="30" height="30" as="geometry" />
        </mxCell>
        <mxCell id="K9o9ax7KUyAUVBjDeXE--45" value="" style="edgeStyle=orthogonalEdgeStyle;rounded=0;orthogonalLoop=1;jettySize=auto;html=1;fontSize=14;" edge="1" parent="1" source="K9o9ax7KUyAUVBjDeXE--17" target="K9o9ax7KUyAUVBjDeXE--34">
          <mxGeometry relative="1" as="geometry" />
        </mxCell>
        <mxCell id="K9o9ax7KUyAUVBjDeXE--17" value="" style="shape=ellipse;html=1;dashed=0;whiteSpace=wrap;aspect=fixed;perimeter=ellipsePerimeter;fontSize=14;fillColor=#d5e8d4;strokeColor=#82b366;" vertex="1" parent="1">
          <mxGeometry x="545" y="359" width="30" height="30" as="geometry" />
        </mxCell>
        <mxCell id="K9o9ax7KUyAUVBjDeXE--18" value="..." style="text;html=1;align=center;verticalAlign=middle;whiteSpace=wrap;rounded=0;fontSize=14;" vertex="1" parent="1">
          <mxGeometry x="530" y="322" width="60" height="30" as="geometry" />
        </mxCell>
        <mxCell id="K9o9ax7KUyAUVBjDeXE--21" value="安全规则生成" style="text;html=1;align=center;verticalAlign=middle;whiteSpace=wrap;rounded=0;fontSize=14;" vertex="1" parent="1">
          <mxGeometry x="563" y="420" width="130" height="30" as="geometry" />
        </mxCell>
        <mxCell id="K9o9ax7KUyAUVBjDeXE--23" value="异常流量检测" style="text;html=1;align=center;verticalAlign=middle;whiteSpace=wrap;rounded=0;fontSize=14;" vertex="1" parent="1">
          <mxGeometry x="173.5" y="410" width="130" height="30" as="geometry" />
        </mxCell>
        <mxCell id="K9o9ax7KUyAUVBjDeXE--24" value="类型1" style="text;html=1;align=center;verticalAlign=middle;whiteSpace=wrap;rounded=0;fontSize=14;" vertex="1" parent="1">
          <mxGeometry x="495" y="201" width="60" height="30" as="geometry" />
        </mxCell>
        <mxCell id="K9o9ax7KUyAUVBjDeXE--25" value="类型2" style="text;html=1;align=center;verticalAlign=middle;whiteSpace=wrap;rounded=0;fontSize=14;" vertex="1" parent="1">
          <mxGeometry x="495" y="246" width="60" height="30" as="geometry" />
        </mxCell>
        <mxCell id="K9o9ax7KUyAUVBjDeXE--27" value="类型3" style="text;html=1;align=center;verticalAlign=middle;whiteSpace=wrap;rounded=0;fontSize=14;" vertex="1" parent="1">
          <mxGeometry x="495" y="285" width="60" height="30" as="geometry" />
        </mxCell>
        <mxCell id="K9o9ax7KUyAUVBjDeXE--28" value="类型N" style="text;html=1;align=center;verticalAlign=middle;whiteSpace=wrap;rounded=0;fontSize=14;" vertex="1" parent="1">
          <mxGeometry x="496" y="361" width="60" height="30" as="geometry" />
        </mxCell>
        <mxCell id="K9o9ax7KUyAUVBjDeXE--47" style="edgeStyle=orthogonalEdgeStyle;rounded=0;orthogonalLoop=1;jettySize=auto;html=1;entryX=0;entryY=0.5;entryDx=0;entryDy=0;fontSize=14;" edge="1" parent="1" source="K9o9ax7KUyAUVBjDeXE--31" target="K9o9ax7KUyAUVBjDeXE--38">
          <mxGeometry relative="1" as="geometry" />
        </mxCell>
        <mxCell id="K9o9ax7KUyAUVBjDeXE--31" value="规则模板1" style="rounded=1;whiteSpace=wrap;html=1;fontSize=14;fillColor=#f0a30a;fontColor=#000000;strokeColor=#BD7000;" vertex="1" parent="1">
          <mxGeometry x="595" y="196" width="90" height="35" as="geometry" />
        </mxCell>
        <mxCell id="K9o9ax7KUyAUVBjDeXE--49" style="edgeStyle=orthogonalEdgeStyle;rounded=0;orthogonalLoop=1;jettySize=auto;html=1;entryX=0;entryY=0.5;entryDx=0;entryDy=0;fontSize=14;" edge="1" parent="1" source="K9o9ax7KUyAUVBjDeXE--32" target="K9o9ax7KUyAUVBjDeXE--39">
          <mxGeometry relative="1" as="geometry" />
        </mxCell>
        <mxCell id="K9o9ax7KUyAUVBjDeXE--32" value="规则模板2" style="rounded=1;whiteSpace=wrap;html=1;fontSize=14;fillColor=#e3c800;fontColor=#000000;strokeColor=#B09500;" vertex="1" parent="1">
          <mxGeometry x="595" y="241" width="90" height="35" as="geometry" />
        </mxCell>
        <mxCell id="K9o9ax7KUyAUVBjDeXE--51" style="edgeStyle=orthogonalEdgeStyle;rounded=0;orthogonalLoop=1;jettySize=auto;html=1;fontSize=14;" edge="1" parent="1" source="K9o9ax7KUyAUVBjDeXE--33" target="K9o9ax7KUyAUVBjDeXE--40">
          <mxGeometry relative="1" as="geometry" />
        </mxCell>
        <mxCell id="K9o9ax7KUyAUVBjDeXE--33" value="规则模板3" style="rounded=1;whiteSpace=wrap;html=1;fontSize=14;fillColor=#b0e3e6;strokeColor=#0e8088;" vertex="1" parent="1">
          <mxGeometry x="595" y="284.5" width="90" height="35" as="geometry" />
        </mxCell>
        <mxCell id="K9o9ax7KUyAUVBjDeXE--52" style="edgeStyle=orthogonalEdgeStyle;rounded=0;orthogonalLoop=1;jettySize=auto;html=1;entryX=0;entryY=0.5;entryDx=0;entryDy=0;fontSize=14;" edge="1" parent="1" source="K9o9ax7KUyAUVBjDeXE--34" target="K9o9ax7KUyAUVBjDeXE--41">
          <mxGeometry relative="1" as="geometry" />
        </mxCell>
        <mxCell id="K9o9ax7KUyAUVBjDeXE--34" value="规则模板N" style="rounded=1;whiteSpace=wrap;html=1;fontSize=14;fillColor=#d5e8d4;strokeColor=#82b366;" vertex="1" parent="1">
          <mxGeometry x="595" y="356.5" width="90" height="35" as="geometry" />
        </mxCell>
        <mxCell id="K9o9ax7KUyAUVBjDeXE--38" value="规则1" style="rounded=0;whiteSpace=wrap;html=1;fontSize=14;fillColor=#f0a30a;fontColor=#000000;strokeColor=#BD7000;" vertex="1" parent="1">
          <mxGeometry x="723" y="195" width="50" height="36" as="geometry" />
        </mxCell>
        <mxCell id="K9o9ax7KUyAUVBjDeXE--39" value="规则2" style="rounded=0;whiteSpace=wrap;html=1;fontSize=14;fillColor=#e3c800;fontColor=#000000;strokeColor=#B09500;" vertex="1" parent="1">
          <mxGeometry x="723" y="240" width="50" height="36" as="geometry" />
        </mxCell>
        <mxCell id="K9o9ax7KUyAUVBjDeXE--40" value="规则3" style="rounded=0;whiteSpace=wrap;html=1;fontSize=14;fillColor=#b0e3e6;strokeColor=#0e8088;" vertex="1" parent="1">
          <mxGeometry x="724" y="283.5" width="49" height="36" as="geometry" />
        </mxCell>
        <mxCell id="K9o9ax7KUyAUVBjDeXE--41" value="规则N" style="rounded=0;whiteSpace=wrap;html=1;fontSize=14;fillColor=#d5e8d4;strokeColor=#82b366;" vertex="1" parent="1">
          <mxGeometry x="723" y="356" width="50" height="36" as="geometry" />
        </mxCell>
        <mxCell id="K9o9ax7KUyAUVBjDeXE--58" value="不同种类规则集合" style="shape=document;whiteSpace=wrap;html=1;boundedLbl=1;fontSize=14;fillColor=#e1d5e7;strokeColor=#9673a6;" vertex="1" parent="1">
          <mxGeometry x="811" y="256" width="116" height="79" as="geometry" />
        </mxCell>
        <mxCell id="K9o9ax7KUyAUVBjDeXE--59" value="大量无标签&lt;div&gt;训练流量报文&lt;/div&gt;" style="shape=note;whiteSpace=wrap;html=1;backgroundOutline=1;darkOpacity=0.05;fontSize=14;fillColor=#fff2cc;strokeColor=#d6b656;" vertex="1" parent="1">
          <mxGeometry x="179" y="983" width="101" height="104" as="geometry" />
        </mxCell>
        <mxCell id="K9o9ax7KUyAUVBjDeXE--64" value="" style="shape=image;verticalLabelPosition=bottom;labelBackgroundColor=default;verticalAlign=top;aspect=fixed;imageAspect=0;image=data:image/png,iVBORw0KGgoAAAANSUhEUgAAAsgAAACyCAYAAABfjTn4AAAAAXNSR0IArs4c6QAAAARnQU1BAACxjwv8YQUAAAAJcEhZcwAAHYcAAB2HAY/l8WUAAEAKSURBVHhe7Z29bhw59rfp9wZmrsErrWEMnAzgoJ0bWGkdeINxaDhqARMspMAbDOBoAAd/BxI2GECOBg7tYB14pQWcS4EBJ8bA8LbW1+C5Ar1kVZE8VXVYZLEOq1ue3wNwpq3u6iLPFw8/in3tUqMAAAAAAAAAFf+v+T8AAAAAAABAgwQZAAAAAAAAAhJkAAAAAAAACEiQAQAAAAAAICBBBgAAAAAAgIAEGQAAAAAAAAIS5E3idE9du3ZNXbtzpC6aP4HN5eLoTq2vvdPmLwAAAAD4GshKkE/3dFJgEoOEcudonanehTq6w9eLK6E8h2/vHbXWprFw7S1cz4sjdad1v6aMSBo5+ZbJOTn57KlNTG9d8t0pqXKh1xfN3+2grlOK3nMyp2rP1jVxMDpVH1cHIhtbZhuwd/wzSbj0mqvky5vYf9Rw9S1r57lxmbFVU4raa75/9Pu5+Wygde9QfUN9OS2lZMv0I2m5Y+F4ZX4oZCwnS2V+XCSpLA5XzVXrYHV5uODrxZXlSXOZZXV4uWA+1yq9iyZwsqy/c3Goaz4Se22glNBD3A4Wl0O3HbpeUqwVBeSzOlzU14tW9uRy2albrwzZB9NOcVk2uPaHSo4dF4WJB9E6TtTHFSKmz1J2ZOndP3LDfvxYam1tFtEYWVqoo4jYegk7z4zL0diji7Ros/0jlkeUtoGujEN6TMl3xG0glqOFfXqOeJWVIMfxjrZR/s/hjKKbzFHF9ZXkA99wEjgKa8hjjZAadkvgtA2C9TQQp+sFsWB9LB2nKG0ktD4t2U6Tj3NQwfoP2RUNCP1b0s5NX3vi21xKvFV9mC+n9VzvANnTCqa6zk7OEV/L18cVg3aircZQuyqYgJI4vLA+GRIqravW34nTw2YmyJwPeLvaFNsJx8Ji/pwblwf7F2KvY/vRIbL9I/z+PDbg779YNHoMycXJdT4/CsogKO+GmeJVkQTZOZSkgRbCKairBBKw+ZjgFSFm3FbpOXLT1/LBiziIYHALyq1hyAZ8wJ3HEV1dWbmSYDxSka4dcgYQsSlf17YuSRtsG0knIla9ZPJlWgQSTG11hm3CkquPq0ZMX2ViiKctx8HYQuza1mXueCJDaZmOxPkI39+VkHFuXB7qWypcW6Tqmu8fMbmlxaF8qC9F5TZ3ghzro4I2OV+8KvCQ3ql6dnBevVo+2Vdb1asQ3B6iGfdmXRypn5+bFwt1+Hin+lM62+qm1m5RenuCBmSzc6zO9jlp76j72loM5x9X9YsZ2Lpxq3nVhdjHybGuXWlO1etKxyF73FL7TxoBPX+tP83D7ZPebtoxH1uKF2vdBh0M1OVZzOfmIFRPjhliwM5jdbhYKh1K1bGowY1p55xwezpNCezrvHijXlamHIqDO+qx7pEM5y/fiO9BvDh6qCpXWhyqF2wMI2ztqydLXc/VZSDelYfdUzx6k27h/iPwbEBoX+epD5KKE+vW/hNVR8nn6rXIfmSZuMyyfVNbsiDZ/nGh3tQXatN+zPZ1O48P67qev1RvpB1L28BuJWMd+2QDnwgXb16qWqyHiheridvmxbl6SYUzZ7xqEmU5bNYfGRG5kQ1bQrO2srgRFTsKiYxSxEepGiI7v2zYL2x1BxickcklOLoztGeEWiTahxhRPfnRpik9EZFRbrAIynVwRsHVJcE/YqPzonj9D917nTFgUM4EMX3MhbP3cOnqJH1myRTptlr/8987Nl7FZunEiMWCUY7Wb7cMpN8KlZ6efQwMNaHlq6PaGWBKXI7EtrH2EyPbP6Lxoa0r2ZWEfgzerBnkgRyhwft1u85zxivhBDneaMOws5nvkA4aHPGgEBI0rb+QD9b0OjdqqMSZQobBkqaTHFg9Upkx9XTGLSq4MIPOxCQT7WqRID1bW/iOgQaLJD0SPcwk6gZipwM3XncMcPeP+pKQPuaismmugyN66bzvZMHoi7azLrJ6sfemMhyqD4evY8GOPdbpGrkn1ld/2NmUvO3Uema/l8S71vuubZxu2/ZfleR2hnE6y4rLVOf0O2hd5Wwh2z9cO5i6tOypLpK24OpF6jwoc4OrU0E/cnhd9cVKY1VTSJ3njFeyCfKQQViIYcgHh3SixuJgAkRVZDuKChoYuHoR2TG2weO+s0B9NX2DbEqggq0OkQmE0vXkAoX+a8sBF4cn7t/UJmM2wn+3BEyAaEryrXJsJQu+roO+vQExwAXZqP8bBPSxCTi5t32s5ZOOdtxbngx1aJlY/+/oYKgD5PAxqFzH7uqUdQ++D1mH7bCydXbRblsrtmsduVXNJJ8ZZkpcdrD9hy4C9aNk+0fMvk3RHx5r71Fi+gzJh8TlXhGWqZdfp79v6VTX3/3btyVbHxkI7kG+UEf1hl4tS36/jYHuO4nuNyvGmH3Sob1i56rclt6lOuH2km7dUw+aunz4lLKz5lTt1ZuQTEPZvWVTCe41/vBpcO/P+cG2umbr1uJcHWwXPD+72te9Xe95NHLWg8Sz/R1mL6nfPxa3EWnCe1vT9L5+Kv0GzqPcjBgwhquvj4qtGyppy3S1f3VXVd6pdaS7IXW8I71n1samhTp8sQn75ocg+2UFn5t4vpuzd3ka20lKrPew22csdIJRPduwU3LDfXJcJoT2Gp9/VEWftsn2j/p5i7rbq/fRXx7vJOokFa27hwdVfBV9xuf8QG0P7GGXoHrOp8kJdPKrLi91/VP2kxeMV3IJ8ukzZ9xPgp0e2bT+4N7aguLF0c9OmMPP5hmDtk7bGPSq2VSvKRbgFjd1Ws4x5qEgE+Qaoym0Sb96WMUl4CdmNULp0V1N5VDdh60u1KcPzUtDc40vq2ZTvrn8ofjDmlV9t+vgUd/bBpBOvSpW6mOj95u8MgpRd05erEYuJ1qDNUOJ53rYUvtnVIe6WCMwNtCr62bEgHSumj4MdZ3pw1l1sfEgTK+TcgN16w8ynO7VdVkcvigycBfl9LWLo/ezwuiOOqb+ocvKBrrnu2X6kMBDetEHi5lE1XYdF/0gKcK4uNxg2mevaZIiJ1OtrV3d1jJizfSPXhJ35ux+JehY7oFXLcfRXf7WvjojNuoLjXfy/bIWTm/g4B7AXX2sdRygeLzSAhCALI0Mzmf7z7Wnx+fET70P14G0iVleoMskU6bwWwSWZChpyzF0qSpnSTABshTSqwpdqgksL4VlL2sjrWXCpvRF5+/p3gssR1P4ZcJpeLvq6422JSobogPB6qUTvP8mxAAi58jSoZg+5qK1RBkq/BaL0Ps1gSXRHCJxztUn0XC9HkrHOuHvd98rIFMHjf0DhcqWW1pnZC8Z76jv2NL/WiYuG0h9+35Hl9pl9JXtH4wvcnHCfv/kGOLkwrfbyTwS83iIXAX03/o+W7h6MbFiznglM4PsZo9Dx25sDm72WI+JwjPdGtomZglw59iPqp7LnHszikVwWtPMHtFZb8FlFoe+R7OdRjtLf6SqR6IvdGSrCBxfEz5yzs+SSxxL19oC4pZfmn871jVb3MEdO2jE2tfb1v4LP8Ne4LgtUUZvB9pArpw+yJaqxtZ1jGdngiitJd5qBs/PbjkuPql6Mu+WujEQNlNwR4o1y7bdWU7bhGp2tflbyaXdtbFzv9GH3HY9N4Oo0XlMR/90lpXQ2nrTrJQy0492pjPc96QzJS6fPvMzx/0tWjvqWGdQNTJH0mX7R2t7gN020rvQzZLfmuhYbutaM4NOfcoUt3pA/S55mt0fFytDewtEZavMtlK3anHrhntvznglkCDTZCm2z5UkP2vpUPze46F90ganmMUDdY9tEzGYyH5bOfxeuJAzne7R5JgxHBH88sUysOa4de9BExzawd8Z91wyc52QMc++A1a4JVTiTK7TCHVefquAGG45KbSUu6Xu2ayz9D47Qdq2uu4YMIKrpg9nx/ygPoT3VX1dYILD7xsPbf/6inGJjtQZwF2kBuYkJo1aYid9WbAPj/c9o8iNy7qNvmsObNEi3y0xOM/2DzJJEMw3yJm+a52cmR0SO/VAhxcr2Y5HhDNrvNKjymmMXSYiyw4iM/UjGLMUl/LZsUuBUZjlBEqsTn7pYdqyQhy/PBJcFnLLPZ26hP7u8N8tJ9b6+3i5kiXJ1g1Df69pLfNI639Af8nLZGQZUqp6oxhqyxpjgGXYJhok9TEHrr6RJdZee4ZtXX9x3N8FGRtXU2L1NIh8BPUsX29fT15PZFm7K9uIrZeQcYm4XCPdh+T7R0xuSXFICFeXnHuV6E9i3xm0yXx9jGVygjw2mLUaxzbAvB/ukPLx900SGlEeZ9ze8AUNZqCDo/fj6u/0IBjAhvD34+pDAnHPGan+u3Udum4CVJet7x2qS0jHxI7sb9vLGYBvfySxjNrwGhPkmK225c59xrxfIgZ40jomQX3MAdF5uz60HfG2tO25kE8OMLZP8fZWMPZR+XD3Me+PcDQaPyX9M9QPUJ+sSu+m1Cfb9sHHQQEE4vJwOwTtIds/qO+16+N1VTbWWZzcRvrxsLynEfSDWGydKV5NS5CzO+FuwO6WAgbjBJr+3b2gwhTRjpEqPVQ4QadcZ4uYgcd0aEooQMWuFQxsDTFd8mJpJ3KtYi6wcheTqSbTBlJstS5Ssk3Q/6Bc5owBKbZal54/5/rkmqAdTq8slpfLyp552Q5eO1MnbnD1YOU64JPdIqyXqI9170cTwEARH1hF7rlcDsSsWH0L2Ll4XHZF3l6z/SMSQ8RtIICTdShxjMW6AvrXNx2OzQNJ7hzxakKCTIw0M1PnnaNEICZKGK3kkDPKJ3EVwSA1cL+UTtwWaSMP3DvF6TkDLxssGGdMsN1uPZ0IbdsLBA7e+cO+sVEJ8gh5zBMDJiTIDWP1sU76MrX1tLFsoN5c/Clg30M4WbP3XV+CXBOwJe5eAwnn7HHO1i8hZvVtvbSd58XloHyL6L0h2z84uy2UQwTITpAz87sxcP1AmljLxqtr5j/6SwEAAAAAAAAawV/SAwAAAAAA4OqDBBkAAAAAAAACEmQAAAAAAAAISJABAAAAAAAgIEEGAAAAAACAgAQZAAAAAAAAAhJkAAAAAAAACEiQAQAAAAAAICBBBgAAAAAAgIAEGQAAAAAAAAISZAAAAAAAAAhIkAEAAFxtTvfUtWvXemXvtHkffD1YXd85UhfNnwAowfQEmQlMd45SzPZU7XWuK2nwp3ude1VlT9diHK3vEa3vhTq6Q747UoKBP1sfcyDURglacrqjYiLq20/8mmnk+gcn4/F2PgtcUlM6o5nqHxdH6k7n+o3rqDm56jImZgRL0bZ2bDfJFpprdp83/y6HTB+S08YMJtjpxdGd9nW6lHbLGibmbWjs8rYwsh8gvrY5/XKXq9OHcLZqipi9XmazujxcqEvzFXxZXp40n+yyOlwwn/dlGbowi1g91eXicNV8NsLJsn3t4lB/uxTxetLSl1G+PuZjahulOLlctu61uAyawOrwctH6bKcUqGS2f3Tts1OS7bw467DVifccsgPRODCNmO2wdY3YTasUbGuv7gm+Ra8pFy/icSvVt3LaOJaTJfn+XhmIdb242CnFdD90X8Yvrb2uwe/6/jUkTwITPzYnHhOuTB8SsVVTBOwjO0GmTtjycSpgzvmD79MGS3aQdXDrV4UGvRQj9/VbLBonmdtBnZP165utj01joI1SOFlpPQ7fK2yTQXlPJdc/aABu2eVYOy+Pl123PqSNwr41yT/oZzZEhiGqDpxpB+3Yczo5Jz9RYycQv19Ye024V/F6VQj1IZltHENwwBCMD5ZwW6baziC0XrokicP645z9b6ueOv66mBDTO5WraR/JI6RlOZWgjVylPsQ0I+ADGeQlyESQbAWCxkMEzV84r/HE2kGggdgpYE4H1QQ7g2x9bB7FOzwnCx3knNx4uXhH4wdsrq5idpDvH8N1iX3vjMRsNaKTLCb5xwZ3aKOYYAMldNLC183IOD0G+OvWZtYx23LktnE8J8uAnobsPNJHxGJhHpk2aes6W/9LBu62nhF5WZyendw2N55cmT6EyJCvStvXppCVIMcTxEAFEwLtvMlnTNANzhlqI19Lgjwgu2x9COGDgC9ZPlS8I+7oe/B+CTKTrm+2fyTYcceGRXH1JiVgi+uw1Sn3XIuvFyI3KSuZzBm6Mk6/n9dboaolkNaH5LdRknBd4/VJ7CvHkBuTuglyL/7I9x9Gf612JybIVd3aFzo5luiLe3CxmZX3OvsQf+9WCcbceF2tPU+VcUaCHO/AXDAwhTQy2tm0lClv5D3c/YYU3g/C0XYUwN2zZxH5+pgM63ykjLxXuI0y9L7f1Z+xtaH3KrzcTZEIdlG7CvlHNHC1A5CkeF3HGijde0XbqJFNHqb4R9/3ry65bbG2Uyoe978/Xf8boJ+kPmRKGyUJJRahv3tafi5UZ/udo2MnSZBPqO92SlHRpibIPbysJfqMMO3+qV869rqmPqQVe9nCy9fZI9ePRPvudDJOsVipj+f1q1s3tuoXjvrpx+2D5gMdVv5C1bvSPI24faD4KwtgnvJt7rc8OVY79V97XBw9VFVzlifqOPSh4pyqZ41Ml/e7lcjXxzT0dz9s9LU4VNoOzWCrLtp6K84P1MPkJ3WH2iiA1vfDWpHqJEWRq4+NLd5SfbGaJ8S3a7sQJNc/Lj59qF8sbqrt+pWnemp6VxV5xl9/tz08QAdMr//LldLBueL57vinn7dvNhd/+JT01P0wU/zDXrtQN3uCvUqYdjb2OjKOXRz9XNvO4oG61xWfAKd7tW0uDl+o/ej3d0858D74fJf+3ZbCT94n9iHj2liQi0+qjhQdew79vaKWufwhIRfKhq2+Xyai+5ddG9O52PPzhp0uMxvE3zU6ESex2ZQTLbE2a+tDDN38oVXHc3XwsK/HnePmfW0D29o+7akVtJ8U8TddmZH0R8MVbgRiih6FMCMSfsTYHZnER7NZtGbfbImMMAKzAymzYJIM3y9fH1OIymDk/crKNDDTNDTStPXv1Kc7k+L+LWCsuf7hZNduXGsGYXF44v4tM3MR81N//9b9nF2EfU/WFib4R8v/AzMyAnqXh6/reL3HdDyRmI/1btr2hXiRiXWOnD5kdBvL4e7Z9atYP9dc42ZrC/ilqxstoftQ3+U+Q/RUTLyuDhH99/A2LBOHGYh8Utu/nj4kgmtHyI8DMVkXKb2L/FBIdSZgM8TUgtNJtx5Nb9/U49EIdGTSjCKOd7aVnUAqjx6dbIfOI/QzpEOzA+UhM6tP9nszixzZ+kjmQr15GanTzv1mBPhBfYoO48e3cQwyqwB0JmWhdHxQl/rL3GxnCXL9ozXDXc+unO3vqBu3qndlOH3t6vWYlemWuvegruj5x1X1/wpnF8b3+jN8ZgagzIqHZ7x/PFe7oRWD57vlZyqFOD/YHnWOsZ89Dul4CtqfKh1oX3qR6vM76tjNMJniZwt1h0j+bssccXuoD8lpYyHoak80xrZXVirZnu2rHdEAYqnlZ+vWopodHDpnWMc2Xa9eW7buqSb0qA/xzuer4/S1VfSE/m6OPiRGNGfZCtZHSu8TE+R+0nBm57TdEjVPr5Nyhu6XREXZ2ldnnQCqR60VpuPoBrjN2FoxtpPK18c4vI74pU1T7JLMuaL5EUfRjnjs1gqOXqJ65pZu3LYIYXL9o7UVQ9uuTxL8kqYEbkmuWeLq659sXWhtldBJjnU8LdHd0DVFGOkfrb/Vn6fxw0x71eh2zPNLColsqf2zQF2NvpKS5LKD1o3ZdjCGkX3I5myt0MlOE0ui/RmTGNnPO5+XwG3rqOkNcFaHTXLEL7FXcNsBKsKJ09fPqXL5ceZWxbn6EE8dl2k/UJXAlsKaehDnzdrYjd86MnYyIIg2xpEwy1zcMgeztKSDSfs6dnmivfRSGr+MFFpa7SO7BDxEynJMvj7yYe45UIaXO1LamItfgmHr4PTM2BpZprKFq5+1aYm65/pHaym0Kf32RmQxEu6ewcLaHG9DRo78cl8uE/wjEgcqosuAG8SIpWc2LkoRiUXOD6L6l7XpXFhZibVxIkTnwXvRzwx8toxfDvTzofgcka2huHyd3w/Un6Vkf2fw3z+m6Vw8718v72/cffulH4N8X9l/j37nVBlnzCC3l3i1oMjslseNNskDR63l6Gpk4mfiHG5kyTwcVYCtew+akarfCnDx5mUzcunPcJniZrno7FmBGSQ3s6rHRU+CUxD5+pCguh8d+TNlaMYirY2ZXLxRzU4QfqbbjVDrZb76781yeWt5xy4x9aQ6/UETQq5/bNHpkmqGm5N5oQfOmvtxeneFWwbtLZfXxcjYzsrLPKwp4R8D24ScnaRsJVozyUvPfvZ4cfhYfJuCWwIOrD7YWaF6+0r9t839WV6+D9mINprZYBvjjJ+GAvHWDR1NLM1KCfNZ65cL0QAysMLo6hVfhQwhW9evl7X0IW51V1P1d+2+QGe6jV910Nf93PgPt/11a/+F23p1/vLNpFnkjATZ7y00guSXxP0eVWqgPpBoJwyspbvkNLh8Uop5EvJ0UjupfH3k45OOaXt9ynbEkyDJRLBuLgGXCRjZ/uH29eqAEVoOt3uGhezcBdTzjzpsSmKXCJdK5jCTCf4h0EFvKkMDuqKD1q+aTepDTtUeTY7ZQaplR933ASSwHcQv3UtMBsj1IRzSdb1KeLk+fz1i0m4NfYifiBy5/dFtfQv1ESTmT+2fdKY+nthSXXD5gTx1yF9YePmhj5uqH1iu6eKm8EdcMxa/TJCwxJmtj3xG1S+AxHdMIrSE1xCrX47tDJPvH8N1iX1vDiV81ddT1P8n+EdsqXaOWCBGUhyYPwZ3icncI7/km0NOHEhvYw5eh8l1ithGiVgd9R1Xp8497d8D183SryT5Ekd5//LtH1e3ufuQmP5dfUL6H2hf1LYSyUuQNb7yneDkKh8wAPJ+W9AZTj0JovCRhiQl/DDjE4VsfeRCko6Q/Ko6BZ2pUDI0hkiC3LLJjpN6eY+znSi5/kH10Xqf2rlsh0FtjtVzVac0+figrksBv5KIV933aZ2DZr4h0LoO+ptrb8HkIoLTVVSo3rbXI//8PiS9jWMhcWLUd4fbUszOaczqfvGQXw7YaLKdT8XVYWz8L58gt2xAl77OzPuMf8/dhxAdt+pI68Hek7aPkf+Q7YwkO0HuKqFXBjq5VsfaK2MNLgIRVqiMdXrnhAU68oos58vXRzYJsg0G6aw2CuMccaAOkTaWCHK5/kE7B66MtfM4NHCGSr++g/WUr2RDvn/E5Fq0Ix5FpI2mDMqX6LOYHuJsXIJcoA8plSAPx4526d26l5h0Sgkhx2TL3XNKv5NJsly7cSSlrlUR7gdjugwkuvP2IZH+Y7ls4hlT15lsYEKCXMMJNKlenAKFjbpiQJC5t3NtLpIgk04uo4LZ+sgmbOTh+05roxgpCXIF10bBkTRHtn8wSVKpgZwl5GOB+3I2OleSKRqvStvAaAYS5IRGetkId9YjuUoJcu59NzJBbuh/R2l74Ow2cs9gAljGJ69cgtzA1zsmo3n7kH4dbf1sPcL15dsnJ8tr5j/6SwEAAAAAAAAakV/SAwAAAAAA4GsBCTIAAAAAAAAEJMgAAAAAAAAQkCADAAAAAABAQIIMAAAAAAAAAQkyAAAAAAAABCTIAAAAAAAAEJAgAwAAAAAAQECCDAAAAAAAAAEJMgAAAAAAAAQkyAAAAAAAABC+/gT5dE9du3ZNXbtzpC6aP4HpXBzdqeW6d9r8JZE16ON0T99P3/POkewds2UANgKnv1a5o6JmcnGk7vSuk7ev+bhQR3fqNsCUBXF2sqc2RayIWSWA/3ytTEyQvWG0S0JAsIkSLZtoXVw9dSldVa7zTr/nqdqz12FgcDXJ8g+i91HXCTG2zmuLAbWctg/Om3+nUw22tg/U+CtnZE0xKxumvqHBBj+oCRTxBnP+tTnJ71dByxYSBqsNdhKElo21984Au1Q9OZmkyZTL6+aw85y8hfFJwZwnP0GuDHlb8X3Mc7WrK8oHuUb4u8+bfxOe7+rv3LDRNldPzfNdWUV4wp13/J7WsHe1BsDVJNM/qqAb0Ht1XXpnMxrbqQV8pc96Y8DpnpXTQh2uLtXlJS1nan+rerOPbqet8uJw1bnuUp0FL5yP9cSsXMJ2cH6wXdwOxlAn5px/1X3dxiZjVwrd9yXHkBqbBI68bI1om39YeIDdJOC8TM7VwbaWWchgg3ndUE43lby8JeiT5wdqW8gnMxNkYsiLQ7VqdRQrdbio3zo/eNYLcKd7VvjdzulELatPaEVsUhBfnpA61mXlG6geihqMMRS+847dszaWRra6zie1MMEVY5p/LNWJ+3xTVof6mww6MD6U96t2Qsbc/3inec+z3hhwoT59qF8tDl+Ek2GGC3+herEByXCQWWNWPt4OTJVJfV3w0nbQ6eW29s9a7eoX3/8sbm7XL6aikwY7YdEeGFl71TXd3Zxk/qriBq6LRROzhqiTKh96+jbPhJ61c3H0sLb5pDbmQBPwfjz2rvVzf8LEJNZsXkdzuoeiEy3ZeQvxybbuhX1Sf+l4TpaX5lJds0utgD6rw0stT/3+4lJ3gB73d3WpA2Kf0HVTsHVdHF5KfaWu6KU2mPp72YZk4uTKt193cs37Hbm767xctaHVfxNtt8fVZWz7i+hjGCsL3bk1f5EhWwYhCvlH0G6mEqsvxzpiQIuTSx1As76/lB3Nw1DM8u9JmXKUmB1EYmEQd52srRsfGrZXph3uPWG/m4B4zJKC6i0hBhSLaVkk+k+rXTYOCftcVHbh+w7nDAVynuy8JVYX38apsbrMQ3pbN9St5iXl4s3LemSjRyePudHd1j31QGvXzHa9fFNolqOz/ydv6XlL3eAaOJHT183obfmEndna2n/iZthe06HRzmM9wqtHi2sbNdtldlcSR28i+hhHPWol90yYreT2c+XsYR2ilH9slTBWzemzZqZCj+BT7W4jYsAfknExq2fvwnsIonZQxTTzYowdXKijn+sYujh8rCRDoZm5Zm3c2atSHz5Fo0hvv2TJrRlZMasXj5tSsqJGLs3M5fLkOEFvp+pZ0460z0vS12F4qynFz+yOXbmSZVvdbOy1zany6ce+jhZdttT+kzr7UM9f608LkJu3XLxRL+vgoQ754KEe18FDnb98E+3bh8hLkHfuu0TtZyabuTj6uVkqeaDujTIEH8TPP67qF4KsTGLUe8Cm3pMzzv/9Mu3yvpR7EgMNfKffO2lslFZYG+/Z3IHCUwVit9ZlMXuWhpNdOX2ksqqW5XqdRLVnKZDQD+7nmps8/3BbA5b3BW3E2msoSOVSNgb8cUmNWXUC0HfnXcH9yxfqTd3D6S7intZ4H7cUrUnu5FzHuVRPNm0LTDWB0N8vafaFi+/rzIxZVRwPPYBa8NkAly+kDrRPXzf5RWBwVYjgntcUTp81WysKb88iEwwHzxht2XpoH2mFASvT7t8dZFut/mQr/cgmL2/xg+tAfqnt/6EPHmrSPEszkzweMj2uhdosc5Cpb2aK3y2LDEyfp3xmFK16mkKXZEh9k+9XYKnBMLg04pcMXInce7YtFra07kPq262nuD7iOFnYQuvk5M4tx5B2MPWRXq4s4R9eT8JLkU5u4763RBsHIfpNKu6eNJallPBy8PqJxax+W1u+wCyFTiO8zMvKPdEOnJ8L+WMaA23p2V7bRnxckvTN/JhV1YeTHW2HtGy5OOL+xvvUUBuKQXyg3094m+WrZHVC2zPkAxNp2Z2/J+0Hu/ccjLm9PrtAnRtcHQd8fsjPXTtcmRaX8xNkQy8A2BJweCfocKVFO0cDVS73naQNvNL5jlJ8HyIXKDQthev6nyTKJ8XQptCqFye4kK4n62M8NDBwevNtCcg+IEP3vlxFm3rk+0dLL7aUsAFb1+q7SadMCusjAm0cRTBGBYq7J+/34TItEMsyNma1P8+7c/O+iC1xCYOGxgbji+7fgf6E4vQ8rx68vzF1bNke1wbvN1L9SXJ8GBmzRH3SEUgsI7q0tljJrGUztkjbgK8nr6dAOxpa9XUUTJAr+Jgckg1vF+24sDg8ichhOilxJiZPU5YnMvKdtgc5sNdYqQ+K3Y7ltmaYZfT+co1ZwpDe1+lZqpMzZm/NqD1knuoYoqKnbdRP6Vp5aCWrS13/nUL7SbNZHKoVty5GdM2vlMvqI4nlCXsU19a9B80TxdRu/TIwvyerAKX8o9pCUmhvd/Xd/LIj6yNzx4CtfXXmnnCmTzl3T9BoirNJs/zXfk8H5godmFt/r8vA8XAbQkrMMm3j3blp/PlHVWLjC92mVcv3WO1s30x+0t/vh+ef3ygCWcod3vNsbI1bSt5RXqwSUi0Xs0o8x+C20Yx4hoFS2TO7j6Tepie2dWXK1p3T5mjI0lsreoT2Gof64w7VNh27t7reJ3y2v1Pk2avJ0O1LJh/RdT3eCbV/HPkJciVA2zHWAjSpfU3IQHfUsfuM2aNqN7nXpVxyrFnc1CbDEXt4pd9Runaa5KBEkswYpw0gbj/ppnDrRiAQRww0Wx/5BI99Ygd6K/Wxkv9CSZ0WFWe6f/SPwbIJofFJuSS5bYeN/5OyOmyU3ztWbI0x4A9Dfsy6dSPQiY9IVsdB9zzXgxY3iF19rJPeGDpe1s/mSe+HH0LX2+7XjSY/t1RYrJJSFYhZVd/T9smqsInoBPR96sGFjh2jsmO/l76idcSXKQWOJLN2GOyzQth9u9ouX8w0yVJhfMrmD81EgDvu02wn1/oceMin2mttbbuSrx3cdWS/AfQG1m6Cw/rCNPLPQeYEuHMcN9DqM/6sOoppoOtYg4lXOZJH8aYN1uB0h8Pthc9HJw2scXZYg3xyyZ0Jnv8hLTK6vvik1hILxP1DJ6TOJ3WSLGSsbkapGrH3bdQk6rauvYesNjgGfLWIxazA6mAWZtBGZ34Cs/CRxMTNHo9+KDwXk4CQenMrYWP58Gn6RMvEmDX4kJ4o/kSH8adQ+AmUKiHqJddmcOjjncRJOLmTUvah+nlPrTArz4xPNStpfm5il38QXv/dTlJUq9aBwUtwID0jZgWBHVi3mDbBlZUgu6dO2dGfNtAX/scJeAM1nTYd9dXFNHDVpP1yp0OkM+pgeemtAK1ZzGbUxxinlY/YIfgzkOtM87dxztniIaT9Y0vd88Y6vSOmDCy5uySa/cxmxoCvGpGYFZ4NTae9umS3j3W/1iUmQwMlN3usv2eWrVAkOTb9n0RybFj3YNBuBdBUiWfXN11mJYDbstDMZnZnq12SXq9E13/vb8cKT6Bswkk4/lSqaitIt41kW5qXgcAKnzulgp+13jn2ExP0JKzWFpoqseaOXlvHqmqf1qpLNYnIDKzdYHFavMpKkG0HFjw2igTicQZqjSp01EgJvCHnJnIyoym/Hy28j256XWeDnFU4zpnW0EZ3xA1xJjdgCe3Z8vv95kPAP6Q6YrfkLjmjaFhHDPjjMda3/NFKY5eZOciATXfG/K4IchTcQADxs8dzHPlFZudMchxa3UsmrY3JTIhZ7gx+LceN/pVIjUuQpAf7AYYH+hqS8K8bN6gMrqaQPIPKzz0bYtKPwKCP6yfXgH9mSA8CAk4vFa+mPaSXYKDpju+Dj/Qh70PQ2fBRHTIZqUmNptyDMNzPQGqy67oGcpc952+jtjs3BUUHfH6Wq33mdA39mdx5mOIf/mB9sVl5NwgOL2P6H75JPX95PTHgD0N2zCL2Ezi3eCyukwtt9yB1fRAKILPOHhvbpM+FTE2ONSltHIVAzGIH0CRGStB7cLZT3H7ZZiW1+ruXt7ed0Bm3fpJFZBXKTQZw5/+S7aYt+BUyX/xMbrWCUv1N8EHflIdpW7r2ifPzn7lnFEL95BogfQ+/ZVAwXmnFjIcercIcx3Fij+pIPG5l5Y7K4b9vEgNHBdH7LlIq2pB7XRx6rEpbdvSeKceWOB1Iy7PB1WdQ/0xdC+gjhqtPrzJheRt4mZMjfxbN+ykKmQCtx2h90qOmhG1hyCY3Kga0sMf/pNWLYtsk6/PzMOxbxKZ779HjkxKOWxtBME6Q/mVI1q5NRe3FQOLEmHsNHVdG+1DB+MH7ZDxm+es6daX1NKW4rDXRI/to3O7aJLFXsboG7kfquWjeT1elzDFkPWi8j/SxvfsG+4ohecviYkJMd0H/kdV/XoKsocEtVDjFUwX1iqilNHQdnCvsfWnHECgl6tsycKbk1rUpUp37oB6bwt4rWx/55NpqOzB0irnAtkWwvrn+EW9jmcAWuy9X5dljQAvrK19jgpwbswbs3JXx8ooTqe9gB+evLa2PlFhnS6susVhuilgSZ8mNWcO6WCyXdVvE68tAEs+wamO2LhzvBnRZi9W/TsPXP/2aNLL7Zk3sWtm6xnToC1ff4b5HJl5lJ8g1gQYOOBGngOIdTtC4h5xoQHnSFs3QV/6UYOGLqKxDyW4siGbpYxpBx0/QZVcX7pKZEuQUnYWDRdkRfwVnB5sWAxzWV/5gCXKGndtSur2cPcSq6+ta3r6DsYMpfVmFdFJiwOHJi1lMcm392MbsjUmQazibLWevXV1627P1SO8K/HelXzOG0EApxV8Ymy2i94F41SlBnXK5hKBAr5n/6C8FAAAAAAAAaKY9pAcAAAAAAMBXBhJkAAAAAAAACEiQAQAAAAAAICBBBgAAAAAAgIAEGQAAAAAAAAISZAAAAAAAAAg45g0AAAAA4Arz+++/N68AxzfffNO8SgczyAAAAAAAABCQIAMAAAAAAEBAggwAAAAAAAABCTIAAAAAAAAEJMgAAAAAAAAQvv4E+XRPXbt2TV27c6Qumj8BAAAAIJE19KOne/p++p53jtBzg/UwPUG2jkNKmkGfqr3OdRuZxDLtM2XvtHm/CBfq6E73nnfU1xQnbPBrlz1tFSXh5Jp2z359S+sj1z/y25jNxZG607qfLiMcxMt2BhvPjlc1s9Z1Cpk6uTi6076mKUXj3USdbD5rjucdWyjbd83JVegnmTjeK4Xi8+df1N1vv1Xf0rL/tnkzxFu1370m6bppvN3v33PMLf31d9Uvn5s/SmDOQc5jdXm4UOYM5UBZXp40n+yyOlwwn/dlGbowh5Nl/b2LQ13jccTqmfOdUWx9A2VxKH7HmYnZTaE25sp1dXi5YD7viqix1mT7xxps52TJ36sui8uhW/bbOfz5aeTHK8O8dZ1Gnk5OLpfs50kRj3fTdHIlWHs878s4K2RN6EdzsXbMyujK9JMJfiVk51++fHHl1SPuPrbcvnz63n/WlfdPL2+zn7clcN2UErvno1f8dU15//R255pwHXPITpBpEG45HDVczhOD71NDEgyMExy76hSZNtDOUtQRaTLWuS+9JyfWq0MdsPttoIFcOPmgcm3ZQeyeYZsM2v9Ucv0ju435BP0gWJeG1qBDt8W1uVzSmR2v1lDXKeTqxMun365SsSdbJ1cFKvNWOwrGug5Od4uFq0uWSK1OMvrRXKx99PrYoFzL2Wo+Nm6Xjxc2EaRJ4+2n732SSJPR208v39u/t95/dPmK/fvAddnl1eWj0Pe+esS3wZZWYq3r7D6/CQkyMVDWCIOdCAkM/IUuCRBLPIs4dqwdebgOI1BX9/5meL48MbvKZFiuYV36YMsP2GL6Gk++f+S2MZ+IrwZ1SRJ9+0bppDM7Xq2hrpOYrhNWPsR+xOJytk6uGLodvMwiupLAydjIMKbjCFYfov3oMDamdeUTi7vu/ayGSmPlXt6O60TQJ52xxPLRq857A8Un3UwCnVli3+ne7yXlJLG2M8yFEuSsPcgXb16qc/Nicage71R/arPzWOmAqjlXL9+QDUEXb9TL+kJ1yF+oHtcXqvOXbxL2W2bQ25uXs2dpS9241bwU41S9fl6/Wj7Z13fos3Nfu5rh+evwniVuz3TJTWeBPdpZewi3bihxsUbluqX2n3ByvVBvamPVZv5YW2afnceH2pI15y8VNfNssv0jt40TOH2t6lsu1ZN9xlq39pW/Jb1j3Qbdd6nLY66N8mTHqzXUdRLZOokhH+/ydWLh9p+aUnC/Pbev25Sh+LpzrM44XWjbsuH8/OOqfiGKls/Dg0rGi8MXiq1CAHYf+m4TYIrA65K/pVA/OQluX/GG7H1++2/1a/XikfrHj9erVy2u/6j+obNLw6//Tt/ke337u+aVFJ/Vf/71rnp1++nf1d3qVZvrf/mb0sm8Uu/+pf7T2ld8V/396W2dG39RX464K+XISJBJ4vDgHmugF0cP1UH9kVZH7oPiA3WPv1A99BfKJB2ElXH87TpoeM7VwfbYBxcu1KcP9avl/Rk7zu2bdUKmPqhPPdk0QYaLKs93CzjwwP005wfb4x+6vPikW2ZYKjGxkqSB/04d7FwbniuXN5Bk9QFvrK4DMjbEd+LjyPaP3DZO4NT1UvfZwYMZOPlbtjuqrf0zNV++mR+vDPPWdRr5OvHJ2vOfGZ/VdvdzdV3IF8YyTSf1oHzbvd/mudrVCYv0nED1cGav72io4mvpB4xHcvqslo8egLxIzo7rxG+bF2wZBnWZyWA/OY36Id3dJt5STB6x/iT57b/r9Fg9+iubdKq3++qH5iM6Q1apKfLn1W/1i9D3luD6tqrT8nfqv/+rXjiu//hWFc6NKzIS5JX62BjzrRtdx6uTppCDrfyFvaBYjVpDAUiC8wO1W9VrqU7qrSW6rJpZikDHwGLa2Dj08mTeztPNsJ6r7qSD71AW6nBl22fKiW6xQTvwQ/lTQhaHK3KvppzYqZED9TA1YpjZmUb/y5NjvoPP4MKOZBY31Xb9ylMFZy7YaVYfG1u8pfpmbmaShIO6Jtc/stuYjR8gLm727lh3IoGB0/zkx6urxTSd7Bw3cUL77DZJMKndjZ2JDCOhExrHbSHxfLdAwqrjfft+uqyaVSSTmI/Kyof1NQ07INZ9wQt+lrWPkbuNE4xsbUyXxMRRa5OMbLNvOdBPTsH4kHOhXn297a2Pz8rmsbf//Kf6BaE66cFlx+l8/uWu+v4nM9v7SL2aIyt1/En9uZpCVuq3leTRFOlMOOZtoVp+3RoJagdzSdJHHQ7btANCe9S6PPEJnfjKkx5Nry5p8rWl9l/YZfID9YyNb3XA9kspdRurxFA0O95WN21wHzvF52YWTXJ81unEdtSxTZKDbcxBy+7skl8+3Dl2wS24fFglmUSuVSdcJ/dFBh2tpLPRaRPtFocnLrh96E45dJLO1kySDpLRdmaQ7R+5bZxAK8FpdFrfUuvyxCYP8jM548mPV1eNPJ2YOEETzNovvd0FfH0SmTrR8eWyFcctJJ4L29zOsU6CuMC0ta9eeMfSXpeIneHVtZWZlfec7tWJ7qgBjauPSY7lJiiGOH3m42h6Xzqhn5yC9qN6FcXIlev7TX/Y7Xsp9Uq1zyNMKbfq8N022V7RHPdW58a31dNXT+utC+o3xeWdJiGmx61VyfHtp+r9lyPB2ePryu7aePev/+jUfjOZfg6yhs5O1DOK2sHcMscAdHarSl5NcuQdQBbt+GfMaHrrnnrg4lt6RM3aQjDIlrpnK/J8l9nDaxIlfibQLc0vnwQc1C+hSiZHQ2xnKbEOIkXPQK0SBtIJa5s7299J2GNZJ6ou0TCz9DpI5rUzkVz/yG5jPq0Z7mp2RXcWOyX2lE8nO15dMcbrJLzXuHTcENNJkecYhtka7Vh2hlcTjNmZ6JhRffWorRX6smZ7Tuh5C3nsXmIdS9lN6CHy+8kp0D3zY+Q6TL0dqOQzQlWy+/1Pqtrt++iV+vLlrfrxrt26MIJ3P6nvhc8YvvvXZjO0+e7eocef1S93v1fVxPUamZgg95MGN8vglqh5egHRJa9++U0Ubvm5IvYASj1T2lpOcTMbB2pbMEne2n/hZnCqBNyNNE0JO71bmq/2wtFrfLHxWPyBkCqJ698vukS6ta/OqEx18WLdLpIk9xMGO1PilztZeomqnylwshcm1z+y25hNe0m89UCb21O+KeTHq6tFjk7qa2ycqK5x27OaeFTkh5xyddKskJCYUxf55MjRzMb37mmFloSpt62jHrwmz5ymYBNvLcfkrRUGHxv6W14K4eyQ2cIWIbefzCe+Zz6MWZnxfZwvZEuG7rflc2STYDazv5rWA22fV6rZicFi9vd++aI/78orVaey79RP3wsmyXeP1KsmR1a//tCatf722/Unx4YJCbKZ7eOThhZMYmqMmg2ILTrLbzOQnDyaJT6796zAtoWV8xyKmQm0Hdb8sunTdFCjOodhzDKmbfv5wTMd7gXRQYhNGDr0OggzCGra2E5U20juI8z2j9w2TuD5bnummr/l+E5Qnvx4ddXI0cnpHndN3bm7eKR9IfmZgiQydVINWG1956EasNqBZzYmZlI528GrDFlbKyoKTUoNMWlAepX6yRCmDTnPQKXx6w82wXykXukkl986/J2iOzHC3FVHX96rp/WREuqnf8r9qt7dI52AuyyZcls9fW/v2dkyMiMZCXJ7ibfqiJmkwT04RPZFtpaj7ZJf/8LskeVURiU5mVszUjBPzvdHnDqYWtmETjmoZNq9rlMCSdNY6FPm9WxTu/DBK87WvQf1wEO3VEKsreXPqhPmEgbbQZCA2lrerZOGfqIqO/OS6x/ZbcymverilsSbfztsJ7jWpDM/Xl0tJuiE7K/kHpBtzdiJHL85RSd2llTT2Ho79vhZbzHstgVNLdfOPe3S1yA0OTYDX9nk2MjFHmLSn1U1xc+s2v3lm/ezzOPI7ic3BrJdRAS/r9dw++l79YXbN/y//9ZbLm7/WfUf5QtxXf3lb+6JOdk9w3ePOjPWprxVP17/n/pvk+T/dc5nAwkZCTJRqg5Q/PYhsiRBemOf/OgAEdh35Pf6zNWp+sCSm+TMtSxlZdNd5nGJ1ZiHRCbh9WsSOaGcu4PQAGnnvuswQ+dm+mPSyD3JACi4L48cBScxU5HtH7ltnIA7a1TfmT1zV+OOHVtr0pkfr64a2Tpxs3mhYwKJDEUeYpygE2fH2kdGbSPIx8lM1zV3/6mfoTfJcWCmfG34AUtossfJQIroUWy+Xx5LqJ/Mxw8+ZQaI5XD7ekPnIGvcUXDfbeu0N4Pc68Ziz3Se82i5LnrUNZ7sX0HK/6WwbCK/ALSK/FpakLl/6cndb/hnhlmxihP7ZS2vR17PYU7Ef50u9p1hm4zZhnxd8/0jt435RHx1jE2W9iXJX22b2+9HkamThDY5X5Cy9VyduL/zPul9Vk4/zrfYihLfCsjGXb9Wm/G2wTVjKH54mfLv5zFkq0Sm7PsDROwjG/e9CfEsmYi/juRL9YtxZX5JL/q90sXVM/zLeK2yUT81rfFOHwq2AaWT99sBxxuLnBNqBhyGOv4YA829Lg8iF11450wIKJUc5IKG13/7O1vB1JTkaELbINyRkM64bVv0npxsqOzb7xfr9HL9I7uN+QT9gNYlRf+uzeUSiOx41WWGuk4hTyfUzpl2jZVRIlk6Ie1ov9eOk5L68TLtfCepZ1UYvwzFyfnx8mFdMiBzV//Fopa7YN/Mx1Bfz4W+Z7c+Ydr6Twk744j1seb9ETZHbUdIpjYR9D/h3ElmSXLsfqI5pdDrej/7LF3eXz693dxLl+RkfNMS5K5B9sqA0mlg7Be5wFbRDWJc4SPGcPtMEffCoXvG5JJQX8kgTTtcpiyXjdy7MkrQh3xwo50cX4L3jNQ3LXiPI9c/stuYTbvT6Bfe3obbR4pgZxz1j8C91lPXKeTpJMUv5413uuToZLG8XFbtl+xHhuu50LGOTR5TZGpLiaDXwrchdKugXE27bLwXtfOwXE1ctfGsH2OH9CGcP7SI2Ct370g/KSlPnwy2k8x+eXT5iiSOtrx6xH2WFv66/DJcz6EZ7nhdm0IS+hwmnGLRecKZoB0w+LS/oTp03f0CESH0YNIU6IkTPeqHr0Y/uGYfhiuz+bZDU8eoXML6qKjqLPhgSHVMG/NATCOb4/vNv0dQ2Y25toBY6wc6mPo2D/oE71n9KAH3K0mhB/emk+sf2W3MpjkCUfesXXSnpusi/SDSFPLj1dUiUyeVnYd+vczsm9XfKW5AeTqhp914mjqePVY3m7/IYerJxIDGr84ey99xHXByrWymmG9wcq31OD6upvaTUxjqY8fuLW/qW0S219WPb/nTIYIP7g1Sn4Qx/roczOkV9YN6s/5oX4BrOiiaTBsAAAAAAFxBfv/99+YV4Pjmm2+aV+lM/KEQAAAAAAAAvi6QIAMAAAAAAEBAggwAAAAAAAABCTIAAAAAAAAEJMgAAAAAAAAQkk+xwBOSaeQ8KQkAAAAAkAtytGFwigUAAAAAAAATwQyyMJhBBgAAAAC42mAGGQAAAAAAAAISZAAAAAAAAAhIkAEAAAAAACAgQQYAAAAAAIAwOUF+u/+t+vbbdtl/27zZ5e1+77PBcvcX9bm5TAKunt9+u69CVe3zWf1yN+c6AAAAAABwlchPkD//ou7qZPGHX5t/E379QSeRwSx5burElqunrqn6Qbfh7i/DqXidXH+vfnrX/AEAAAAAAHy1ZCbIb9X+9z+pKl+8/VS9//JFfbHl1aPqEzpL7ieed4/85wLFXq6+21bXm5cSPHrVvdd79fR2/d67n/YUmyM3M95Vcq3b+cpeAAAAAAAAvlqyEuTPv/yfqidkH6lXb39sJ7I6CX7fJJLv/vWfcdskPv+i/q/64tvq6d/vVn+aznX149sv6qj3dfrvx0/1nQzv1H//V73wmBnyZtr59tP36otu55+qfwEAAAAAgK+ZjAT5s/rPv+q9Bref/l1xaez1v/ytTjzf/Uv9Z0SG/Pafzaz0o3+oHyWnj0Nc31bfNS97XP9R/eORTtTff1FvZ6kMAAAAAADYBCY/pMfiEk9mZjbIW/Vv8dnjCJ9X6rfqxSP1V+aWd4/ezpOoAwAAAACAjaFMgqz+pP7cbNf9bZU2hey2bdz+m/rLHEmp2ULR7KN+9OqInQkHAAAAAAB/PDIS5Otqu9mXMHqPcZC36p/NERGP/tHZ0yxFc+qGO+KtSo7rLRT9/ckAAAAAAOCPStYM8t2/NkdNvPtJfd87zs0cqzbuSDQ/e/xUzbW7ouad+un7+DFvAAAAAADgj0PeFou7R/44tl9/8LOyVRl7XvAMs8eG6z+qt61j3vyRcu9++h5JMgAAAAAAqMjeg3z3SCeZLkummG0L/ozh77aHU156ZBz3oFxJTBvckXQ//RO/jgcAAAAAACY+pMf+8Ic5+eF/6r/VpHAs6fWzx6Ej40rjjqRTv6nE5wkBAAAAAMBXzLQEOcTbf9ezwo/+Opj00tnjf6z9PLXvVGSyGwAAAAAA/AGQT5DdL9DFzjNe/+yxwf04ye0/45fyAAAAAACAZIJsTq+wx6eZpPd4+Ec27Czz2maP6/rWvyatk/njgg8IAgAAAACAK8O1S03zepDff/+9eWUYPsrt0avY2cLk+kev1JeSBxG/3Vff1llwEL6+I46rI2345ptvqv8DAAAAAICrieAMcv2jG+ZBvVi++/mXvSbxjG3DKItJjFPqCwAAAAAA/jhkziCDEJhBBgAAAAC42pQ5xQIAAAAAAIArChJkAAAAAAAACEiQAQAAAAAAICBBBgAAAAAAgIAEGQAAAAAAAAISZAAAAAAAAAhIkAEAAAAAACAkn4MMAAAAAADAHwHMIAMAAAAAAEBAggwAAAAAAAABCTIAAAAAAAAEJMgAAAAAAAAQkCADAAAAAABAQIIMAAAAAAAAAQkyAAAAAAAABCTIAAAAAAAAEJAgAwAAAAAAQECCDAAAAAAAAAEJMgAAAAAAAAQkyAAAAAAAABCQIAMAAAAAAEBAggwAAAAAAAABCTIAAAAAAAAEJMgAAAAAAAAQkCADAAAAAABAQIIMAAAAAAAAAQkyAAAAAAAABCTIAAAAAAAAEJAgAwAAAAAAQECCDAAAAAAAAAEJMgAAAAAAAA6l/j+/1a4kOpOkmQAAAABJRU5ErkJggg==;fontSize=14;" vertex="1" parent="1">
          <mxGeometry x="78" y="874.36" width="292" height="73" as="geometry" />
        </mxCell>
        <mxCell id="K9o9ax7KUyAUVBjDeXE--65" value="16进制字节码" style="text;html=1;align=center;verticalAlign=middle;whiteSpace=wrap;rounded=0;fontSize=14;" vertex="1" parent="1">
          <mxGeometry x="168" y="923" width="94" height="30" as="geometry" />
        </mxCell>
        <mxCell id="K9o9ax7KUyAUVBjDeXE--96" style="edgeStyle=orthogonalEdgeStyle;rounded=0;orthogonalLoop=1;jettySize=auto;html=1;fontSize=14;" edge="1" parent="1">
          <mxGeometry relative="1" as="geometry">
            <mxPoint x="471" y="662" as="targetPoint" />
            <mxPoint x="429.99995825180395" y="662.4705882352941" as="sourcePoint" />
          </mxGeometry>
        </mxCell>
        <mxCell id="K9o9ax7KUyAUVBjDeXE--88" value="&lt;font style=&quot;font-size: 14px;&quot;&gt;Transformer模型&lt;/font&gt;" style="ellipse;shape=cloud;whiteSpace=wrap;html=1;fillColor=#dae8fc;strokeColor=#6c8ebf;" vertex="1" parent="1">
          <mxGeometry x="60" y="604" width="375" height="116" as="geometry" />
        </mxCell>
        <mxCell id="K9o9ax7KUyAUVBjDeXE--89" value="预训练阶段" style="text;html=1;align=center;verticalAlign=middle;whiteSpace=wrap;rounded=0;fontSize=14;" vertex="1" parent="1">
          <mxGeometry x="34" y="590" width="75" height="30" as="geometry" />
        </mxCell>
        <mxCell id="K9o9ax7KUyAUVBjDeXE--90" value="微调阶段" style="text;html=1;align=center;verticalAlign=middle;whiteSpace=wrap;rounded=0;fontSize=14;" vertex="1" parent="1">
          <mxGeometry x="450" y="590" width="60" height="30" as="geometry" />
        </mxCell>
        <mxCell id="K9o9ax7KUyAUVBjDeXE--158" style="edgeStyle=orthogonalEdgeStyle;rounded=0;orthogonalLoop=1;jettySize=auto;html=1;entryX=0.5;entryY=1;entryDx=0;entryDy=0;fontSize=14;" edge="1" parent="1">
          <mxGeometry relative="1" as="geometry">
            <mxPoint x="567" y="609" as="sourcePoint" />
            <mxPoint x="566.9999999999998" y="583.0000000000002" as="targetPoint" />
          </mxGeometry>
        </mxCell>
        <mxCell id="K9o9ax7KUyAUVBjDeXE--97" value="预训练模型" style="ellipse;shape=cloud;whiteSpace=wrap;html=1;fillColor=#b1ddf0;strokeColor=#10739e;fontSize=14;labelBackgroundColor=none;" vertex="1" parent="1">
          <mxGeometry x="480" y="604" width="331" height="113" as="geometry" />
        </mxCell>
        <mxCell id="K9o9ax7KUyAUVBjDeXE--145" value="预测分类结果" style="text;html=1;align=center;verticalAlign=middle;whiteSpace=wrap;rounded=0;fillColor=#b0e3e6;strokeColor=#0e8088;fontSize=14;" vertex="1" parent="1">
          <mxGeometry x="532" y="553" width="102" height="30" as="geometry" />
        </mxCell>
        <mxCell id="K9o9ax7KUyAUVBjDeXE--146" value="参数" style="text;html=1;align=center;verticalAlign=middle;whiteSpace=wrap;rounded=0;fontSize=14;" vertex="1" parent="1">
          <mxGeometry x="422" y="629" width="60" height="30" as="geometry" />
        </mxCell>
        <mxCell id="K9o9ax7KUyAUVBjDeXE--150" value="" style="shape=image;verticalLabelPosition=bottom;labelBackgroundColor=default;verticalAlign=top;aspect=fixed;imageAspect=0;image=data:image/png,iVBORw0KGgoAAAANSUhEUgAAArwAAACCCAYAAACkVRu3AAAAAXNSR0IArs4c6QAAAARnQU1BAACxjwv8YQUAAAAJcEhZcwAAHYcAAB2HAY/l8WUAADhxSURBVHhe7Z0/jxs50vA57xfY/Qx70hnGwckBDjS5gdWcA1+wDg1HGmCDw0zgJ1jAkQEHjwMNLlhgJlo4tINz4JMWcD4TLLCJ8cDwSbefwfsJ9JLNJlnsLjb/NNmt0dYP4K4sqcVisapY/NM9RzsOIwiCIA6YNTs9OmFXbMaWm2t2NqnfvlXsYRvWp+zo5Iqx2ZJtrs/YrVTrgPz+++/1KwLjq6++ql8RJfh/9f+j2V4cs6Ojo0Y5Zhfb+gv7yPaCHStZT9f1m92sT2H7VNnTdorg25D1eChBoW55CVJvQn8My5ZdHJs26XJ8wT/ZRzB5T3maUBpYb1h9ePwItJueYHV3+gniV/tpr/0Ys0/+GDT8s4hib1vM+o39+OBr9vXXsJyxD/Wnbj6wM+uaujz4kf9iKZA6A+v7cNa47usH7MdyglpYOYzLDhrjN1pK2VBy3iImwPZ1XhnFCm8sqwUTq8LusljV39wXVrtFrIyb5W7WvKZZ9qadm91yhsiny4JroCTt+rtVk9Afg4PI2Ch7JfJqgcqoymy5qb+Yl3Ys8NmaX69stuQWlZ/NcobXxwuun7H9KidK77Ndu6nj9UkcXW0YCeV3Afpp2V/2ALL/MevLly+mvH2KyqjK/Ze/2t+vy68v76Pfh+Xp2/Z1fYqvTmd9v77c3Ue+r8vTt9b3s9McF1x2GpLvZI8B6fG1K5aL4rLz5IQXGyDg4LcvyQCUabZcGQV3Cgg7oq1085v7EXideofGXrBDtPHNZtppXNWl9ccYiMHDlxzsScIDg5UVlKAdZ7ZVaFu8zpUOQN066fIdGMRymwO0u9DA7ZYV2ED2QaAU7mRxrD6Jx92G0QhNeLWP8hhZLObtf8xCE8H7L3e/6qTv193L+0rW+7uXv6r36wKvaySLX7683T1Ff7NngYm5VSeojz3dvYXXeD5/+1S9byfLeTH9PuNjc1Wfy061fQ5nHzAmW67gy1ucn/vtPCnhdQMUvAcRyQRrFQRAAtAVbEBwwpth2pk9ZsUCkh1UFm0chQYJS1fdeknuj32jtE4j0YEDDWYFdAxsTvm56duugOnzGyNr1viR0l8+v/LGiH1D6b4p70h9koSrDSOibKsz4bV1qP11yJi3JzGrlfChiSlIehtJrV5pdSW0OjnFEtCU4pZFFpPUNlekzaowLgumg5xAO9PxeV8SXl98ddqrbzwz8QyLV8lneHGm7C5vRRjI+YvMZ2MnZ8/ZQtxMsMt9g0NMOyNxnaVxnPfavn/DbsQL3s5n8+otm/kzxg2Ec8PevM99AmfLLp6cV/XPlq+9Oi7XH6Hg59uij9JN77JS3S+IOze+Zu+u5KvFc+ymmQk7e85DgODqXZ7zvJMz9nwhbhzaseusHTlhd+7VL7PB+/yFVFCIjSq8fjV5yB4X86ueoDFE3OyVQok+AfQ6H93255L3LKBnnMUNax62F0/YuQyS7PU4gS84ZkWfb0/iA/v3T/LV0//5nn0jXwK+Yd//D08jBT/9O+A8L+BPf2b365dZ+O1n9q9fxIv77OU/HlRv2Txg/+AZseCXf/0MzvP+xn6WF/J89h/8W20e/OOllPWXf7Gfc5/n5X4lTXPBVpdYABuX5Lxl+569kReyJX4heyYvZDdv3rfP89aJbybCZuBwKbtdSs5AQ1e7PN/Ts4+8s6FuvYjSrM+/+gK3JLlx4bO7VFqrG77Voiah/dEfSw9Iiao+aFUnATDrdZVWP3tt0fSJKKXUHLbCK8StZcF0V2LVNHHlwrsiwhllpc6DP4a0dTt4n1QA30cLVh8YX1YdvpK9P2wfQovTTtpj4ih2441ZvjbmGeuq1U3vKiw8CtA4HwuONGDnZvWqKboaG1+8K8rWGV1wBEO/jxzLqAo8umFWh/NgfEuZ2H6t8KbnLeHtEKUdQzKu8KpHxvBqOlZSxOqVnhQvViLhBmVTZ/VjM2Fnr5dyRnx1wme5ZnWtWn2rG7BYXfL5RGZaOuFlU8vCtXtirX5s2KdqtsPYvTtNhcvVj2m1tFAC3t+VHvhM6/V+P45HrFpoPVQrzLZ++QAUjliRKtpuuXIK5YMy3pw/sVZ6t58/yhezu2wqXxmq1bPUlb0yzC9XrGrKzTmbHpnV9WplaRq+WxDM5lO9koDopydTtc3z8XN7JWEEhA5VbOUDXcOGar0jDN4nHL3q2bJ3JecNO3/iuuOaf3Yi5YLt5IOh/PjqRcadQhFHlQ8tGE8GgKy8eILH+tQ/JhYnIGYpOVttdI496fy2+T/54v6f2Z/kK8OHM/b119+xegG4zTffs8t6RfWn7+BTEuQTFL6rLnzK3l5ga6rx/Pc/cpWW/WXaWon+7ccH7Ou//sDqb9j89z/1+39h0/aF7MHXf2U/oBf2R/sWzyX2cHGXk563bMyFLTuG8coJN+pE8Blh56QVZN+uzL4ssSuKrllv7tUOP/jMpr16UKFX/UThMzbvKmA8apXC7kejryD1RvdHCqAPU+qwdKnKELPgJrhutV1YbbNXz+DNgaX8zszIQ3RjywdLbjOw9GPN/j116n53+zruk2Ph8z1HrNAM1yemH1yyuNoCfBm9tkA88cVO9TlmA47Piq/wxsYsXxu9/RWOWMXUq6bWKmxzxfOt/jf6tAbXEx5y3qzGi1oxtmVorkCbf+tVZyVfQx54s5pof3NFuje6r+y+9MYqR2zsvCYZRyyy7JbLj9ilL+8QZbFyxY/sZ3jFguhR0HnT0c4yReE6q3vDPm3qlwMxCTxIB1eguVHwCc0lm+c+c6rOB92Gfly/MysX2aa7V+wErIQNQ+C58er85rRePZOrNddn87LnMKNxnwv9+LnQWqnYqXHM/tGYNX9kVhqn7WcLW7sG+4Cyc9eZOC/D9YkeBxbPHauec/ZIKt9Z92KF3QcwYQ/lwepsq+7r+oD8bPkscjdv33bA3DHL20ZwXr3IuGeteD5lb798YR++f8Cmf6k+xXGd1f3lP+y/9csiwBXo+y8ZT2bZxYM/sT+jwkDgCvR99vLXL+zLxQPeDO+FEWz1PTVZd5/rnZ+S5+OT8xa4i1nv3l7O3WNlj4R3zi7h1gcvfBYhPxKDS8uztuy9PG3MZo8f7kEA8CGOaKjEod5209s7jkEyB66b1mpjcCNvApRfk/LqG4rUtm4Wbs9RBoEK5mzxKC0AzC8tG+dTYX3sRthACRPAb1pTtujG2tKpjsaooLdl6uTD+MgtK2XOfAbO5TTb7Tfn06wPONdbYIKu4yw8Ztl9yeOb+bBKFmB/7FWyy9FHW5CtPj8j9Ul1XMzWqypKlhs0w5qxu47zKaELA2EYv2lvvXYz6lGGqJhl2lj1M9IXMPbknvxYxwKevmVfvlzUN3j9xtTJhxYi6VTX1Ennr/UxB8ZT0e94YnkWdadbGNUfj5AZK6/2V/blg7rh7r9MnXxAaSXJH9j39TEHfWQiA72OMkzO2LVlM6rAOGAfp8tDet7SSpL1Xzo0RyaaZF3hnZxdmzNNWc9RDQ04t1UNkvVqQm0U7kGyH1UH+s6goIhVKETeJhnOMe7FmbRRmbCza2MDVy8y/vWZerKjBvsouC2qJKxKWBwRL3bgzs361F59lmLKybOeMN+csyeZgoc+ZysmAMiffp1fgr5813DmKnEwAR8iAqyWNynJzIuV2EcydJ8Mws0nPuz1xT1wdrJ3O2AFY1YffvqO/bU+yPr0rVzxxPgLPAQrVoORpPOb7z/wZPktq5/twH865K+1hfPLD3+1Vmc/qIzV4j77c/NQ8i8/sL+iSbLN/daFkfCx44nMdlnepzKIOADO1b/KucKTnreIyRmaJFu0J8bZjzTArcCht/2zsX5VDwD4Kqa+yYPTGiRTUUGSI5f0GzMtnWVD7KX7KtFBBvV+qz8Q8wgsfDWgNl5OtQJevbfnf246kbnac80ysArMdpRKPGwbwG/otFa06hXMdrxTA7d7ZWwQeFCunxDGbbW95TY5e63biD5Spg8dW9zdN5+1d7JEEQFWJZmLRzkHmIEZs0+wG3SbJXXwLnCTYih6V6neCm7GST2hBSvcJbeLFb6YhY47jZLjMYTfwLMK+lhA/W+NWjW1k8gP/zQru5etpPMBu3irU1727wwZr3XkoFqBNquzmt82TC5GgxvUrCMX6phG60K9im0l9QnoY0J8BG7uRomid6SgTQav1pkjRnlIz1t0rBZU8QNJkrefmbzyHmuu7+RPeDXNwdWcEcseODNj7nx/zB6i/g0MIPNZsbhVAXBmjV+Hn90DR0lGzXbGQTtIrmfQNsk1sOrnC+KJhxM9weTXoc/h5ehzzO0AMCh6i2rB8BwR2HOmiYSeEGSbmCjU5M/VlmHxPjFC20CDEfrEK2sPdBzNsupuBmbXVr6u7zZhxSwwLg+1QvXgb3olFn8OL+fDv+snNcCnHJgE8f7fv8WvA7/9f5v+D7f95tu/14mr6zm8XKqf/1Un4eCpE998y/5eZ7yu5/DCZ/z2XeC9XaTnLZOHj3lmKZg5nsMrhlJ1r1h7bM6e8G4vXjgHVzPDPGdZV8ZLERLgc29nor+31Q/Pb6INwKVTsFr9GM/eI8BXu0wxK9/yHKAojm2KgTAOcsVeZFtFAf2Ru/+5tOi8RPdjEzP5wrcqgayp55iz85F5jwLmmkjoCcEVwzdjUu4tMEee4m9mKoNJ7N+w1t/BEEdlvOdkhusTb8xKBa5WZ5mFdC/SwMfAQcQxmXZsNEVv1oEV7hwrp924Y5Yelwc7hviA/a3OSn/6X/VYMchv7Mf/lekue/o3NFn85T/+W9P6rppW6MT1F/bDP7El4w/sn/WxDDsJ/4Z9W2e8v/zwT/R4hVmt/jv7tqeo1XFSYGPNoo8m1buA1fuhuyfZ/SogBrjyFnADJX68Ys1e1QMlGs95w7PBHRk8GqJ+06L5uCT4aAmB+Lz/o0/cBD62xnpER/tRLdx4dBu6fiYG85tdj+rgBXlEiFPv4Nq2rkvgfhwIToHHCCFA/WD1iM/Dq4ePQHE8xicJ8LuWMLbPiNKSFdqrZR/w2pyytjH221UP1B3i54Xs1fR/s854/UDfx3xxPIBuoVxap7PdrGprUwdj9Ilt0+jvVvU2+8TIGu4DPXG0X9sUH6+qeiPq1NeGB52ewD7G7Bx+jsfCyu4z6FU9nsv6gw3Wo7vg48naf5jC/LleXlp/XKL72uQCH4Fm1QkeT4Y+Dg0+vsyWxzyezP7DFKXQcSuyD614l9le4bhs/bQv5oDPbZkcMRAQn/B2Pa+tLt2B0XaudkGCbioBsqrS7Eurox0l3wAg6NbLbLHoCKwenWYIVGEYOVDf6NEf/Wgnjc0S3/8Z7bSmu87FblEHCEw3PnmH1qcuzYphsHKVvMJyfPLifdmp0+wyZsCpW9E+pYPupNZZsrfXNw6I4k543SVs4hIDHJitIuKqimkRMbZUwtsrZoXE5gzjiErsRLGSV6Rgf0mt+bxevLj+ull6sZ6f2yod9bmeF1yX5jOGS6Ftw9WHvhhQJN6l5y1On6yK286zJrwxCSDunB0OmULvBMs1UOYPqhKkPtXpAYEV0+mw4/K+Jrw1DqfG6nIPHplttAkio5JPOblbN0gAyTBItemR8NbgAausbtE+7TA07Pt5J7kFaPqY7v+OhLdmb/pEFGe/uG2voyt705RT20FAXG4yfMIb3oeuRCKX3cPkThb7jzhUJeSPR1h/0heU1qpvxoLVGVQflqTjK9Cl0LbhslNXwltk/LDB7DbINbB8wnPhkfgP/yJBEARBEEQxfv/99/oVgfHVV1/Vr4gSFHxKA0EQBEEQBEGMDyW8BEEQBEEQxEFDCS9BEARBEARx0FDCSxAEQRAEQRw0lPASBEEQBEEQBw0lvARBEARBEMRBQwkvQRAEQRAEcdDQc3gJgiAIgiCIg4ZWeAmCIAiCIIiDhhJegiAIgiAI4qChhJcgCIIgCII4aCjhvS2sT9nR0RE7Or5g2/qtfWV7cSxlPV3X7xB/CJSNNorXDLYX7Bi57vhi3y39FpDaJwRB9ILGwQ50zD9lQ2qnX8KLBNOwQWrNThvXlU3kkPoCFb0+bV4nyjHb77F4yy6Ogbx75nC4TksbfkMnEXW25S3d/6n+kd7GftT1nlzV/w6n0u30nN3U/y5KcryqwRLzvZ2AxveJHqAbJXf4wP0fL2j/3LYkvq/dDQY2TvJS0sYdfenXDxbrCsRlh3xo2ZdYkMU/0nOmvUY8pSGezW45Y+LpDo6y2K3qbzbZLGfI901ZuC5MJLm+zXI3Q75vldzCdrFayDpnS679blptHlJOjq6/Va/PbthutvS1LgGlO0dx1umzgQJ6TbbX1DZmAMocpRIgc0n5/HbnjlcVXXYQ4I9jENcnq90CtgkrGdu5WiC/7yhNu/D5x371R0+7GxCvXnnJG+78Y4FTP0PGOk9dVmnYntZpgXHCRX//6IoFGe1Vx9RhfSAp4YUBy+pLaBxYJzs/h0rOqADngOqrDzpj+3PT/tmu6DgNUW3xGaw2pNluptowoMMJ3I4u9doWB+o7s05hsmLpzlen20ac9t+XVP9IbmMetD4ilaHtxBuE+5EcrwTwO0P6e09i+qQrnsEBNLJ7e2DsvVlnJQ8iCJSz7OQpnF52NyQwfrTkAbEno5922hXQT6svO2Qdx1ZBP7vkGVCYXv4BdctLUbF1XRnzvQDiE16gFFQh2libwRMMvviF2rFyBizR0Wh1Xe3Qn7kGOHdALobSa2fQMToWOowZ9HKS5Og+u0pE6wDVm9smTYDAHbL7d1NI94/UNubB/H7szyu5c/p7i+R4JSgTk8oT0ye+WGZ+aygdaN+L8q3Sdh5JL7sbFq++tay5khO/TbnGLl/cdV1XjI5cIWkcLIbPPwb2H623YRPe6DO82/dv5Hm72ZI9m1dv2cyfMa44zg178x6caNm+Z2/khWyJX8ieyQvZzZv32c7CTM6u2SVW3eQheyyrYx8/x9Y2ZXfra0uAnqULOIu3vXjCzoWOed+8PpvINwuDncebVkJEMrnD7tUv87Fm72q1LZ6fsbZGJuzsOR/uBVfvwPmkLXsvjZWr8hm3zDbzZ0tuyZybNwyaeTLJ/pHaxj8GyfGKs714wSrVDuhP+8eE3cnvmB2s2as6fuD27GIYOdHYjByO7GN3vUk+F+tgelfGugGZogOsL9ZxtT4aNtatX9X3HyyeM2+IaPXLkGdiPf6xfiVzB7ZgKzRhKk37zHDYmWPsrHHHWe468Q3EPzMzK2O8gFmYdxYJZsQ8Sgww6+1qi2e2k33GqzCrLc7iXPVQ1xrdFZ3tWv3lKDH1lpjxefvJ1rcWt2PWLgH2wUuOla9k/0htYzaMLmJ/u/wKb3q86tOu8YmTvXPVzOsLmVH27IxzLgr3ly/eWZX2sbs+mHqdpbOPcd2VGEdM+7G45dp1cL0PGNRe22MuRLeRC6t12CoD+ZXHP8rH4ga6n3j/6zGsXbrkcetUFFyvkQlvl8Ehzgacq8tpLOevypDG6nAeK8AZeaCS0euSgfpDgoBnIMAMtkvn/TC6w+SBjh6EJ+CmouXAdIY4ma67K4m07EKWHEEi1T+S25gM6PugonQYMBhbJUcMSI9X5tohYlFfUvtEYV+vdAXtbpiB0PRJXH2gL/sbeBvHWKARfmbV28fu+iB/G9UdiAXY51aM0fJAu0BiYS9sPWiZYMxqKa9Lr4qQ7+ShM/ZyWnEbjS+8lBYU6hqty3xeXBRFaxy1/crkWbjdwTys3SbRHjxuJya8jR+zBlYuoP63ERZLyMzvybJYjWCsnY5sy2dKgUEQ0ZmF+hxzLsdnpRLeYEd31YskjSV0isvRDLQr/e9W0HXpUxT+mzn1m+ofyW1MxuUTrqLs2ZbJX3LYg5I1Pl4ZGxXvOWTP0O95SO0TiLt/Bmsm1g8ouKz9bRvH+L1PLkUPuyuIN15Z8oHiiPM5sGIqKHhfgn53GmU7RpbBX4/JMRzyan3nHvti/cO2V7RPctuAlQNg9m/025IbXBvr873/8ER1hrM+X8or5wn0JZuHnPmpzrOc6DNyXGx2OS97NlazvWBP6nNirjOaEpc8N+zTpn6ZiXV9OKlbHow1O630P2PL1zFn3lIx51vjztj5uGHn08LPp6yeozo1Z5W4zV2fzQPO/slzQtLMuZ43fKJ4OXecM8tEqn8ktzGUObuUE+W6bOqziLy2FXxfFR4Pqk8n7Oza/owH1goZN+zPdrtr/5m4BOLj1RU70fpscHXC+2gfnk2Z2icQ9xm/+HscUtiyixepMVBycz4t8CxUcG50hektjORxMiPeeOWS5+YTyzzcaVwy3aAD7IQ9VDfecN9rjxUiTtcxszDwfD96Rhsi4jd2Lnb+iEdoQf58AsPvH3IMrs3U5uacTYs8f16Mp5hfzZk6jt20BXg+Pvbeih4JbzsJuFaVbz5JgRy0nP9aJU4b9qnrwixwudWD7jsVJtqnBro6ydnUNypxrk54G7I96XzLPn+Ur+7dievA9al08NnydZEEoY3qoxm7O63eiGdyxq4bg7BKfoRTlkh6q5tNVL8vVmDQN7pHaSWeJhHbFDLWVP9IbuMfgsh4Zb1X+z+0WWWwIiHe2794EIp8iL8a6GSSvKoH45CBMgPgppnn3kDWnjzp/hADc05Z1+/qBGrBHvkSG5T0cTIZx01rnTcTi2vAuCgm2Bs1axI2zq/PbeYizimZ5CTATNRck8nJ2Wv9ncourTYOk+yKPo26sfLeHcd3Si3wRfrH9jODw0NrkqzzHp4QP8kdB+4xV8qDT4bADeWPH/p134Q3KAKzzKwLttStlurBZ1zf9nXoMr69tJ4fIH/nEj3YEkC+B9uC7VTEY+Ry/h6iU/Q9gJYzj5ASvZ3g7iPvkQYHZgsozxaftaVUl7ZIpq/1Z8jWHg/I9YcGpV/ss1hS/SO5jdlI/+2c+sNJj1fGzjtsUdvJMFvS4cT1ibG9djugfZXrJxBv+xgo2OrMZudJfdzD7noB9NhVmsrp3CKGbcln58aukDgH46+jI7G4J+Vrx8jcmLq79aG/5zRG01/lfAvg9I8AnQWM+1EExFetP8s/+ukscoXXnpFwpYHVJ8PWLFfqz6xsvVp9QrYs9UzDnfWnI2baaga4YCtEbo1ebeAzcuSYwPzSrH5cvRtvdUcdg6hmbdZMVxa1YiNny/K9okcGejJ5+LieSX5kOXZRJ3CPtl61aO8sISvW1taeOhbQMtbkVXmMVP9IbuMfgvR4ZeiwRW0neex1FLYXrD5JwPXT3lq0VtQyPi7SAsZb7/5wB70eNZmTHHYXj34sJaeqU63Q1YUnEPLDBvrRWuiO55xd8hmR5IrlGe7MCim6Mzm/1Dt+rseLiceNNttX7WipGDl7zB7mUGoLKHva0RuMHGOIF69/dByt0I8NHeb4hUUm/xBEJrzgDA13Djw2gSVnMLqaZMYd1MzZjLs8ZOREbNmBZBc9w2bQgcjpNOZ8CbecDIOACZCuQK2T27HxGr7p/3QyTXj0GSne666tJ71lCeoEgcEZ1MBzc3Mkkcn+kdrGPwTp8WrUAD8kelvdtWUPdFjkLKc5uxv0LNNAsiUQelITk+z1sLtkQNzlE+bwR6maibtzixjEmCwTCT1xn7HHjqxUP083cjKpYmTSdncA+uwu14j/6I2HzGNIDLZ/+POP4XH5h7nXIGkCzmdGcfi2jfR2RHPp27dtZbZO8i7vw22esC2ZkC0LvQ2ItiUe/XvI9paRB//cRW4ZJd39qOtMqLdLB6l0/6a7LT4byC9run+ktjEP5vdjf17JXXQ7LzleAb06GoZvue0DEX3S0X5F0XYG1B9Mzt/SAP+JaX8Pu0vDyIn7EziaYAkUEh/MtV57CsGnG4HWT9iYXZFyTRRxOYr2G0cj848hHjpszuvjuXXrO9LQ5R/6s3h7jE94ObqjmhUCQVCDAJ/bRgCcMWvn9w9WWIeYZChTABA4dGecYiZlimiHb8BOBW8/CLhc1rh6QT9lHaw4sC8t3cE6MacDNtn43Nh/ZllT/SO5jTkwdcSamdJj0YSXkyNeNT8vEgOyEdMn0M67B5cS/ZQrRsH+yC4n9EvMj8TniPzJdpeIqc+WEeqmKg1Zrc9b7SgRQ+BvIjYK4xmi1zbQhgv6o+63MD1ovSIx22kbhfD6R5fOS9irrq875uD9b9tPWybxOT42JyW8TQNrlY6kDHZ0u+RNIFqO3lGaSgu5NmewEjh1I/SpDKRDt03072X3KNvgrCLqUgbb4Tiukl1Ujq8vnXV65M3d/4JU/0huY2+MLcTWodpaQo826fHKp9fysqcQ2ScBfpk/hnDAIBv2855+FKWQoXvHA7TedLtLAiYtSFksHHG5K57rknds9slaFVQ/XTrNLKMF0FGgjQ2fQ/T0D18cyOlbyf2v8LU1a8IrwTo0SCdYY3MqsybE4FTBDc8VCEqtlrVl1nIpne1FwitpJme6moSEt5CIAMRBgnSJ2UC5/q9I9o/UNvYhMrkCDJfwSrLGq9I20Iu0PsEnW6WSCOBXwTbaMciVDyAcR/2eupPtLglERlWZKy4rXElIQd26xmh3lVgflPdFI2ekP7jGvCJxOYd/YL9RKga45A2vD7cf9/VH4j/8SwRBEARBEARxkPT+S2sEQRAEQRAEsc9QwksQBEEQBEEcNJTwEgRBEARBEAcNJbwEQRAEQRDEQUMJL0EQBEEQBHHQUMJLEARBEARBHDSU8BIEQRAEQRAHDSW8BEEQBEEQxEFDCS9BEARBEARx0FDCSxAEQRAEQRw0lPASBEEQBEEQB80eJbxbdnF8xI6Ojtjpun6LIP4wkP0T+0gBu9xesGP+e0dHpyzLT65PK/maZRA/UnUfX3BNEblYn8o+PL4grRL5yJLwbi+OrUBzSIaqHM8ux6xc88wAM0x9mdCDmCzhg82anYLritkNNiiGCNloV1X2fnCzdSpLpuSiAeYf+5mw9/cr09b99EcsDjfLYSUQdZ+eXNX/3meATxaNH5idh9WJj3Vl4kYajrY5Su44FJfnYDHYVfLFk/4xANPxEDaQ4h+Ijj3X9kp4lXKn5zf1OwdEnejgsfSGnU+5cnN7VJWUTVlbnbK+/R2suJM8OedSxrM+PWFlh6uOQfHqhOvb7czVADBF2nVzzqZ7mfSoAFBap5wO/7g6KeAbfejpVyrO3Yq86g/E9uKJ7tPFasd2O7tczuVn46ISiAF8svJ/zM45VcxyJYFSRty+r9gJv+6wJkqxyLiK5Tk359NbsAASiDNOlrSBNP+QMRm5ptPOOTwwJLFasJ24vCqz5W5Tv5/OZrecyd/jwWtkjCw8lO6a4pi2z3bL/g2XbJa7mdJnQwGb5ayubx9000bLN5vpNgTJuVrU7eLX1fqeZVOoxNlXum5eEGGdOof9lMXuFT3tH8qV+hvBrHYLVVdDBzAulJUhEKdfQR93+LGlUx4HgL1mNtMsaJvNqvgCcVnrtR1bY9C2NqahKZtAYgGMIUJGLW/WuAERfonZJvBXVOeyj9tqDPCRQihdRY8H2rZyyQt1YOsO9m/SuKXjST8/gCTHABjrLPssZwPJ/uEcu312LmfC8RQJ/AUCaypepzGKzSWrr7P3IrhjWLqK0Qv8run73AmvtCvc+I3D4Z+vFo7+3zv7B0FpKPsQ/Y7WNYIsPnh/4XZlbLD9OQieqh1F+j0fyYNdJ33s0oGOGX0G+gJypaBsohm3ta0Y+convB2k2i5IhIbUc2rCW2ac5LHANy5H96mx35xjXmoM6G5HgZie7B8+Wbpi+m5HT2kgCIIgCIIgDpqEhHfLLl7IkxOz5Wt2NqleRoIcNnadPcoBduORKMnnDKfsLp/25mPN3tWHURbPzxim0vkjPm8RXL3j33aQemNWMtwW6rO7sbagz+4uVoXP2k3Y2fUlw6qYPHzMZDd+ZJ+R40nzy2u8TfNHTPbGDfu0qV4UoXUTiasv169q31mw1VAHFydn7Bqta8IePq6d4+Nnz9k2LA4UOBs9v2TXeEcy5VY3rY6cs2fLmVhEYLv9OAw6AAPHZU273qJhKxH0hiDXwe75M7accX/cl7PE07t1rItkcofdq1+WQZ3htEvSeXk+zsvUZMaWz3Iqfc4urz3j8s0nFjUUgJj9PC2Jyogv/+Bj6POA/COGVP/YvmdvKr25+ljGbcHNm/et8Sc+4dUVpnWU87BxIZw3HglcNy1NHjI5Zt+w81dI9wJjfTRUMNMBC0vO6qCB30HE21joBiulh9mSvY6xBR2YBkzQbhUyAWh1p+hL5AaJdR2tZstnaGK/j8hkHosD4kay/bghcHJ2vSc3PpVn6LisqSbp7XrFjY/7c6OU9Me4m7PdE+1R2HySY+DsMXsYM2xvP/MRR1BgrHPeJJXG9v0b2cbF88SFuOHYq5i9flf7n6uPuf3rweiKvcuS8ab5h+5jlx3z3OKJMqibN+x9I4TEJ7zace6yafVGBNzAVdCYLTfWHbW73YZn/NVH+VmsGnXxslnWCeQVO2ktJ/DOeF1/3kgYq4G67vzFasCApmfa7VVFc7cyn/VsYDtX3IQFPIl4kvtOUuUEvM7X+OwXx6wKD6o/DGXLXLN3kgaBGbsb7QR+rk5kAmD5yEqtJJwzew62ZZ+lMOxeVCPKsfkktcoFQu1C+JCOny3fLBgHWhjdzUp05G1hrLgsYq+KISBuGVN/BRYjmqvAJlGqngpifSZKrkcpicUElZDLFSlLP0rYfUYklimxWuyM1otF2WO1+G0VBJDxOV6ta/aqNojFYKtQvBkmgITnQ2Al+nHU7KMMnW1wTEjHomtsqSbtrsVNBTeuKKxD0eBAOyz4uWbfIe3hb0LQbXEekgY3rlgl900rIYfCjSzWV6ybxur3LBzX9UQdMLf70l8XfqjeZxslCNE5jmq7225SAPLwgomE16t0LvtffweWrHJ68N3kAj4frq8dxN7Ik3rjz0Bo30KKW9c+3zOfR7qJG2vcwG5cM3HEyGTeCyt9bogD6D53/J76PMDHysQNBHBDkCkB+kDH8zK2rnXhMCr1eWiM8I/lJcDs1I+v7X1IiQG+MVleu/LEif6E+AduF3ZsWKzMv5sqTr9pTax8OrJp9DmcPY9ClGByx3c6yXVWN/fZTXDukeu1vZUnVjfwWZZ/G8ecU/yIHVRNgc/65IJB/FEGud0w/lEGa1U85ryXajvHdd66L9yZ0a307vNi8pmySjaLwZ4bbFbvhW1gajVbUpG2kx2wTXcLtkD7Uj0vFLOBUeOyWNnFVg6xs9VzdmmtApqVZz6ogfdVybMieRuPC+HIZ6nGn40Oe1Z1HOrMaGTsdQJWdwvFZAzzDPkI3wGru3nPGftxxoAmYvVd76DIXY3rsznzpktjAFeg+ZjC02A+drrvsYpOePWSsqCuAAYanoFLeOJmOVefoxB9qTqwueXFC5odKESSqTpdBGbePn0MwpHU92By9loHcGmYUFb3loLuj+roBbzGFNXM9o05KRzAUQbuJGYLN+JmO2FHOkkqd7Od82gCduOJPl4haQ3+2mZLHGuxWZ8Cf0FtY8vey+yKzR4/HGxgatPYpj6Qg7rizLHV96rooIzYwJhxueMo0TTvXcGJ7N9xoSDmlw0bMJMDMW45hy1xI6p1HTxeMs2X9OqYFXmUzMH24oVOeIbKIcX2uRkKwsez9at6QaDQJDspBgCsYwHVURPVNuML+wI8XioWiXb6xsINg2kqJDrh1YFIKAO5c3F+aZzkCpxu1udEBqbzpjUnYECskvr6bv06IDiT+l6IQ9w7tlGRyULMstR53DLnRkNRs9rYpzLoFdWCiWIQYkYInAS/ex9BJLswEIzaCHDjoj7bLSdlLbGEzaqkFznEnwtzLlfI4Xi6xV4gfBuuXow8+RoCkQCZzMU6Az5WXA7G+6SPkrgHztuFHFv0uPwifOIrxnM1Jtlnqnug753IgVndHWoSLZJCtWAiFhiChwK9usuvG/CccUVHDNDwfAa2yzXG7cPkT0zAzHgjVqAxmdq5UvqRho5ApJPiUYMVB2w/VzMA56yngX4KA75SNb9Uyaed1OcAn6HxQVnNil13J1azseZ1jdI7STOPL2mvQotiVqLNjSRiC8Ws7OEr0eYGFPi7GRfQJSDZFfpKSnbFBGjUZFeArYx0HLPpuOExB/AmtMXqtiS7IlD+AZJdhX6U3i3DceMjEU/qI7R8j28cE726y617iCM5MNl1HT1zoVd3B1yJtnDEAOtoZ71r326XmvyNu+Bm7fxUOQ8y3nTsIEQnvFo5sU7ju06fJcuHOn8lOjHmvKC5a9H1CBdzxmyopF6dfWzOYvdmcrHvNI4jhCf/a3YKk13H8xiHwJx/hdvP5rxStjPaEdhbe77Vjok+B4Y9I7E01pGLvV6FHo4x4rIfcPRl1Kdn+H1LjzG3ieTjK3mOIPBBy5NAm4WVbsDq7hBnrK2jcBG7gwK4ujvgOeMgQCLslE0/uiyTDSRiJl88hjtmDfg4WbOLxn0HnMRx12/n3dvNu+zqt3uy6rwbEtyF2Lgr0Nzp6L6ztfu3M9N1p7DvrvhB8dmGC9+d4j2Bdx9HCQbssvjdv7674Y0sTR1pe3XJ6LvTPBHjJxH9De4gH9Jetb/2uetcy76fT2nowhnTRojLpk6HPQbp2ecvedB2g/gWtP+Q+ND1W+UB412kwvLL7Y5llpzo54aQcTobIG6ljFHj9r2kS1/d8qXbTgxhOvLJ0mVbcqs7Gi1YKyBBY20q1fGZDn6z3az+PJdOTQc35ATGW5WmgmGChBgHDHQlgy3sPHddAQGiau8AQQHIG6cX04aUYNIJ6Mu43wa6L9vJNV06gHaA9CO016asPQO1C6dvefHZq/g8b0Jp4lVPHwhKxPYNW99tU4afDxOX4W+39Ahjc2eFRu6i7unwHzM4c/1U//cnMmEDegk88cMJtI1SPgl/18g543qt/u+s1MiWM66hABtIs7XUcTEXvhjAgWOIZZ+O+FCAYP9wxghg547fSEp4mwpsF4dzQKU2ipBbNTifUUBHb5fZYuEMVjCpdZW8jtYlqy/YdLdTlrLGKkl17FLBy2ensNg6NgHZX/LYa4isHXYAgwBW8jlVpx+3Chp4fPbqs/cIfHqBpaGjYBvwBeiB8MnrNIGh43KI/Xh1avwlp2ljOPUqZFRtackbEpNlyRXz/GOWw68CfCS/jt36EfpQbXHqRsucMVaghPeja4w1/VJ+DE6OARyf/eS1gX7+0d1Ot00k3rTW8UQB10FiQfWUA3PDl0Q+563MfUDi2Y3IXwqqD2ZfP7tbv9FG3jzm+itD6tl0pQ+zyHqc+tTIZ1Si/SGo+uQPdIPOrcS+k7oJd/puO6geRdT0LYG8i3Xcp0o06bJXOl+bG2k7HTF26LiM1qeo7XXEs/JN4JMKFJVO90jGbmqdeseRNjzJ6badZLCxWcrpH1dv0TO0t+ZP3Y75LGdvDODInAfxS+eNbOMhfJJn6NxiGnTln5wjkfXWrwmCIAiCIAji4Eh/LBlBEARBEARB3AIo4SUIgiAIgiAOGkp4CYIgCIIgiIOGEl6CIAiCIAjioKGElyAIgiAIgjhoKOElCIIgCIIgDhpKeAmCIAiCIIiDhhJegiAIgiAI4qChhJcgCIIgCII4aCjhJQiCIAiCIA4aSngJgiAIgiCIg4YSXoIgCIIgCOKg6Zfwrk/Z0dGRVY4vtvWHbrYXx63rRDld11/Izpqdtuo75e8eBuvTZtvapZxuU9iyi+OmjMcswHR6gNUZZgNt/ZaWFbHX4wveAh/pbUxme8GOrfp4CTK21Db2IDFejSJrH5L7pAa7vmh7gX476nGNG2jJHvD2fQzB5HMVV/waIy4TxIDsktjsljO2E5fjZbFb1d+0We0W6PdBmS35r+djs5zh9dRlgQt6q1gt8LbBsjftXC1Q+VSZLXP2fk1qnZvlboZ8X5cCSk221xH02m13s51brUP7ZGq8un3xI7VPKrrsPXNcliD90lGPry+skrFjbocNBIytuiB2MEZcJoiBSUp4YVC1nB06DRIFzHVth4NBJVsAAfLYDguDg3uwuy0ove59UIIDaqOTi/S/ANZpDaZwsMUSAbeNOO2/L07/8dhrchvTgf1l2Z1TlprUNvYgNV6NIWsfkvtEANua2VYwrCSS61b3UUfC68fYe7ZYCPRy68cQ3ZaGvGPEZYIYgfiEFzgH6gDaqZpB0wQI3HEKBCuOcFi0Pl87bhG3JeH1DWr684wd0l0nSAgbdZpAjw9meQZoiFsWifGfZj+ntjEdtywVTt9Kb2MyyfFqBFl7kdongoHbApJIJUsWf3IldD05jDHE2HOzj32615/vfyMJopPohFcnAs7A5HIsE1RdfqMca5gBxB0AWoDAZkrZWT2cWeviUNywerPRwRAUXEx///Mfq38jl25T6wywDW0TmVbDAn4P970R9Brwe+ggmdzGdJLj1Qiy9iK1TzjDt0Po3JZTy5YsQ0Q8z0ZEnbp/QBnSbpz2MUZcJohxiEx4/Q6ug6coDYfuDGq5EwgvIcHKfAcvBQKA1oOjIFFJ6XW4QM/xydnq44DAmtsGvIHayGTJ5ZXDtoscevcmHZa+gVypbeyBK3HSWIO7kSu5jcmkx6vhZe1Hap9AHeWwjVR6J7y6PwrEZCchY4jtf62S2t5I3GPECHGZIEYi8ikNG/bpRr66d2ciX2jkHZ7T8/oLCPPLFePOxdjNOZsemScHVHffTs+ZuHK2fM3Omj9dhK62CER7pkw1hwcKMTkApW5LTsTd0bUeeI2MBxe7Th619gOumye1nLMl4zGwLSPv4yext/dO7rB71Ysb9mlTvejF9vNH+WJ2l03lK0N1x/4Ju6r/abH5VPfBPdY2c3EHu7GLXGyMMbJ2lcY/miS3MZktM1W2apRPtDjBa0xtYzrp8Wp4WfuQ3idGRzOGXHprWL+q+2PxiM2rd4bAN4aIJycY/+MJpR3PN0uu9QHgMetFJcSMPX6Iyekhc1wmiNHgjheBmg02ZnrN1YPOVSf3qumQKwxmZcexIgDaNJRcepUjcpXCXNcuJWT3rn6h/Q/63SlUwGpDBFpO68ds+5stV+1VGiV/o32Wnvlv6n9nEFb9lr0C01ydbesnuY3JmN+2q2yseK7aq0KpbUxH/VZ8vBpe1j6k94n5jmi7bTe6DNA47UspK54jrUD6xhDz+bByNemOU6DPnf28L3ZOEP3o/Ycn4OoBHxx4An3J5tO7HTPXCbsjp4stPn4e6IF/fMb7pF7ZmS2foSsC63f1vHyxYpeDLBmsmamS61C+7M3ViXiWYs7nRW7Z+zdSd4vnZ63Vr4r5o3r1+yMzXTphDx/XVnF1gjz/1F4NKYK1OrtgPHaz67O50x4N8hmX0szrlXduFNO7bivvDVydrVfRL+dT5q0yuY3pWCue3F92u2t2NlerQh2ktrEH8fGqZgRZ+xDfJ1fsxLVzwf11n59bblZ3nw+0O8jxjiEmTg63a4kAVneXz7BRZQ/iMkEMRI+Et50EXCuv1lvCTeQ2otpd47NFHojN0YCb8+kAD3TncquBgA9cr9FIBJLPR4Nku7zKd3VQWbDYKueXYJsMlA2fukv4YJbtQexmG08m01hRAdLeApucvWZKpKqv0WvK0E4A1KTCbAejtBIdnjhoM8etvC+tpOxaTSyM7jGS25iMfSyg8mc1O9x+5tMdN6ltTCclXkmGl7UPkX1itb3rGFXOGJIRb0JXgoAxZPueyXw38RhBJkImA2PGZYIYFB7UIrC39KqCbUF5t4TbW0Bm+yfHtqsLIH/n1tkIWzjoMYD+5N9WQ2ygo2D6g31timi3+u08smL1tOVBtoOtLW9ZMJvEt73TML6hCqaDtn6S25gMtu2N2Ky1VS5JbWM6iK0GxqvhZe1Dep+g7zUpFJsgWt+dcblN6nXpAJvqqnOkYxYWWoYwvx8qLhPEWESu8NpbeNyJwGqHQd9IA2/40DNxcV17y96aZb55X2CVF27NLNgKkfsQmTx8zECXZaXqf7gahBTsOMjk7Br5LrcJtQI1e8xyLIpM4D6+3oau/61Rq3Tgph1ri1sdC2hZuV41xW9YicM6HqG2oFtVqhU6czNdchuTsY8kVSueeiUZoFYOwc10qW1MJz1eDS9rH9L7xACPHzXQ/tDxnTGAY4rreFVWbtcYold3eVwIWfweKi4TxGhwo45CzwKds1uz2mCtfAWsEpgZZu6VBLgCEvLb4Pv9l8TCiJyNB5N9pcHRvxlQ/Z/vd81qjFOnqF0GtDG3XgN+D/e91Db2IOD39MobFCq5jekkx6sRZO1Fap+E2E/2GNImZaV22NXd2DHE6DV3nAxC91n/8SR/XCaIcYhOeL2OpANvIzi63geUGUBiA5VEy1IwyNsAOTO2v8SgYHSTKYES5E7KarrbD3TeMGZfG/Pr1S2LxD2AprYxHc9g7owR6W1MJjVejSFrL1L7RKigq53i0hJx2SbanzImdH6ALUTEJ92mzDEthGzxqVBcJogxiE94OcaRG8FGOwcWdE1ARpPIzmtTAYEq2vGhvFhQFZ9nDgJAB2iAEZ8HR3ePvvsABhvXb1c2EiSrT889gbJaNuAbxKBc9ufG/jPrFfa/7VhGFsyOk9uYjpkQNPwVyoJ1Zmobe5AWrzgjyNqHHH3S1AP8TezSXMQmaEMk4ZIeY4gvTorPi8hv7DO9z2D8K9v3BDEUSQlv0xlaxeXEcABxlYyeBYO1r6ADnhWwsJI54eV4ZW7pByY1WMmclCmS+rLLbgrJyfHp1GlynjaiNtMTmJy1i1tHyW1Mxmd3bt9IbWM6ifGKM7ysfUjvE5/95LV1T3+Agtdrri/hg5DeY4gvThZIeI3MoePTOHGZIIYmMeGVYMEgZGDFB5H8jtU7WNXg8uZPdg2OAIQq1z3I5U9ymsTWjbWrpB4hSN1Bgw3WxsIyYxOtoM5MbWMPkAE9KAlJbmM6qfFqDFl7kbNPith6V4JlF0xuE4/Lx448Y4gjTpbwTdCHQX1eMWZcJojhOBL/4QZOEARBEARBEAdJ77+0RhAEQRAEQRD7DCW8BEEQBEEQxEFDCS9BEARBEARx0FDCSxAEQRAEQRw0lPASBEEQBEEQBw0lvARBEARBEMRBQwkvQRAEQRAEcdBQwksQBEEQBEEcNJTwEgRBEARBEAcNJbwEQRAEQRDEQUMJL0EQBEEQBHHQUMJLEARBEARBHDSU8BIEQRAEQRAHDSW8BEEQBEEQxEFDCS9BEARBEARx0FDCSxAEQRAEQRw0lPASBEEQBEEQBw0lvARBEARBEMRBQwkvQRAEQRAEcdBQwksQBEEQBEEcMIz9f8zWstTS1wOnAAAAAElFTkSuQmCC;fontSize=14;" vertex="1" parent="1">
          <mxGeometry x="449" y="877" width="290.78" height="54" as="geometry" />
        </mxCell>
        <mxCell id="K9o9ax7KUyAUVBjDeXE--156" style="edgeStyle=orthogonalEdgeStyle;rounded=0;orthogonalLoop=1;jettySize=auto;html=1;exitX=0;exitY=0;exitDx=35.49999999999999;exitDy=0;exitPerimeter=0;entryX=0.5;entryY=1;entryDx=0;entryDy=0;fontSize=14;" edge="1" parent="1" source="K9o9ax7KUyAUVBjDeXE--151" target="K9o9ax7KUyAUVBjDeXE--154">
          <mxGeometry relative="1" as="geometry" />
        </mxCell>
        <mxCell id="K9o9ax7KUyAUVBjDeXE--199" style="edgeStyle=orthogonalEdgeStyle;rounded=0;orthogonalLoop=1;jettySize=auto;html=1;entryX=1;entryY=0.5;entryDx=0;entryDy=0;" edge="1" parent="1" source="K9o9ax7KUyAUVBjDeXE--151" target="K9o9ax7KUyAUVBjDeXE--198">
          <mxGeometry relative="1" as="geometry">
            <Array as="points">
              <mxPoint x="824" y="1040" />
              <mxPoint x="824" y="568" />
            </Array>
          </mxGeometry>
        </mxCell>
        <mxCell id="K9o9ax7KUyAUVBjDeXE--151" value="少数带标签&lt;div&gt;训练流量报文&lt;/div&gt;" style="shape=note;whiteSpace=wrap;html=1;backgroundOutline=1;darkOpacity=0.05;fontSize=14;fillColor=#ffe6cc;strokeColor=#d79b00;" vertex="1" parent="1">
          <mxGeometry x="564.5" y="988.14" width="101" height="104" as="geometry" />
        </mxCell>
        <mxCell id="K9o9ax7KUyAUVBjDeXE--154" value="16进制字节码" style="text;html=1;align=center;verticalAlign=middle;whiteSpace=wrap;rounded=0;fontSize=14;" vertex="1" parent="1">
          <mxGeometry x="560" y="925" width="94" height="30" as="geometry" />
        </mxCell>
        <mxCell id="K9o9ax7KUyAUVBjDeXE--155" style="edgeStyle=orthogonalEdgeStyle;rounded=0;orthogonalLoop=1;jettySize=auto;html=1;entryX=0.657;entryY=1.271;entryDx=0;entryDy=0;entryPerimeter=0;fontSize=14;" edge="1" parent="1" source="K9o9ax7KUyAUVBjDeXE--59" target="K9o9ax7KUyAUVBjDeXE--65">
          <mxGeometry relative="1" as="geometry">
            <Array as="points">
              <mxPoint x="230" y="961" />
              <mxPoint x="230" y="961" />
            </Array>
          </mxGeometry>
        </mxCell>
        <mxCell id="K9o9ax7KUyAUVBjDeXE--159" value="" style="group" vertex="1" connectable="0" parent="1">
          <mxGeometry x="31" y="710.15" width="389" height="122.85" as="geometry" />
        </mxCell>
        <mxCell id="K9o9ax7KUyAUVBjDeXE--86" value="" style="rounded=0;whiteSpace=wrap;html=1;fillColor=#d5e8d4;strokeColor=#82b366;fontSize=14;" vertex="1" parent="K9o9ax7KUyAUVBjDeXE--159">
          <mxGeometry y="19.43344273055474" width="389" height="103.41655726944525" as="geometry" />
        </mxCell>
        <mxCell id="K9o9ax7KUyAUVBjDeXE--149" style="edgeStyle=orthogonalEdgeStyle;rounded=0;orthogonalLoop=1;jettySize=auto;html=1;fontSize=14;" edge="1" parent="K9o9ax7KUyAUVBjDeXE--159" source="K9o9ax7KUyAUVBjDeXE--64">
          <mxGeometry relative="1" as="geometry">
            <mxPoint x="191.49448123620311" y="119.73972760091912" as="targetPoint" />
          </mxGeometry>
        </mxCell>
        <mxCell id="K9o9ax7KUyAUVBjDeXE--67" value="Token Embedding" style="text;html=1;align=center;verticalAlign=middle;whiteSpace=wrap;rounded=0;fontSize=14;" vertex="1" parent="K9o9ax7KUyAUVBjDeXE--159">
          <mxGeometry x="10.304635761589404" y="30.319396127338454" width="51.52317880794702" height="32.65786019035113" as="geometry" />
        </mxCell>
        <mxCell id="K9o9ax7KUyAUVBjDeXE--68" value="Position Embedding" style="text;html=1;align=center;verticalAlign=middle;whiteSpace=wrap;rounded=0;fontSize=14;" vertex="1" parent="K9o9ax7KUyAUVBjDeXE--159">
          <mxGeometry x="10.304635761589404" y="71.68601903511656" width="51.52317880794702" height="32.65786019035113" as="geometry" />
        </mxCell>
        <mxCell id="K9o9ax7KUyAUVBjDeXE--92" style="edgeStyle=orthogonalEdgeStyle;rounded=0;orthogonalLoop=1;jettySize=auto;html=1;fontSize=14;" edge="1" parent="K9o9ax7KUyAUVBjDeXE--159" source="K9o9ax7KUyAUVBjDeXE--70">
          <mxGeometry relative="1" as="geometry">
            <mxPoint x="98.75275938189856" y="0.40318345914021075" as="targetPoint" />
          </mxGeometry>
        </mxCell>
        <mxCell id="K9o9ax7KUyAUVBjDeXE--70" value="[CLS]" style="rounded=1;whiteSpace=wrap;html=1;fillColor=#fff2cc;strokeColor=#d6b656;fontSize=14;" vertex="1" parent="K9o9ax7KUyAUVBjDeXE--159">
          <mxGeometry x="73.84988962472407" y="32.4965868066952" width="49.80573951434879" height="22.86050213324579" as="geometry" />
        </mxCell>
        <mxCell id="K9o9ax7KUyAUVBjDeXE--93" style="edgeStyle=orthogonalEdgeStyle;rounded=0;orthogonalLoop=1;jettySize=auto;html=1;exitX=0.5;exitY=0;exitDx=0;exitDy=0;fontSize=14;" edge="1" parent="K9o9ax7KUyAUVBjDeXE--159" source="K9o9ax7KUyAUVBjDeXE--71">
          <mxGeometry relative="1" as="geometry">
            <mxPoint x="160.3261385005314" as="targetPoint" />
          </mxGeometry>
        </mxCell>
        <mxCell id="K9o9ax7KUyAUVBjDeXE--71" value="7C78" style="rounded=1;whiteSpace=wrap;html=1;fillColor=#fff2cc;strokeColor=#d6b656;fontSize=14;" vertex="1" parent="K9o9ax7KUyAUVBjDeXE--159">
          <mxGeometry x="135.6777041942605" y="32.4965868066952" width="49.80573951434879" height="22.86050213324579" as="geometry" />
        </mxCell>
        <mxCell id="K9o9ax7KUyAUVBjDeXE--94" style="edgeStyle=orthogonalEdgeStyle;rounded=0;orthogonalLoop=1;jettySize=auto;html=1;exitX=0.5;exitY=0;exitDx=0;exitDy=0;fontSize=14;" edge="1" parent="K9o9ax7KUyAUVBjDeXE--159" source="K9o9ax7KUyAUVBjDeXE--72">
          <mxGeometry relative="1" as="geometry">
            <mxPoint x="258.2837870983565" y="3.225467673121191" as="targetPoint" />
          </mxGeometry>
        </mxCell>
        <mxCell id="K9o9ax7KUyAUVBjDeXE--72" value="[MASK]" style="rounded=1;whiteSpace=wrap;html=1;fillColor=#f8cecc;strokeColor=#b85450;fontSize=14;" vertex="1" parent="K9o9ax7KUyAUVBjDeXE--159">
          <mxGeometry x="233.57174392935983" y="32.4965868066952" width="49.80573951434879" height="22.86050213324579" as="geometry" />
        </mxCell>
        <mxCell id="K9o9ax7KUyAUVBjDeXE--95" style="edgeStyle=orthogonalEdgeStyle;rounded=0;orthogonalLoop=1;jettySize=auto;html=1;exitX=0.5;exitY=0;exitDx=0;exitDy=0;fontSize=14;" edge="1" parent="K9o9ax7KUyAUVBjDeXE--159" source="K9o9ax7KUyAUVBjDeXE--73">
          <mxGeometry relative="1" as="geometry">
            <mxPoint x="348.60837216907845" as="targetPoint" />
          </mxGeometry>
        </mxCell>
        <mxCell id="K9o9ax7KUyAUVBjDeXE--73" value="[PAD]" style="rounded=1;whiteSpace=wrap;html=1;fillColor=#fff2cc;strokeColor=#d6b656;fontSize=14;" vertex="1" parent="K9o9ax7KUyAUVBjDeXE--159">
          <mxGeometry x="323.7373068432671" y="32.4965868066952" width="49.80573951434879" height="22.86050213324579" as="geometry" />
        </mxCell>
        <mxCell id="K9o9ax7KUyAUVBjDeXE--74" value="1" style="rounded=1;whiteSpace=wrap;html=1;fillColor=#ffe6cc;strokeColor=#d79b00;fontSize=14;" vertex="1" parent="K9o9ax7KUyAUVBjDeXE--159">
          <mxGeometry x="73.84988962472407" y="79.30618641286516" width="49.80573951434879" height="22.86050213324579" as="geometry" />
        </mxCell>
        <mxCell id="K9o9ax7KUyAUVBjDeXE--75" value="2" style="rounded=1;whiteSpace=wrap;html=1;fillColor=#ffe6cc;strokeColor=#d79b00;fontSize=14;" vertex="1" parent="K9o9ax7KUyAUVBjDeXE--159">
          <mxGeometry x="135.6777041942605" y="79.30618641286516" width="49.80573951434879" height="22.86050213324579" as="geometry" />
        </mxCell>
        <mxCell id="K9o9ax7KUyAUVBjDeXE--76" value="K" style="rounded=1;whiteSpace=wrap;html=1;fillColor=#ffe6cc;strokeColor=#d79b00;fontSize=14;" vertex="1" parent="K9o9ax7KUyAUVBjDeXE--159">
          <mxGeometry x="233.57174392935983" y="79.30618641286516" width="49.80573951434879" height="22.86050213324579" as="geometry" />
        </mxCell>
        <mxCell id="K9o9ax7KUyAUVBjDeXE--77" value="M" style="rounded=1;whiteSpace=wrap;html=1;fillColor=#ffe6cc;strokeColor=#d79b00;fontSize=14;" vertex="1" parent="K9o9ax7KUyAUVBjDeXE--159">
          <mxGeometry x="323.7373068432671" y="79.30618641286516" width="49.80573951434879" height="23.94909747292416" as="geometry" />
        </mxCell>
        <mxCell id="K9o9ax7KUyAUVBjDeXE--78" value="..." style="text;html=1;align=center;verticalAlign=middle;whiteSpace=wrap;rounded=0;fontSize=14;" vertex="1" parent="K9o9ax7KUyAUVBjDeXE--159">
          <mxGeometry x="186.3421633554084" y="27.59790777814252" width="51.52317880794702" height="32.65786019035113" as="geometry" />
        </mxCell>
        <mxCell id="K9o9ax7KUyAUVBjDeXE--79" value="..." style="text;html=1;align=center;verticalAlign=middle;whiteSpace=wrap;rounded=0;fontSize=14;" vertex="1" parent="K9o9ax7KUyAUVBjDeXE--159">
          <mxGeometry x="185.4834437086093" y="71.68601903511656" width="51.52317880794702" height="32.65786019035113" as="geometry" />
        </mxCell>
        <mxCell id="K9o9ax7KUyAUVBjDeXE--80" value="..." style="text;html=1;align=center;verticalAlign=middle;whiteSpace=wrap;rounded=0;fontSize=14;" vertex="1" parent="K9o9ax7KUyAUVBjDeXE--159">
          <mxGeometry x="277.3664459161148" y="25.965014768624968" width="51.52317880794702" height="32.65786019035113" as="geometry" />
        </mxCell>
        <mxCell id="K9o9ax7KUyAUVBjDeXE--81" value="..." style="text;html=1;align=center;verticalAlign=middle;whiteSpace=wrap;rounded=0;fontSize=14;" vertex="1" parent="K9o9ax7KUyAUVBjDeXE--159">
          <mxGeometry x="277.3664459161148" y="70.86957253035777" width="51.52317880794702" height="32.65786019035113" as="geometry" />
        </mxCell>
        <mxCell id="K9o9ax7KUyAUVBjDeXE--82" value="+" style="text;html=1;align=center;verticalAlign=middle;whiteSpace=wrap;rounded=0;fontSize=14;" vertex="1" parent="K9o9ax7KUyAUVBjDeXE--159">
          <mxGeometry x="72.99116997792495" y="52.09130292090587" width="51.52317880794702" height="32.65786019035113" as="geometry" />
        </mxCell>
        <mxCell id="K9o9ax7KUyAUVBjDeXE--83" value="+" style="text;html=1;align=center;verticalAlign=middle;whiteSpace=wrap;rounded=0;fontSize=14;" vertex="1" parent="K9o9ax7KUyAUVBjDeXE--159">
          <mxGeometry x="134.81898454746135" y="52.09130292090587" width="51.52317880794702" height="32.65786019035113" as="geometry" />
        </mxCell>
        <mxCell id="K9o9ax7KUyAUVBjDeXE--84" value="+" style="text;html=1;align=center;verticalAlign=middle;whiteSpace=wrap;rounded=0;fontSize=14;" vertex="1" parent="K9o9ax7KUyAUVBjDeXE--159">
          <mxGeometry x="232.7130242825607" y="52.09130292090587" width="51.52317880794702" height="32.65786019035113" as="geometry" />
        </mxCell>
        <mxCell id="K9o9ax7KUyAUVBjDeXE--85" value="+" style="text;html=1;align=center;verticalAlign=middle;whiteSpace=wrap;rounded=0;fontSize=14;" vertex="1" parent="K9o9ax7KUyAUVBjDeXE--159">
          <mxGeometry x="322.01986754966896" y="52.09130292090587" width="51.52317880794702" height="32.65786019035113" as="geometry" />
        </mxCell>
        <mxCell id="K9o9ax7KUyAUVBjDeXE--161" value="" style="group" vertex="1" connectable="0" parent="1">
          <mxGeometry x="443" y="707" width="375" height="166" as="geometry" />
        </mxCell>
        <mxCell id="K9o9ax7KUyAUVBjDeXE--121" value="" style="rounded=0;whiteSpace=wrap;html=1;fillColor=#d5e8d4;strokeColor=#82b366;fontSize=14;" vertex="1" parent="K9o9ax7KUyAUVBjDeXE--161">
          <mxGeometry y="21.363765012469322" width="375" height="105.3118374888523" as="geometry" />
        </mxCell>
        <mxCell id="K9o9ax7KUyAUVBjDeXE--122" value="Token Embedding" style="text;html=1;align=center;verticalAlign=middle;whiteSpace=wrap;rounded=0;fontSize=14;" vertex="1" parent="K9o9ax7KUyAUVBjDeXE--161">
          <mxGeometry x="10" y="33.331019272566174" width="50" height="35.90176278029056" as="geometry" />
        </mxCell>
        <mxCell id="K9o9ax7KUyAUVBjDeXE--123" value="Position Embedding" style="text;html=1;align=center;verticalAlign=middle;whiteSpace=wrap;rounded=0;fontSize=14;" vertex="1" parent="K9o9ax7KUyAUVBjDeXE--161">
          <mxGeometry x="10" y="78.80658546093423" width="50" height="35.90176278029056" as="geometry" />
        </mxCell>
        <mxCell id="K9o9ax7KUyAUVBjDeXE--124" style="edgeStyle=orthogonalEdgeStyle;rounded=0;orthogonalLoop=1;jettySize=auto;html=1;fontSize=14;" edge="1" parent="K9o9ax7KUyAUVBjDeXE--161" source="K9o9ax7KUyAUVBjDeXE--125">
          <mxGeometry relative="1" as="geometry">
            <mxPoint x="95.83333333333333" y="0.443231639262927" as="targetPoint" />
          </mxGeometry>
        </mxCell>
        <mxCell id="K9o9ax7KUyAUVBjDeXE--125" value="[CLS]" style="rounded=1;whiteSpace=wrap;html=1;fillColor=#f5f5f5;strokeColor=#666666;fontSize=14;fontColor=#333333;" vertex="1" parent="K9o9ax7KUyAUVBjDeXE--161">
          <mxGeometry x="71.66666666666667" y="35.72447012458555" width="48.33333333333333" height="25.131233946203384" as="geometry" />
        </mxCell>
        <mxCell id="K9o9ax7KUyAUVBjDeXE--126" style="edgeStyle=orthogonalEdgeStyle;rounded=0;orthogonalLoop=1;jettySize=auto;html=1;exitX=0.5;exitY=0;exitDx=0;exitDy=0;fontSize=14;" edge="1" parent="K9o9ax7KUyAUVBjDeXE--161" source="K9o9ax7KUyAUVBjDeXE--127">
          <mxGeometry relative="1" as="geometry">
            <mxPoint x="155.5864197530864" as="targetPoint" />
          </mxGeometry>
        </mxCell>
        <mxCell id="K9o9ax7KUyAUVBjDeXE--127" value="3c18" style="rounded=1;whiteSpace=wrap;html=1;fillColor=#f5f5f5;strokeColor=#666666;fontSize=14;fontColor=#333333;" vertex="1" parent="K9o9ax7KUyAUVBjDeXE--161">
          <mxGeometry x="131.66666666666669" y="35.72447012458555" width="48.33333333333333" height="25.131233946203384" as="geometry" />
        </mxCell>
        <mxCell id="K9o9ax7KUyAUVBjDeXE--128" style="edgeStyle=orthogonalEdgeStyle;rounded=0;orthogonalLoop=1;jettySize=auto;html=1;exitX=0.5;exitY=0;exitDx=0;exitDy=0;fontSize=14;" edge="1" parent="K9o9ax7KUyAUVBjDeXE--161" source="K9o9ax7KUyAUVBjDeXE--129">
          <mxGeometry relative="1" as="geometry">
            <mxPoint x="250.64814814814798" y="3.5458531141028717" as="targetPoint" />
          </mxGeometry>
        </mxCell>
        <mxCell id="K9o9ax7KUyAUVBjDeXE--129" value="f873" style="rounded=1;whiteSpace=wrap;html=1;fillColor=#f5f5f5;strokeColor=#666666;fontSize=14;fontColor=#333333;" vertex="1" parent="K9o9ax7KUyAUVBjDeXE--161">
          <mxGeometry x="226.66666666666669" y="35.72447012458555" width="48.33333333333333" height="25.131233946203384" as="geometry" />
        </mxCell>
        <mxCell id="K9o9ax7KUyAUVBjDeXE--130" style="edgeStyle=orthogonalEdgeStyle;rounded=0;orthogonalLoop=1;jettySize=auto;html=1;exitX=0.5;exitY=0;exitDx=0;exitDy=0;fontSize=14;" edge="1" parent="K9o9ax7KUyAUVBjDeXE--161" source="K9o9ax7KUyAUVBjDeXE--131">
          <mxGeometry relative="1" as="geometry">
            <mxPoint x="338.30246913580237" as="targetPoint" />
          </mxGeometry>
        </mxCell>
        <mxCell id="K9o9ax7KUyAUVBjDeXE--131" value="[PAD]" style="rounded=1;whiteSpace=wrap;html=1;fillColor=#f5f5f5;strokeColor=#666666;fontSize=14;fontColor=#333333;" vertex="1" parent="K9o9ax7KUyAUVBjDeXE--161">
          <mxGeometry x="314.16666666666663" y="35.72447012458555" width="48.33333333333333" height="25.131233946203384" as="geometry" />
        </mxCell>
        <mxCell id="K9o9ax7KUyAUVBjDeXE--132" value="1" style="rounded=1;whiteSpace=wrap;html=1;fillColor=#dae8fc;strokeColor=#6c8ebf;fontSize=14;" vertex="1" parent="K9o9ax7KUyAUVBjDeXE--161">
          <mxGeometry x="71.66666666666667" y="87.18366344300199" width="48.33333333333333" height="25.131233946203384" as="geometry" />
        </mxCell>
        <mxCell id="K9o9ax7KUyAUVBjDeXE--133" value="2" style="rounded=1;whiteSpace=wrap;html=1;fillColor=#dae8fc;strokeColor=#6c8ebf;fontSize=14;" vertex="1" parent="K9o9ax7KUyAUVBjDeXE--161">
          <mxGeometry x="131.66666666666669" y="87.18366344300199" width="48.33333333333333" height="25.131233946203384" as="geometry" />
        </mxCell>
        <mxCell id="K9o9ax7KUyAUVBjDeXE--134" value="K" style="rounded=1;whiteSpace=wrap;html=1;fillColor=#dae8fc;strokeColor=#6c8ebf;fontSize=14;" vertex="1" parent="K9o9ax7KUyAUVBjDeXE--161">
          <mxGeometry x="226.66666666666669" y="87.18366344300199" width="48.33333333333333" height="25.131233946203384" as="geometry" />
        </mxCell>
        <mxCell id="K9o9ax7KUyAUVBjDeXE--135" value="M" style="rounded=1;whiteSpace=wrap;html=1;fillColor=#dae8fc;strokeColor=#6c8ebf;fontSize=14;" vertex="1" parent="K9o9ax7KUyAUVBjDeXE--161">
          <mxGeometry x="314.16666666666663" y="87.18366344300199" width="48.33333333333333" height="25.131233946203384" as="geometry" />
        </mxCell>
        <mxCell id="K9o9ax7KUyAUVBjDeXE--136" value="..." style="text;html=1;align=center;verticalAlign=middle;whiteSpace=wrap;rounded=0;fontSize=14;" vertex="1" parent="K9o9ax7KUyAUVBjDeXE--161">
          <mxGeometry x="180.83333333333334" y="30.339205707541968" width="50" height="35.90176278029056" as="geometry" />
        </mxCell>
        <mxCell id="K9o9ax7KUyAUVBjDeXE--137" value="..." style="text;html=1;align=center;verticalAlign=middle;whiteSpace=wrap;rounded=0;fontSize=14;" vertex="1" parent="K9o9ax7KUyAUVBjDeXE--161">
          <mxGeometry x="180" y="78.80658546093423" width="50" height="35.90176278029056" as="geometry" />
        </mxCell>
        <mxCell id="K9o9ax7KUyAUVBjDeXE--138" value="..." style="text;html=1;align=center;verticalAlign=middle;whiteSpace=wrap;rounded=0;fontSize=14;" vertex="1" parent="K9o9ax7KUyAUVBjDeXE--161">
          <mxGeometry x="269.1666666666666" y="28.54411756852743" width="50" height="35.90176278029056" as="geometry" />
        </mxCell>
        <mxCell id="K9o9ax7KUyAUVBjDeXE--139" value="..." style="text;html=1;align=center;verticalAlign=middle;whiteSpace=wrap;rounded=0;fontSize=14;" vertex="1" parent="K9o9ax7KUyAUVBjDeXE--161">
          <mxGeometry x="269.1666666666666" y="77.90904139142695" width="50" height="35.90176278029056" as="geometry" />
        </mxCell>
        <mxCell id="K9o9ax7KUyAUVBjDeXE--140" value="+" style="text;html=1;align=center;verticalAlign=middle;whiteSpace=wrap;rounded=0;fontSize=14;" vertex="1" parent="K9o9ax7KUyAUVBjDeXE--161">
          <mxGeometry x="70.83333333333331" y="57.265527792759876" width="50" height="35.90176278029056" as="geometry" />
        </mxCell>
        <mxCell id="K9o9ax7KUyAUVBjDeXE--141" value="+" style="text;html=1;align=center;verticalAlign=middle;whiteSpace=wrap;rounded=0;fontSize=14;" vertex="1" parent="K9o9ax7KUyAUVBjDeXE--161">
          <mxGeometry x="130.83333333333334" y="57.265527792759876" width="50" height="35.90176278029056" as="geometry" />
        </mxCell>
        <mxCell id="K9o9ax7KUyAUVBjDeXE--142" value="+" style="text;html=1;align=center;verticalAlign=middle;whiteSpace=wrap;rounded=0;fontSize=14;" vertex="1" parent="K9o9ax7KUyAUVBjDeXE--161">
          <mxGeometry x="225.83333333333334" y="57.265527792759876" width="50" height="35.90176278029056" as="geometry" />
        </mxCell>
        <mxCell id="K9o9ax7KUyAUVBjDeXE--143" value="+" style="text;html=1;align=center;verticalAlign=middle;whiteSpace=wrap;rounded=0;fontSize=14;" vertex="1" parent="K9o9ax7KUyAUVBjDeXE--161">
          <mxGeometry x="312.5" y="57.265527792759876" width="50" height="35.90176278029056" as="geometry" />
        </mxCell>
        <mxCell id="K9o9ax7KUyAUVBjDeXE--152" style="edgeStyle=orthogonalEdgeStyle;rounded=0;orthogonalLoop=1;jettySize=auto;html=1;fontSize=14;" edge="1" parent="K9o9ax7KUyAUVBjDeXE--161">
          <mxGeometry relative="1" as="geometry">
            <mxPoint x="132.08333333333334" y="126.67902171682475" as="targetPoint" />
            <mxPoint x="132.1428571428574" y="166" as="sourcePoint" />
          </mxGeometry>
        </mxCell>
        <mxCell id="K9o9ax7KUyAUVBjDeXE--163" style="edgeStyle=orthogonalEdgeStyle;rounded=0;orthogonalLoop=1;jettySize=auto;html=1;fontSize=14;" edge="1" parent="1">
          <mxGeometry relative="1" as="geometry">
            <mxPoint x="859" y="664" as="targetPoint" />
            <mxPoint x="817.999958251804" y="664.4705882352941" as="sourcePoint" />
          </mxGeometry>
        </mxCell>
        <mxCell id="K9o9ax7KUyAUVBjDeXE--164" value="训练阶段" style="text;html=1;align=center;verticalAlign=middle;whiteSpace=wrap;rounded=0;fontSize=14;" vertex="1" parent="1">
          <mxGeometry x="843" y="589" width="60" height="30" as="geometry" />
        </mxCell>
        <mxCell id="K9o9ax7KUyAUVBjDeXE--165" style="edgeStyle=orthogonalEdgeStyle;rounded=0;orthogonalLoop=1;jettySize=auto;html=1;entryX=0.5;entryY=1;entryDx=0;entryDy=0;fontSize=14;" edge="1" parent="1" source="K9o9ax7KUyAUVBjDeXE--166" target="K9o9ax7KUyAUVBjDeXE--167">
          <mxGeometry relative="1" as="geometry" />
        </mxCell>
        <mxCell id="K9o9ax7KUyAUVBjDeXE--166" value="检测模型" style="ellipse;shape=cloud;whiteSpace=wrap;html=1;fillColor=#1ba1e2;fontColor=#ffffff;strokeColor=#006EAF;fontSize=14;" vertex="1" parent="1">
          <mxGeometry x="866" y="607" width="331" height="113" as="geometry" />
        </mxCell>
        <mxCell id="K9o9ax7KUyAUVBjDeXE--167" value="预测分类结果" style="text;html=1;align=center;verticalAlign=middle;whiteSpace=wrap;rounded=0;fillColor=#b1ddf0;strokeColor=#10739e;fontSize=14;" vertex="1" parent="1">
          <mxGeometry x="980.5" y="558" width="102" height="30" as="geometry" />
        </mxCell>
        <mxCell id="K9o9ax7KUyAUVBjDeXE--168" value="参数" style="text;html=1;align=center;verticalAlign=middle;whiteSpace=wrap;rounded=0;fontSize=14;" vertex="1" parent="1">
          <mxGeometry x="811" y="637" width="60" height="30" as="geometry" />
        </mxCell>
        <mxCell id="K9o9ax7KUyAUVBjDeXE--169" value="" style="shape=image;verticalLabelPosition=bottom;labelBackgroundColor=default;verticalAlign=top;aspect=fixed;imageAspect=0;image=data:image/png,iVBORw0KGgoAAAANSUhEUgAAArwAAACCCAYAAACkVRu3AAAAAXNSR0IArs4c6QAAAARnQU1BAACxjwv8YQUAAAAJcEhZcwAAHYcAAB2HAY/l8WUAADhxSURBVHhe7Z0/jxs50vA57xfY/Qx70hnGwckBDjS5gdWcA1+wDg1HGmCDw0zgJ1jAkQEHjwMNLlhgJlo4tINz4JMWcD4TLLCJ8cDwSbefwfsJ9JLNJlnsLjb/NNmt0dYP4K4sqcVisapY/NM9RzsOIwiCIA6YNTs9OmFXbMaWm2t2NqnfvlXsYRvWp+zo5Iqx2ZJtrs/YrVTrgPz+++/1KwLjq6++ql8RJfh/9f+j2V4cs6Ojo0Y5Zhfb+gv7yPaCHStZT9f1m92sT2H7VNnTdorg25D1eChBoW55CVJvQn8My5ZdHJs26XJ8wT/ZRzB5T3maUBpYb1h9ePwItJueYHV3+gniV/tpr/0Ys0/+GDT8s4hib1vM+o39+OBr9vXXsJyxD/Wnbj6wM+uaujz4kf9iKZA6A+v7cNa47usH7MdyglpYOYzLDhrjN1pK2VBy3iImwPZ1XhnFCm8sqwUTq8LusljV39wXVrtFrIyb5W7WvKZZ9qadm91yhsiny4JroCTt+rtVk9Afg4PI2Ch7JfJqgcqoymy5qb+Yl3Ys8NmaX69stuQWlZ/NcobXxwuun7H9KidK77Ndu6nj9UkcXW0YCeV3Afpp2V/2ALL/MevLly+mvH2KyqjK/Ze/2t+vy68v76Pfh+Xp2/Z1fYqvTmd9v77c3Ue+r8vTt9b3s9McF1x2GpLvZI8B6fG1K5aL4rLz5IQXGyDg4LcvyQCUabZcGQV3Cgg7oq1085v7EXideofGXrBDtPHNZtppXNWl9ccYiMHDlxzsScIDg5UVlKAdZ7ZVaFu8zpUOQN066fIdGMRymwO0u9DA7ZYV2ED2QaAU7mRxrD6Jx92G0QhNeLWP8hhZLObtf8xCE8H7L3e/6qTv193L+0rW+7uXv6r36wKvaySLX7683T1Ff7NngYm5VSeojz3dvYXXeD5/+1S9byfLeTH9PuNjc1Wfy061fQ5nHzAmW67gy1ucn/vtPCnhdQMUvAcRyQRrFQRAAtAVbEBwwpth2pk9ZsUCkh1UFm0chQYJS1fdeknuj32jtE4j0YEDDWYFdAxsTvm56duugOnzGyNr1viR0l8+v/LGiH1D6b4p70h9koSrDSOibKsz4bV1qP11yJi3JzGrlfChiSlIehtJrV5pdSW0OjnFEtCU4pZFFpPUNlekzaowLgumg5xAO9PxeV8SXl98ddqrbzwz8QyLV8lneHGm7C5vRRjI+YvMZ2MnZ8/ZQtxMsMt9g0NMOyNxnaVxnPfavn/DbsQL3s5n8+otm/kzxg2Ec8PevM99AmfLLp6cV/XPlq+9Oi7XH6Hg59uij9JN77JS3S+IOze+Zu+u5KvFc+ymmQk7e85DgODqXZ7zvJMz9nwhbhzaseusHTlhd+7VL7PB+/yFVFCIjSq8fjV5yB4X86ueoDFE3OyVQok+AfQ6H93255L3LKBnnMUNax62F0/YuQyS7PU4gS84ZkWfb0/iA/v3T/LV0//5nn0jXwK+Yd//D08jBT/9O+A8L+BPf2b365dZ+O1n9q9fxIv77OU/HlRv2Txg/+AZseCXf/0MzvP+xn6WF/J89h/8W20e/OOllPWXf7Gfc5/n5X4lTXPBVpdYABuX5Lxl+569kReyJX4heyYvZDdv3rfP89aJbybCZuBwKbtdSs5AQ1e7PN/Ts4+8s6FuvYjSrM+/+gK3JLlx4bO7VFqrG77Voiah/dEfSw9Iiao+aFUnATDrdZVWP3tt0fSJKKXUHLbCK8StZcF0V2LVNHHlwrsiwhllpc6DP4a0dTt4n1QA30cLVh8YX1YdvpK9P2wfQovTTtpj4ih2441ZvjbmGeuq1U3vKiw8CtA4HwuONGDnZvWqKboaG1+8K8rWGV1wBEO/jxzLqAo8umFWh/NgfEuZ2H6t8KbnLeHtEKUdQzKu8KpHxvBqOlZSxOqVnhQvViLhBmVTZ/VjM2Fnr5dyRnx1wme5ZnWtWn2rG7BYXfL5RGZaOuFlU8vCtXtirX5s2KdqtsPYvTtNhcvVj2m1tFAC3t+VHvhM6/V+P45HrFpoPVQrzLZ++QAUjliRKtpuuXIK5YMy3pw/sVZ6t58/yhezu2wqXxmq1bPUlb0yzC9XrGrKzTmbHpnV9WplaRq+WxDM5lO9koDopydTtc3z8XN7JWEEhA5VbOUDXcOGar0jDN4nHL3q2bJ3JecNO3/iuuOaf3Yi5YLt5IOh/PjqRcadQhFHlQ8tGE8GgKy8eILH+tQ/JhYnIGYpOVttdI496fy2+T/54v6f2Z/kK8OHM/b119+xegG4zTffs8t6RfWn7+BTEuQTFL6rLnzK3l5ga6rx/Pc/cpWW/WXaWon+7ccH7Ou//sDqb9j89z/1+39h0/aF7MHXf2U/oBf2R/sWzyX2cHGXk563bMyFLTuG8coJN+pE8Blh56QVZN+uzL4ssSuKrllv7tUOP/jMpr16UKFX/UThMzbvKmA8apXC7kejryD1RvdHCqAPU+qwdKnKELPgJrhutV1YbbNXz+DNgaX8zszIQ3RjywdLbjOw9GPN/j116n53+zruk2Ph8z1HrNAM1yemH1yyuNoCfBm9tkA88cVO9TlmA47Piq/wxsYsXxu9/RWOWMXUq6bWKmxzxfOt/jf6tAbXEx5y3qzGi1oxtmVorkCbf+tVZyVfQx54s5pof3NFuje6r+y+9MYqR2zsvCYZRyyy7JbLj9ilL+8QZbFyxY/sZ3jFguhR0HnT0c4yReE6q3vDPm3qlwMxCTxIB1eguVHwCc0lm+c+c6rOB92Gfly/MysX2aa7V+wErIQNQ+C58er85rRePZOrNddn87LnMKNxnwv9+LnQWqnYqXHM/tGYNX9kVhqn7WcLW7sG+4Cyc9eZOC/D9YkeBxbPHauec/ZIKt9Z92KF3QcwYQ/lwepsq+7r+oD8bPkscjdv33bA3DHL20ZwXr3IuGeteD5lb798YR++f8Cmf6k+xXGd1f3lP+y/9csiwBXo+y8ZT2bZxYM/sT+jwkDgCvR99vLXL+zLxQPeDO+FEWz1PTVZd5/rnZ+S5+OT8xa4i1nv3l7O3WNlj4R3zi7h1gcvfBYhPxKDS8uztuy9PG3MZo8f7kEA8CGOaKjEod5209s7jkEyB66b1mpjcCNvApRfk/LqG4rUtm4Wbs9RBoEK5mzxKC0AzC8tG+dTYX3sRthACRPAb1pTtujG2tKpjsaooLdl6uTD+MgtK2XOfAbO5TTb7Tfn06wPONdbYIKu4yw8Ztl9yeOb+bBKFmB/7FWyy9FHW5CtPj8j9Ul1XMzWqypKlhs0w5qxu47zKaELA2EYv2lvvXYz6lGGqJhl2lj1M9IXMPbknvxYxwKevmVfvlzUN3j9xtTJhxYi6VTX1Ennr/UxB8ZT0e94YnkWdadbGNUfj5AZK6/2V/blg7rh7r9MnXxAaSXJH9j39TEHfWQiA72OMkzO2LVlM6rAOGAfp8tDet7SSpL1Xzo0RyaaZF3hnZxdmzNNWc9RDQ04t1UNkvVqQm0U7kGyH1UH+s6goIhVKETeJhnOMe7FmbRRmbCza2MDVy8y/vWZerKjBvsouC2qJKxKWBwRL3bgzs361F59lmLKybOeMN+csyeZgoc+ZysmAMiffp1fgr5813DmKnEwAR8iAqyWNynJzIuV2EcydJ8Mws0nPuz1xT1wdrJ3O2AFY1YffvqO/bU+yPr0rVzxxPgLPAQrVoORpPOb7z/wZPktq5/twH865K+1hfPLD3+1Vmc/qIzV4j77c/NQ8i8/sL+iSbLN/daFkfCx44nMdlnepzKIOADO1b/KucKTnreIyRmaJFu0J8bZjzTArcCht/2zsX5VDwD4Kqa+yYPTGiRTUUGSI5f0GzMtnWVD7KX7KtFBBvV+qz8Q8wgsfDWgNl5OtQJevbfnf246kbnac80ysArMdpRKPGwbwG/otFa06hXMdrxTA7d7ZWwQeFCunxDGbbW95TY5e63biD5Spg8dW9zdN5+1d7JEEQFWJZmLRzkHmIEZs0+wG3SbJXXwLnCTYih6V6neCm7GST2hBSvcJbeLFb6YhY47jZLjMYTfwLMK+lhA/W+NWjW1k8gP/zQru5etpPMBu3irU1727wwZr3XkoFqBNquzmt82TC5GgxvUrCMX6phG60K9im0l9QnoY0J8BG7uRomid6SgTQav1pkjRnlIz1t0rBZU8QNJkrefmbzyHmuu7+RPeDXNwdWcEcseODNj7nx/zB6i/g0MIPNZsbhVAXBmjV+Hn90DR0lGzXbGQTtIrmfQNsk1sOrnC+KJhxM9weTXoc/h5ehzzO0AMCh6i2rB8BwR2HOmiYSeEGSbmCjU5M/VlmHxPjFC20CDEfrEK2sPdBzNsupuBmbXVr6u7zZhxSwwLg+1QvXgb3olFn8OL+fDv+snNcCnHJgE8f7fv8WvA7/9f5v+D7f95tu/14mr6zm8XKqf/1Un4eCpE998y/5eZ7yu5/DCZ/z2XeC9XaTnLZOHj3lmKZg5nsMrhlJ1r1h7bM6e8G4vXjgHVzPDPGdZV8ZLERLgc29nor+31Q/Pb6INwKVTsFr9GM/eI8BXu0wxK9/yHKAojm2KgTAOcsVeZFtFAf2Ru/+5tOi8RPdjEzP5wrcqgayp55iz85F5jwLmmkjoCcEVwzdjUu4tMEee4m9mKoNJ7N+w1t/BEEdlvOdkhusTb8xKBa5WZ5mFdC/SwMfAQcQxmXZsNEVv1oEV7hwrp924Y5Yelwc7hviA/a3OSn/6X/VYMchv7Mf/lekue/o3NFn85T/+W9P6rppW6MT1F/bDP7El4w/sn/WxDDsJ/4Z9W2e8v/zwT/R4hVmt/jv7tqeo1XFSYGPNoo8m1buA1fuhuyfZ/SogBrjyFnADJX68Ys1e1QMlGs95w7PBHRk8GqJ+06L5uCT4aAmB+Lz/o0/cBD62xnpER/tRLdx4dBu6fiYG85tdj+rgBXlEiFPv4Nq2rkvgfhwIToHHCCFA/WD1iM/Dq4ePQHE8xicJ8LuWMLbPiNKSFdqrZR/w2pyytjH221UP1B3i54Xs1fR/s854/UDfx3xxPIBuoVxap7PdrGprUwdj9Ilt0+jvVvU2+8TIGu4DPXG0X9sUH6+qeiPq1NeGB52ewD7G7Bx+jsfCyu4z6FU9nsv6gw3Wo7vg48naf5jC/LleXlp/XKL72uQCH4Fm1QkeT4Y+Dg0+vsyWxzyezP7DFKXQcSuyD614l9le4bhs/bQv5oDPbZkcMRAQn/B2Pa+tLt2B0XaudkGCbioBsqrS7Eurox0l3wAg6NbLbLHoCKwenWYIVGEYOVDf6NEf/Wgnjc0S3/8Z7bSmu87FblEHCEw3PnmH1qcuzYphsHKVvMJyfPLifdmp0+wyZsCpW9E+pYPupNZZsrfXNw6I4k543SVs4hIDHJitIuKqimkRMbZUwtsrZoXE5gzjiErsRLGSV6Rgf0mt+bxevLj+ull6sZ6f2yod9bmeF1yX5jOGS6Ftw9WHvhhQJN6l5y1On6yK286zJrwxCSDunB0OmULvBMs1UOYPqhKkPtXpAYEV0+mw4/K+Jrw1DqfG6nIPHplttAkio5JPOblbN0gAyTBItemR8NbgAausbtE+7TA07Pt5J7kFaPqY7v+OhLdmb/pEFGe/uG2voyt705RT20FAXG4yfMIb3oeuRCKX3cPkThb7jzhUJeSPR1h/0heU1qpvxoLVGVQflqTjK9Cl0LbhslNXwltk/LDB7DbINbB8wnPhkfgP/yJBEARBEEQxfv/99/oVgfHVV1/Vr4gSFHxKA0EQBEEQBEGMDyW8BEEQBEEQxEFDCS9BEARBEARx0FDCSxAEQRAEQRw0lPASBEEQBEEQBw0lvARBEARBEMRBQwkvQRAEQRAEcdDQc3gJgiAIgiCIg4ZWeAmCIAiCIIiDhhJegiAIgiAI4qChhJcgCIIgCII4aCjhvS2sT9nR0RE7Or5g2/qtfWV7cSxlPV3X7xB/CJSNNorXDLYX7Bi57vhi3y39FpDaJwRB9ILGwQ50zD9lQ2qnX8KLBNOwQWrNThvXlU3kkPoCFb0+bV4nyjHb77F4yy6Ogbx75nC4TksbfkMnEXW25S3d/6n+kd7GftT1nlzV/w6n0u30nN3U/y5KcryqwRLzvZ2AxveJHqAbJXf4wP0fL2j/3LYkvq/dDQY2TvJS0sYdfenXDxbrCsRlh3xo2ZdYkMU/0nOmvUY8pSGezW45Y+LpDo6y2K3qbzbZLGfI901ZuC5MJLm+zXI3Q75vldzCdrFayDpnS679blptHlJOjq6/Va/PbthutvS1LgGlO0dx1umzgQJ6TbbX1DZmAMocpRIgc0n5/HbnjlcVXXYQ4I9jENcnq90CtgkrGdu5WiC/7yhNu/D5x371R0+7GxCvXnnJG+78Y4FTP0PGOk9dVmnYntZpgXHCRX//6IoFGe1Vx9RhfSAp4YUBy+pLaBxYJzs/h0rOqADngOqrDzpj+3PT/tmu6DgNUW3xGaw2pNluptowoMMJ3I4u9doWB+o7s05hsmLpzlen20ac9t+XVP9IbmMetD4ilaHtxBuE+5EcrwTwO0P6e09i+qQrnsEBNLJ7e2DsvVlnJQ8iCJSz7OQpnF52NyQwfrTkAbEno5922hXQT6svO2Qdx1ZBP7vkGVCYXv4BdctLUbF1XRnzvQDiE16gFFQh2libwRMMvviF2rFyBizR0Wh1Xe3Qn7kGOHdALobSa2fQMToWOowZ9HKS5Og+u0pE6wDVm9smTYDAHbL7d1NI94/UNubB/H7szyu5c/p7i+R4JSgTk8oT0ye+WGZ+aygdaN+L8q3Sdh5JL7sbFq++tay5khO/TbnGLl/cdV1XjI5cIWkcLIbPPwb2H623YRPe6DO82/dv5Hm72ZI9m1dv2cyfMa44zg178x6caNm+Z2/khWyJX8ieyQvZzZv32c7CTM6u2SVW3eQheyyrYx8/x9Y2ZXfra0uAnqULOIu3vXjCzoWOed+8PpvINwuDncebVkJEMrnD7tUv87Fm72q1LZ6fsbZGJuzsOR/uBVfvwPmkLXsvjZWr8hm3zDbzZ0tuyZybNwyaeTLJ/pHaxj8GyfGKs714wSrVDuhP+8eE3cnvmB2s2as6fuD27GIYOdHYjByO7GN3vUk+F+tgelfGugGZogOsL9ZxtT4aNtatX9X3HyyeM2+IaPXLkGdiPf6xfiVzB7ZgKzRhKk37zHDYmWPsrHHHWe468Q3EPzMzK2O8gFmYdxYJZsQ8Sgww6+1qi2e2k33GqzCrLc7iXPVQ1xrdFZ3tWv3lKDH1lpjxefvJ1rcWt2PWLgH2wUuOla9k/0htYzaMLmJ/u/wKb3q86tOu8YmTvXPVzOsLmVH27IxzLgr3ly/eWZX2sbs+mHqdpbOPcd2VGEdM+7G45dp1cL0PGNRe22MuRLeRC6t12CoD+ZXHP8rH4ga6n3j/6zGsXbrkcetUFFyvkQlvl8Ehzgacq8tpLOevypDG6nAeK8AZeaCS0euSgfpDgoBnIMAMtkvn/TC6w+SBjh6EJ+CmouXAdIY4ma67K4m07EKWHEEi1T+S25gM6PugonQYMBhbJUcMSI9X5tohYlFfUvtEYV+vdAXtbpiB0PRJXH2gL/sbeBvHWKARfmbV28fu+iB/G9UdiAXY51aM0fJAu0BiYS9sPWiZYMxqKa9Lr4qQ7+ShM/ZyWnEbjS+8lBYU6hqty3xeXBRFaxy1/crkWbjdwTys3SbRHjxuJya8jR+zBlYuoP63ERZLyMzvybJYjWCsnY5sy2dKgUEQ0ZmF+hxzLsdnpRLeYEd31YskjSV0isvRDLQr/e9W0HXpUxT+mzn1m+ofyW1MxuUTrqLs2ZbJX3LYg5I1Pl4ZGxXvOWTP0O95SO0TiLt/Bmsm1g8ouKz9bRvH+L1PLkUPuyuIN15Z8oHiiPM5sGIqKHhfgn53GmU7RpbBX4/JMRzyan3nHvti/cO2V7RPctuAlQNg9m/025IbXBvr873/8ER1hrM+X8or5wn0JZuHnPmpzrOc6DNyXGx2OS97NlazvWBP6nNirjOaEpc8N+zTpn6ZiXV9OKlbHow1O630P2PL1zFn3lIx51vjztj5uGHn08LPp6yeozo1Z5W4zV2fzQPO/slzQtLMuZ43fKJ4OXecM8tEqn8ktzGUObuUE+W6bOqziLy2FXxfFR4Pqk8n7Oza/owH1goZN+zPdrtr/5m4BOLj1RU70fpscHXC+2gfnk2Z2icQ9xm/+HscUtiyixepMVBycz4t8CxUcG50hektjORxMiPeeOWS5+YTyzzcaVwy3aAD7IQ9VDfecN9rjxUiTtcxszDwfD96Rhsi4jd2Lnb+iEdoQf58AsPvH3IMrs3U5uacTYs8f16Mp5hfzZk6jt20BXg+Pvbeih4JbzsJuFaVbz5JgRy0nP9aJU4b9qnrwixwudWD7jsVJtqnBro6ydnUNypxrk54G7I96XzLPn+Ur+7dievA9al08NnydZEEoY3qoxm7O63eiGdyxq4bg7BKfoRTlkh6q5tNVL8vVmDQN7pHaSWeJhHbFDLWVP9IbuMfgsh4Zb1X+z+0WWWwIiHe2794EIp8iL8a6GSSvKoH45CBMgPgppnn3kDWnjzp/hADc05Z1+/qBGrBHvkSG5T0cTIZx01rnTcTi2vAuCgm2Bs1axI2zq/PbeYizimZ5CTATNRck8nJ2Wv9ncourTYOk+yKPo26sfLeHcd3Si3wRfrH9jODw0NrkqzzHp4QP8kdB+4xV8qDT4bADeWPH/p134Q3KAKzzKwLttStlurBZ1zf9nXoMr69tJ4fIH/nEj3YEkC+B9uC7VTEY+Ry/h6iU/Q9gJYzj5ASvZ3g7iPvkQYHZgsozxaftaVUl7ZIpq/1Z8jWHg/I9YcGpV/ss1hS/SO5jdlI/+2c+sNJj1fGzjtsUdvJMFvS4cT1ibG9djugfZXrJxBv+xgo2OrMZudJfdzD7noB9NhVmsrp3CKGbcln58aukDgH46+jI7G4J+Vrx8jcmLq79aG/5zRG01/lfAvg9I8AnQWM+1EExFetP8s/+ukscoXXnpFwpYHVJ8PWLFfqz6xsvVp9QrYs9UzDnfWnI2baaga4YCtEbo1ebeAzcuSYwPzSrH5cvRtvdUcdg6hmbdZMVxa1YiNny/K9okcGejJ5+LieSX5kOXZRJ3CPtl61aO8sISvW1taeOhbQMtbkVXmMVP9IbuMfgvR4ZeiwRW0neex1FLYXrD5JwPXT3lq0VtQyPi7SAsZb7/5wB70eNZmTHHYXj34sJaeqU63Q1YUnEPLDBvrRWuiO55xd8hmR5IrlGe7MCim6Mzm/1Dt+rseLiceNNttX7WipGDl7zB7mUGoLKHva0RuMHGOIF69/dByt0I8NHeb4hUUm/xBEJrzgDA13Djw2gSVnMLqaZMYd1MzZjLs8ZOREbNmBZBc9w2bQgcjpNOZ8CbecDIOACZCuQK2T27HxGr7p/3QyTXj0GSne666tJ71lCeoEgcEZ1MBzc3Mkkcn+kdrGPwTp8WrUAD8kelvdtWUPdFjkLKc5uxv0LNNAsiUQelITk+z1sLtkQNzlE+bwR6maibtzixjEmCwTCT1xn7HHjqxUP083cjKpYmTSdncA+uwu14j/6I2HzGNIDLZ/+POP4XH5h7nXIGkCzmdGcfi2jfR2RHPp27dtZbZO8i7vw22esC2ZkC0LvQ2ItiUe/XvI9paRB//cRW4ZJd39qOtMqLdLB6l0/6a7LT4byC9run+ktjEP5vdjf17JXXQ7LzleAb06GoZvue0DEX3S0X5F0XYG1B9Mzt/SAP+JaX8Pu0vDyIn7EziaYAkUEh/MtV57CsGnG4HWT9iYXZFyTRRxOYr2G0cj848hHjpszuvjuXXrO9LQ5R/6s3h7jE94ObqjmhUCQVCDAJ/bRgCcMWvn9w9WWIeYZChTABA4dGecYiZlimiHb8BOBW8/CLhc1rh6QT9lHaw4sC8t3cE6MacDNtn43Nh/ZllT/SO5jTkwdcSamdJj0YSXkyNeNT8vEgOyEdMn0M67B5cS/ZQrRsH+yC4n9EvMj8TniPzJdpeIqc+WEeqmKg1Zrc9b7SgRQ+BvIjYK4xmi1zbQhgv6o+63MD1ovSIx22kbhfD6R5fOS9irrq875uD9b9tPWybxOT42JyW8TQNrlY6kDHZ0u+RNIFqO3lGaSgu5NmewEjh1I/SpDKRDt03072X3KNvgrCLqUgbb4Tiukl1Ujq8vnXV65M3d/4JU/0huY2+MLcTWodpaQo826fHKp9fysqcQ2ScBfpk/hnDAIBv2855+FKWQoXvHA7TedLtLAiYtSFksHHG5K57rknds9slaFVQ/XTrNLKMF0FGgjQ2fQ/T0D18cyOlbyf2v8LU1a8IrwTo0SCdYY3MqsybE4FTBDc8VCEqtlrVl1nIpne1FwitpJme6moSEt5CIAMRBgnSJ2UC5/q9I9o/UNvYhMrkCDJfwSrLGq9I20Iu0PsEnW6WSCOBXwTbaMciVDyAcR/2eupPtLglERlWZKy4rXElIQd26xmh3lVgflPdFI2ekP7jGvCJxOYd/YL9RKga45A2vD7cf9/VH4j/8SwRBEARBEARxkPT+S2sEQRAEQRAEsc9QwksQBEEQBEEcNJTwEgRBEARBEAcNJbwEQRAEQRDEQUMJL0EQBEEQBHHQUMJLEARBEARBHDSU8BIEQRAEQRAHDSW8BEEQBEEQxEFDCS9BEARBEARx0FDCSxAEQRAEQRw0lPASBEEQBEEQB80eJbxbdnF8xI6Ojtjpun6LIP4wkP0T+0gBu9xesGP+e0dHpyzLT65PK/maZRA/UnUfX3BNEblYn8o+PL4grRL5yJLwbi+OrUBzSIaqHM8ux6xc88wAM0x9mdCDmCzhg82anYLritkNNiiGCNloV1X2fnCzdSpLpuSiAeYf+5mw9/cr09b99EcsDjfLYSUQdZ+eXNX/3meATxaNH5idh9WJj3Vl4kYajrY5Su44FJfnYDHYVfLFk/4xANPxEDaQ4h+Ijj3X9kp4lXKn5zf1OwdEnejgsfSGnU+5cnN7VJWUTVlbnbK+/R2suJM8OedSxrM+PWFlh6uOQfHqhOvb7czVADBF2nVzzqZ7mfSoAFBap5wO/7g6KeAbfejpVyrO3Yq86g/E9uKJ7tPFasd2O7tczuVn46ISiAF8svJ/zM45VcxyJYFSRty+r9gJv+6wJkqxyLiK5Tk359NbsAASiDNOlrSBNP+QMRm5ptPOOTwwJLFasJ24vCqz5W5Tv5/OZrecyd/jwWtkjCw8lO6a4pi2z3bL/g2XbJa7mdJnQwGb5ayubx9000bLN5vpNgTJuVrU7eLX1fqeZVOoxNlXum5eEGGdOof9lMXuFT3tH8qV+hvBrHYLVVdDBzAulJUhEKdfQR93+LGlUx4HgL1mNtMsaJvNqvgCcVnrtR1bY9C2NqahKZtAYgGMIUJGLW/WuAERfonZJvBXVOeyj9tqDPCRQihdRY8H2rZyyQt1YOsO9m/SuKXjST8/gCTHABjrLPssZwPJ/uEcu312LmfC8RQJ/AUCaypepzGKzSWrr7P3IrhjWLqK0Qv8run73AmvtCvc+I3D4Z+vFo7+3zv7B0FpKPsQ/Y7WNYIsPnh/4XZlbLD9OQieqh1F+j0fyYNdJ33s0oGOGX0G+gJypaBsohm3ta0Y+convB2k2i5IhIbUc2rCW2ac5LHANy5H96mx35xjXmoM6G5HgZie7B8+Wbpi+m5HT2kgCIIgCIIgDpqEhHfLLl7IkxOz5Wt2NqleRoIcNnadPcoBduORKMnnDKfsLp/25mPN3tWHURbPzxim0vkjPm8RXL3j33aQemNWMtwW6rO7sbagz+4uVoXP2k3Y2fUlw6qYPHzMZDd+ZJ+R40nzy2u8TfNHTPbGDfu0qV4UoXUTiasv169q31mw1VAHFydn7Bqta8IePq6d4+Nnz9k2LA4UOBs9v2TXeEcy5VY3rY6cs2fLmVhEYLv9OAw6AAPHZU273qJhKxH0hiDXwe75M7accX/cl7PE07t1rItkcofdq1+WQZ3htEvSeXk+zsvUZMaWz3Iqfc4urz3j8s0nFjUUgJj9PC2Jyogv/+Bj6POA/COGVP/YvmdvKr25+ljGbcHNm/et8Sc+4dUVpnWU87BxIZw3HglcNy1NHjI5Zt+w81dI9wJjfTRUMNMBC0vO6qCB30HE21joBiulh9mSvY6xBR2YBkzQbhUyAWh1p+hL5AaJdR2tZstnaGK/j8hkHosD4kay/bghcHJ2vSc3PpVn6LisqSbp7XrFjY/7c6OU9Me4m7PdE+1R2HySY+DsMXsYM2xvP/MRR1BgrHPeJJXG9v0b2cbF88SFuOHYq5i9flf7n6uPuf3rweiKvcuS8ab5h+5jlx3z3OKJMqibN+x9I4TEJ7zace6yafVGBNzAVdCYLTfWHbW73YZn/NVH+VmsGnXxslnWCeQVO2ktJ/DOeF1/3kgYq4G67vzFasCApmfa7VVFc7cyn/VsYDtX3IQFPIl4kvtOUuUEvM7X+OwXx6wKD6o/DGXLXLN3kgaBGbsb7QR+rk5kAmD5yEqtJJwzew62ZZ+lMOxeVCPKsfkktcoFQu1C+JCOny3fLBgHWhjdzUp05G1hrLgsYq+KISBuGVN/BRYjmqvAJlGqngpifSZKrkcpicUElZDLFSlLP0rYfUYklimxWuyM1otF2WO1+G0VBJDxOV6ta/aqNojFYKtQvBkmgITnQ2Al+nHU7KMMnW1wTEjHomtsqSbtrsVNBTeuKKxD0eBAOyz4uWbfIe3hb0LQbXEekgY3rlgl900rIYfCjSzWV6ybxur3LBzX9UQdMLf70l8XfqjeZxslCNE5jmq7225SAPLwgomE16t0LvtffweWrHJ68N3kAj4frq8dxN7Ik3rjz0Bo30KKW9c+3zOfR7qJG2vcwG5cM3HEyGTeCyt9bogD6D53/J76PMDHysQNBHBDkCkB+kDH8zK2rnXhMCr1eWiM8I/lJcDs1I+v7X1IiQG+MVleu/LEif6E+AduF3ZsWKzMv5sqTr9pTax8OrJp9DmcPY9ClGByx3c6yXVWN/fZTXDukeu1vZUnVjfwWZZ/G8ecU/yIHVRNgc/65IJB/FEGud0w/lEGa1U85ryXajvHdd66L9yZ0a307vNi8pmySjaLwZ4bbFbvhW1gajVbUpG2kx2wTXcLtkD7Uj0vFLOBUeOyWNnFVg6xs9VzdmmtApqVZz6ogfdVybMieRuPC+HIZ6nGn40Oe1Z1HOrMaGTsdQJWdwvFZAzzDPkI3wGru3nPGftxxoAmYvVd76DIXY3rsznzpktjAFeg+ZjC02A+drrvsYpOePWSsqCuAAYanoFLeOJmOVefoxB9qTqwueXFC5odKESSqTpdBGbePn0MwpHU92By9loHcGmYUFb3loLuj+roBbzGFNXM9o05KRzAUQbuJGYLN+JmO2FHOkkqd7Od82gCduOJPl4haQ3+2mZLHGuxWZ8Cf0FtY8vey+yKzR4/HGxgatPYpj6Qg7rizLHV96rooIzYwJhxueMo0TTvXcGJ7N9xoSDmlw0bMJMDMW45hy1xI6p1HTxeMs2X9OqYFXmUzMH24oVOeIbKIcX2uRkKwsez9at6QaDQJDspBgCsYwHVURPVNuML+wI8XioWiXb6xsINg2kqJDrh1YFIKAO5c3F+aZzkCpxu1udEBqbzpjUnYECskvr6bv06IDiT+l6IQ9w7tlGRyULMstR53DLnRkNRs9rYpzLoFdWCiWIQYkYInAS/ex9BJLswEIzaCHDjoj7bLSdlLbGEzaqkFznEnwtzLlfI4Xi6xV4gfBuuXow8+RoCkQCZzMU6Az5WXA7G+6SPkrgHztuFHFv0uPwifOIrxnM1Jtlnqnug753IgVndHWoSLZJCtWAiFhiChwK9usuvG/CccUVHDNDwfAa2yzXG7cPkT0zAzHgjVqAxmdq5UvqRho5ApJPiUYMVB2w/VzMA56yngX4KA75SNb9Uyaed1OcAn6HxQVnNil13J1azseZ1jdI7STOPL2mvQotiVqLNjSRiC8Ws7OEr0eYGFPi7GRfQJSDZFfpKSnbFBGjUZFeArYx0HLPpuOExB/AmtMXqtiS7IlD+AZJdhX6U3i3DceMjEU/qI7R8j28cE726y617iCM5MNl1HT1zoVd3B1yJtnDEAOtoZ71r326XmvyNu+Bm7fxUOQ8y3nTsIEQnvFo5sU7ju06fJcuHOn8lOjHmvKC5a9H1CBdzxmyopF6dfWzOYvdmcrHvNI4jhCf/a3YKk13H8xiHwJx/hdvP5rxStjPaEdhbe77Vjok+B4Y9I7E01pGLvV6FHo4x4rIfcPRl1Kdn+H1LjzG3ieTjK3mOIPBBy5NAm4WVbsDq7hBnrK2jcBG7gwK4ujvgOeMgQCLslE0/uiyTDSRiJl88hjtmDfg4WbOLxn0HnMRx12/n3dvNu+zqt3uy6rwbEtyF2Lgr0Nzp6L6ztfu3M9N1p7DvrvhB8dmGC9+d4j2Bdx9HCQbssvjdv7674Y0sTR1pe3XJ6LvTPBHjJxH9De4gH9Jetb/2uetcy76fT2nowhnTRojLpk6HPQbp2ecvedB2g/gWtP+Q+ND1W+UB412kwvLL7Y5llpzo54aQcTobIG6ljFHj9r2kS1/d8qXbTgxhOvLJ0mVbcqs7Gi1YKyBBY20q1fGZDn6z3az+PJdOTQc35ATGW5WmgmGChBgHDHQlgy3sPHddAQGiau8AQQHIG6cX04aUYNIJ6Mu43wa6L9vJNV06gHaA9CO016asPQO1C6dvefHZq/g8b0Jp4lVPHwhKxPYNW99tU4afDxOX4W+39Ahjc2eFRu6i7unwHzM4c/1U//cnMmEDegk88cMJtI1SPgl/18g543qt/u+s1MiWM66hABtIs7XUcTEXvhjAgWOIZZ+O+FCAYP9wxghg547fSEp4mwpsF4dzQKU2ipBbNTifUUBHb5fZYuEMVjCpdZW8jtYlqy/YdLdTlrLGKkl17FLBy2ensNg6NgHZX/LYa4isHXYAgwBW8jlVpx+3Chp4fPbqs/cIfHqBpaGjYBvwBeiB8MnrNIGh43KI/Xh1avwlp2ljOPUqZFRtackbEpNlyRXz/GOWw68CfCS/jt36EfpQbXHqRsucMVaghPeja4w1/VJ+DE6OARyf/eS1gX7+0d1Ot00k3rTW8UQB10FiQfWUA3PDl0Q+563MfUDi2Y3IXwqqD2ZfP7tbv9FG3jzm+itD6tl0pQ+zyHqc+tTIZ1Si/SGo+uQPdIPOrcS+k7oJd/puO6geRdT0LYG8i3Xcp0o06bJXOl+bG2k7HTF26LiM1qeo7XXEs/JN4JMKFJVO90jGbmqdeseRNjzJ6badZLCxWcrpH1dv0TO0t+ZP3Y75LGdvDODInAfxS+eNbOMhfJJn6NxiGnTln5wjkfXWrwmCIAiCIAji4Eh/LBlBEARBEARB3AIo4SUIgiAIgiAOGkp4CYIgCIIgiIOGEl6CIAiCIAjioKGElyAIgiAIgjhoKOElCIIgCIIgDhpKeAmCIAiCIIiDhhJegiAIgiAI4qChhJcgCIIgCII4aCjhJQiCIAiCIA4aSngJgiAIgiCIg4YSXoIgCIIgCOKg6Zfwrk/Z0dGRVY4vtvWHbrYXx63rRDld11/Izpqdtuo75e8eBuvTZtvapZxuU9iyi+OmjMcswHR6gNUZZgNt/ZaWFbHX4wveAh/pbUxme8GOrfp4CTK21Db2IDFejSJrH5L7pAa7vmh7gX476nGNG2jJHvD2fQzB5HMVV/waIy4TxIDsktjsljO2E5fjZbFb1d+0We0W6PdBmS35r+djs5zh9dRlgQt6q1gt8LbBsjftXC1Q+VSZLXP2fk1qnZvlboZ8X5cCSk221xH02m13s51brUP7ZGq8un3xI7VPKrrsPXNcliD90lGPry+skrFjbocNBIytuiB2MEZcJoiBSUp4YVC1nB06DRIFzHVth4NBJVsAAfLYDguDg3uwuy0ove59UIIDaqOTi/S/ANZpDaZwsMUSAbeNOO2/L07/8dhrchvTgf1l2Z1TlprUNvYgNV6NIWsfkvtEANua2VYwrCSS61b3UUfC68fYe7ZYCPRy68cQ3ZaGvGPEZYIYgfiEFzgH6gDaqZpB0wQI3HEKBCuOcFi0Pl87bhG3JeH1DWr684wd0l0nSAgbdZpAjw9meQZoiFsWifGfZj+ntjEdtywVTt9Kb2MyyfFqBFl7kdongoHbApJIJUsWf3IldD05jDHE2HOzj32615/vfyMJopPohFcnAs7A5HIsE1RdfqMca5gBxB0AWoDAZkrZWT2cWeviUNywerPRwRAUXEx///Mfq38jl25T6wywDW0TmVbDAn4P970R9Brwe+ggmdzGdJLj1Qiy9iK1TzjDt0Po3JZTy5YsQ0Q8z0ZEnbp/QBnSbpz2MUZcJohxiEx4/Q6ug6coDYfuDGq5EwgvIcHKfAcvBQKA1oOjIFFJ6XW4QM/xydnq44DAmtsGvIHayGTJ5ZXDtoscevcmHZa+gVypbeyBK3HSWIO7kSu5jcmkx6vhZe1Hap9AHeWwjVR6J7y6PwrEZCchY4jtf62S2t5I3GPECHGZIEYi8ikNG/bpRr66d2ciX2jkHZ7T8/oLCPPLFePOxdjNOZsemScHVHffTs+ZuHK2fM3Omj9dhK62CER7pkw1hwcKMTkApW5LTsTd0bUeeI2MBxe7Th619gOumye1nLMl4zGwLSPv4yext/dO7rB71Ysb9mlTvejF9vNH+WJ2l03lK0N1x/4Ju6r/abH5VPfBPdY2c3EHu7GLXGyMMbJ2lcY/miS3MZktM1W2apRPtDjBa0xtYzrp8Wp4WfuQ3idGRzOGXHprWL+q+2PxiM2rd4bAN4aIJycY/+MJpR3PN0uu9QHgMetFJcSMPX6Iyekhc1wmiNHgjheBmg02ZnrN1YPOVSf3qumQKwxmZcexIgDaNJRcepUjcpXCXNcuJWT3rn6h/Q/63SlUwGpDBFpO68ds+5stV+1VGiV/o32Wnvlv6n9nEFb9lr0C01ydbesnuY3JmN+2q2yseK7aq0KpbUxH/VZ8vBpe1j6k94n5jmi7bTe6DNA47UspK54jrUD6xhDz+bByNemOU6DPnf28L3ZOEP3o/Ycn4OoBHxx4An3J5tO7HTPXCbsjp4stPn4e6IF/fMb7pF7ZmS2foSsC63f1vHyxYpeDLBmsmamS61C+7M3ViXiWYs7nRW7Z+zdSd4vnZ63Vr4r5o3r1+yMzXTphDx/XVnF1gjz/1F4NKYK1OrtgPHaz67O50x4N8hmX0szrlXduFNO7bivvDVydrVfRL+dT5q0yuY3pWCue3F92u2t2NlerQh2ktrEH8fGqZgRZ+xDfJ1fsxLVzwf11n59bblZ3nw+0O8jxjiEmTg63a4kAVneXz7BRZQ/iMkEMRI+Et50EXCuv1lvCTeQ2otpd47NFHojN0YCb8+kAD3TncquBgA9cr9FIBJLPR4Nku7zKd3VQWbDYKueXYJsMlA2fukv4YJbtQexmG08m01hRAdLeApucvWZKpKqv0WvK0E4A1KTCbAejtBIdnjhoM8etvC+tpOxaTSyM7jGS25iMfSyg8mc1O9x+5tMdN6ltTCclXkmGl7UPkX1itb3rGFXOGJIRb0JXgoAxZPueyXw38RhBJkImA2PGZYIYFB7UIrC39KqCbUF5t4TbW0Bm+yfHtqsLIH/n1tkIWzjoMYD+5N9WQ2ygo2D6g31timi3+u08smL1tOVBtoOtLW9ZMJvEt73TML6hCqaDtn6S25gMtu2N2Ky1VS5JbWM6iK0GxqvhZe1Dep+g7zUpFJsgWt+dcblN6nXpAJvqqnOkYxYWWoYwvx8qLhPEWESu8NpbeNyJwGqHQd9IA2/40DNxcV17y96aZb55X2CVF27NLNgKkfsQmTx8zECXZaXqf7gahBTsOMjk7Br5LrcJtQI1e8xyLIpM4D6+3oau/61Rq3Tgph1ri1sdC2hZuV41xW9YicM6HqG2oFtVqhU6czNdchuTsY8kVSueeiUZoFYOwc10qW1MJz1eDS9rH9L7xACPHzXQ/tDxnTGAY4rreFVWbtcYold3eVwIWfweKi4TxGhwo45CzwKds1uz2mCtfAWsEpgZZu6VBLgCEvLb4Pv9l8TCiJyNB5N9pcHRvxlQ/Z/vd81qjFOnqF0GtDG3XgN+D/e91Db2IOD39MobFCq5jekkx6sRZO1Fap+E2E/2GNImZaV22NXd2DHE6DV3nAxC91n/8SR/XCaIcYhOeL2OpANvIzi63geUGUBiA5VEy1IwyNsAOTO2v8SgYHSTKYES5E7KarrbD3TeMGZfG/Pr1S2LxD2AprYxHc9g7owR6W1MJjVejSFrL1L7RKigq53i0hJx2SbanzImdH6ALUTEJ92mzDEthGzxqVBcJogxiE94OcaRG8FGOwcWdE1ARpPIzmtTAYEq2vGhvFhQFZ9nDgJAB2iAEZ8HR3ePvvsABhvXb1c2EiSrT889gbJaNuAbxKBc9ufG/jPrFfa/7VhGFsyOk9uYjpkQNPwVyoJ1Zmobe5AWrzgjyNqHHH3S1AP8TezSXMQmaEMk4ZIeY4gvTorPi8hv7DO9z2D8K9v3BDEUSQlv0xlaxeXEcABxlYyeBYO1r6ADnhWwsJI54eV4ZW7pByY1WMmclCmS+rLLbgrJyfHp1GlynjaiNtMTmJy1i1tHyW1Mxmd3bt9IbWM6ifGKM7ysfUjvE5/95LV1T3+Agtdrri/hg5DeY4gvThZIeI3MoePTOHGZIIYmMeGVYMEgZGDFB5H8jtU7WNXg8uZPdg2OAIQq1z3I5U9ymsTWjbWrpB4hSN1Bgw3WxsIyYxOtoM5MbWMPkAE9KAlJbmM6qfFqDFl7kbNPith6V4JlF0xuE4/Lx448Y4gjTpbwTdCHQX1eMWZcJojhOBL/4QZOEARBEARBEAdJ77+0RhAEQRAEQRD7DCW8BEEQBEEQxEFDCS9BEARBEARx0FDCSxAEQRAEQRw0lPASBEEQBEEQBw0lvARBEARBEMRBQwkvQRAEQRAEcdBQwksQBEEQBEEcNJTwEgRBEARBEAcNJbwEQRAEQRDEQUMJL0EQBEEQBHHQUMJLEARBEARBHDSU8BIEQRAEQRAHDSW8BEEQBEEQxEFDCS9BEARBEARx0FDCSxAEQRAEQRw0lPASBEEQBEEQBw0lvARBEARBEMRBQwkvQRAEQRAEcdBQwksQBEEQBEEcMIz9f8zWstTS1wOnAAAAAElFTkSuQmCC;fontSize=14;" vertex="1" parent="1">
          <mxGeometry x="842" y="876" width="290.78" height="54" as="geometry" />
        </mxCell>
        <mxCell id="K9o9ax7KUyAUVBjDeXE--170" style="edgeStyle=orthogonalEdgeStyle;rounded=0;orthogonalLoop=1;jettySize=auto;html=1;exitX=0;exitY=0;exitDx=35.49999999999999;exitDy=0;exitPerimeter=0;entryX=0.5;entryY=1;entryDx=0;entryDy=0;fontSize=14;" edge="1" parent="1" source="K9o9ax7KUyAUVBjDeXE--171" target="K9o9ax7KUyAUVBjDeXE--172">
          <mxGeometry relative="1" as="geometry" />
        </mxCell>
        <mxCell id="K9o9ax7KUyAUVBjDeXE--171" value="检测流量报文" style="shape=note;whiteSpace=wrap;html=1;backgroundOutline=1;darkOpacity=0.05;fontSize=14;fillColor=#f8cecc;strokeColor=#b85450;" vertex="1" parent="1">
          <mxGeometry x="957.5" y="987.14" width="101" height="104" as="geometry" />
        </mxCell>
        <mxCell id="K9o9ax7KUyAUVBjDeXE--172" value="16进制字节码" style="text;html=1;align=center;verticalAlign=middle;whiteSpace=wrap;rounded=0;fontSize=14;" vertex="1" parent="1">
          <mxGeometry x="953" y="924" width="94" height="30" as="geometry" />
        </mxCell>
        <mxCell id="K9o9ax7KUyAUVBjDeXE--173" value="" style="group" vertex="1" connectable="0" parent="1">
          <mxGeometry x="836" y="706" width="375" height="166" as="geometry" />
        </mxCell>
        <mxCell id="K9o9ax7KUyAUVBjDeXE--174" value="" style="rounded=0;whiteSpace=wrap;html=1;fillColor=#d5e8d4;strokeColor=#82b366;fontSize=14;" vertex="1" parent="K9o9ax7KUyAUVBjDeXE--173">
          <mxGeometry y="21.363765012469322" width="375" height="105.3118374888523" as="geometry" />
        </mxCell>
        <mxCell id="K9o9ax7KUyAUVBjDeXE--175" value="Token Embedding" style="text;html=1;align=center;verticalAlign=middle;whiteSpace=wrap;rounded=0;fontSize=14;" vertex="1" parent="K9o9ax7KUyAUVBjDeXE--173">
          <mxGeometry x="10" y="33.331019272566174" width="50" height="35.90176278029056" as="geometry" />
        </mxCell>
        <mxCell id="K9o9ax7KUyAUVBjDeXE--176" value="Position Embedding" style="text;html=1;align=center;verticalAlign=middle;whiteSpace=wrap;rounded=0;fontSize=14;" vertex="1" parent="K9o9ax7KUyAUVBjDeXE--173">
          <mxGeometry x="10" y="78.80658546093423" width="50" height="35.90176278029056" as="geometry" />
        </mxCell>
        <mxCell id="K9o9ax7KUyAUVBjDeXE--177" style="edgeStyle=orthogonalEdgeStyle;rounded=0;orthogonalLoop=1;jettySize=auto;html=1;fontSize=14;" edge="1" parent="K9o9ax7KUyAUVBjDeXE--173" source="K9o9ax7KUyAUVBjDeXE--178">
          <mxGeometry relative="1" as="geometry">
            <mxPoint x="95.83333333333333" y="0.443231639262927" as="targetPoint" />
          </mxGeometry>
        </mxCell>
        <mxCell id="K9o9ax7KUyAUVBjDeXE--178" value="[CLS]" style="rounded=1;whiteSpace=wrap;html=1;fillColor=#e1d5e7;strokeColor=#9673a6;fontSize=14;" vertex="1" parent="K9o9ax7KUyAUVBjDeXE--173">
          <mxGeometry x="71.66666666666667" y="35.72447012458555" width="48.33333333333333" height="25.131233946203384" as="geometry" />
        </mxCell>
        <mxCell id="K9o9ax7KUyAUVBjDeXE--179" style="edgeStyle=orthogonalEdgeStyle;rounded=0;orthogonalLoop=1;jettySize=auto;html=1;exitX=0.5;exitY=0;exitDx=0;exitDy=0;fontSize=14;" edge="1" parent="K9o9ax7KUyAUVBjDeXE--173" source="K9o9ax7KUyAUVBjDeXE--180">
          <mxGeometry relative="1" as="geometry">
            <mxPoint x="155.5864197530864" as="targetPoint" />
          </mxGeometry>
        </mxCell>
        <mxCell id="K9o9ax7KUyAUVBjDeXE--180" value="3c18" style="rounded=1;whiteSpace=wrap;html=1;fillColor=#e1d5e7;strokeColor=#9673a6;fontSize=14;" vertex="1" parent="K9o9ax7KUyAUVBjDeXE--173">
          <mxGeometry x="131.66666666666669" y="35.72447012458555" width="48.33333333333333" height="25.131233946203384" as="geometry" />
        </mxCell>
        <mxCell id="K9o9ax7KUyAUVBjDeXE--181" style="edgeStyle=orthogonalEdgeStyle;rounded=0;orthogonalLoop=1;jettySize=auto;html=1;exitX=0.5;exitY=0;exitDx=0;exitDy=0;fontSize=14;" edge="1" parent="K9o9ax7KUyAUVBjDeXE--173" source="K9o9ax7KUyAUVBjDeXE--182">
          <mxGeometry relative="1" as="geometry">
            <mxPoint x="250.64814814814798" y="3.5458531141028717" as="targetPoint" />
          </mxGeometry>
        </mxCell>
        <mxCell id="K9o9ax7KUyAUVBjDeXE--182" value="f873" style="rounded=1;whiteSpace=wrap;html=1;fillColor=#e1d5e7;strokeColor=#9673a6;fontSize=14;" vertex="1" parent="K9o9ax7KUyAUVBjDeXE--173">
          <mxGeometry x="226.66666666666669" y="35.72447012458555" width="48.33333333333333" height="25.131233946203384" as="geometry" />
        </mxCell>
        <mxCell id="K9o9ax7KUyAUVBjDeXE--183" style="edgeStyle=orthogonalEdgeStyle;rounded=0;orthogonalLoop=1;jettySize=auto;html=1;exitX=0.5;exitY=0;exitDx=0;exitDy=0;fontSize=14;" edge="1" parent="K9o9ax7KUyAUVBjDeXE--173" source="K9o9ax7KUyAUVBjDeXE--184">
          <mxGeometry relative="1" as="geometry">
            <mxPoint x="338.30246913580237" as="targetPoint" />
          </mxGeometry>
        </mxCell>
        <mxCell id="K9o9ax7KUyAUVBjDeXE--184" value="[PAD]" style="rounded=1;whiteSpace=wrap;html=1;fillColor=#e1d5e7;strokeColor=#9673a6;fontSize=14;" vertex="1" parent="K9o9ax7KUyAUVBjDeXE--173">
          <mxGeometry x="314.16666666666663" y="35.72447012458555" width="48.33333333333333" height="25.131233946203384" as="geometry" />
        </mxCell>
        <mxCell id="K9o9ax7KUyAUVBjDeXE--185" value="1" style="rounded=1;whiteSpace=wrap;html=1;fillColor=#b0e3e6;strokeColor=#0e8088;fontSize=14;" vertex="1" parent="K9o9ax7KUyAUVBjDeXE--173">
          <mxGeometry x="71.66666666666667" y="87.18366344300199" width="48.33333333333333" height="25.131233946203384" as="geometry" />
        </mxCell>
        <mxCell id="K9o9ax7KUyAUVBjDeXE--186" value="2" style="rounded=1;whiteSpace=wrap;html=1;fillColor=#b0e3e6;strokeColor=#0e8088;fontSize=14;" vertex="1" parent="K9o9ax7KUyAUVBjDeXE--173">
          <mxGeometry x="131.66666666666669" y="87.18366344300199" width="48.33333333333333" height="25.131233946203384" as="geometry" />
        </mxCell>
        <mxCell id="K9o9ax7KUyAUVBjDeXE--187" value="K" style="rounded=1;whiteSpace=wrap;html=1;fillColor=#b0e3e6;strokeColor=#0e8088;fontSize=14;" vertex="1" parent="K9o9ax7KUyAUVBjDeXE--173">
          <mxGeometry x="226.66666666666669" y="87.18366344300199" width="48.33333333333333" height="25.131233946203384" as="geometry" />
        </mxCell>
        <mxCell id="K9o9ax7KUyAUVBjDeXE--188" value="M" style="rounded=1;whiteSpace=wrap;html=1;fillColor=#b0e3e6;strokeColor=#0e8088;fontSize=14;" vertex="1" parent="K9o9ax7KUyAUVBjDeXE--173">
          <mxGeometry x="314.16666666666663" y="87.18366344300199" width="48.33333333333333" height="25.131233946203384" as="geometry" />
        </mxCell>
        <mxCell id="K9o9ax7KUyAUVBjDeXE--189" value="..." style="text;html=1;align=center;verticalAlign=middle;whiteSpace=wrap;rounded=0;fontSize=14;" vertex="1" parent="K9o9ax7KUyAUVBjDeXE--173">
          <mxGeometry x="180.83333333333334" y="30.339205707541968" width="50" height="35.90176278029056" as="geometry" />
        </mxCell>
        <mxCell id="K9o9ax7KUyAUVBjDeXE--190" value="..." style="text;html=1;align=center;verticalAlign=middle;whiteSpace=wrap;rounded=0;fontSize=14;" vertex="1" parent="K9o9ax7KUyAUVBjDeXE--173">
          <mxGeometry x="180" y="78.80658546093423" width="50" height="35.90176278029056" as="geometry" />
        </mxCell>
        <mxCell id="K9o9ax7KUyAUVBjDeXE--191" value="..." style="text;html=1;align=center;verticalAlign=middle;whiteSpace=wrap;rounded=0;fontSize=14;" vertex="1" parent="K9o9ax7KUyAUVBjDeXE--173">
          <mxGeometry x="269.1666666666666" y="28.54411756852743" width="50" height="35.90176278029056" as="geometry" />
        </mxCell>
        <mxCell id="K9o9ax7KUyAUVBjDeXE--192" value="..." style="text;html=1;align=center;verticalAlign=middle;whiteSpace=wrap;rounded=0;fontSize=14;" vertex="1" parent="K9o9ax7KUyAUVBjDeXE--173">
          <mxGeometry x="269.1666666666666" y="77.90904139142695" width="50" height="35.90176278029056" as="geometry" />
        </mxCell>
        <mxCell id="K9o9ax7KUyAUVBjDeXE--193" value="+" style="text;html=1;align=center;verticalAlign=middle;whiteSpace=wrap;rounded=0;fontSize=14;" vertex="1" parent="K9o9ax7KUyAUVBjDeXE--173">
          <mxGeometry x="70.83333333333331" y="57.265527792759876" width="50" height="35.90176278029056" as="geometry" />
        </mxCell>
        <mxCell id="K9o9ax7KUyAUVBjDeXE--194" value="+" style="text;html=1;align=center;verticalAlign=middle;whiteSpace=wrap;rounded=0;fontSize=14;" vertex="1" parent="K9o9ax7KUyAUVBjDeXE--173">
          <mxGeometry x="130.83333333333334" y="57.265527792759876" width="50" height="35.90176278029056" as="geometry" />
        </mxCell>
        <mxCell id="K9o9ax7KUyAUVBjDeXE--195" value="+" style="text;html=1;align=center;verticalAlign=middle;whiteSpace=wrap;rounded=0;fontSize=14;" vertex="1" parent="K9o9ax7KUyAUVBjDeXE--173">
          <mxGeometry x="225.83333333333334" y="57.265527792759876" width="50" height="35.90176278029056" as="geometry" />
        </mxCell>
        <mxCell id="K9o9ax7KUyAUVBjDeXE--196" value="+" style="text;html=1;align=center;verticalAlign=middle;whiteSpace=wrap;rounded=0;fontSize=14;" vertex="1" parent="K9o9ax7KUyAUVBjDeXE--173">
          <mxGeometry x="312.5" y="57.265527792759876" width="50" height="35.90176278029056" as="geometry" />
        </mxCell>
        <mxCell id="K9o9ax7KUyAUVBjDeXE--197" style="edgeStyle=orthogonalEdgeStyle;rounded=0;orthogonalLoop=1;jettySize=auto;html=1;fontSize=14;" edge="1" parent="K9o9ax7KUyAUVBjDeXE--173">
          <mxGeometry relative="1" as="geometry">
            <mxPoint x="132.08333333333334" y="126.67902171682475" as="targetPoint" />
            <mxPoint x="132.1428571428574" y="166" as="sourcePoint" />
          </mxGeometry>
        </mxCell>
        <mxCell id="K9o9ax7KUyAUVBjDeXE--213" style="edgeStyle=orthogonalEdgeStyle;rounded=0;orthogonalLoop=1;jettySize=auto;html=1;exitX=0.5;exitY=1;exitDx=0;exitDy=0;" edge="1" parent="1" source="K9o9ax7KUyAUVBjDeXE--198">
          <mxGeometry relative="1" as="geometry">
            <mxPoint x="692.1176470588236" y="600.4705882352941" as="targetPoint" />
          </mxGeometry>
        </mxCell>
        <mxCell id="K9o9ax7KUyAUVBjDeXE--198" value="流量标签" style="text;html=1;align=center;verticalAlign=middle;whiteSpace=wrap;rounded=0;fillColor=#b0e3e6;strokeColor=#0e8088;fontSize=14;" vertex="1" parent="1">
          <mxGeometry x="641" y="553" width="102" height="30" as="geometry" />
        </mxCell>
        <mxCell id="K9o9ax7KUyAUVBjDeXE--217" style="edgeStyle=orthogonalEdgeStyle;rounded=0;orthogonalLoop=1;jettySize=auto;html=1;exitX=0.5;exitY=1;exitDx=0;exitDy=0;exitPerimeter=0;" edge="1" parent="1" source="K9o9ax7KUyAUVBjDeXE--214">
          <mxGeometry relative="1" as="geometry">
            <mxPoint x="236.66666666666674" y="258" as="targetPoint" />
          </mxGeometry>
        </mxCell>
        <mxCell id="K9o9ax7KUyAUVBjDeXE--214" value="大量无标签&lt;div&gt;训练流量&lt;/div&gt;" style="shape=note;whiteSpace=wrap;html=1;backgroundOutline=1;darkOpacity=0.05;fontSize=14;fillColor=#fad7ac;strokeColor=#b46504;" vertex="1" parent="1">
          <mxGeometry x="148" y="90" width="83" height="95" as="geometry" />
        </mxCell>
        <mxCell id="K9o9ax7KUyAUVBjDeXE--226" style="edgeStyle=orthogonalEdgeStyle;rounded=0;orthogonalLoop=1;jettySize=auto;html=1;fontSize=14;" edge="1" parent="1" source="K9o9ax7KUyAUVBjDeXE--218" target="K9o9ax7KUyAUVBjDeXE--219">
          <mxGeometry relative="1" as="geometry" />
        </mxCell>
        <mxCell id="K9o9ax7KUyAUVBjDeXE--218" value="设备流量日志" style="rounded=0;whiteSpace=wrap;html=1;fontSize=14;fillColor=#dae8fc;strokeColor=#6c8ebf;" vertex="1" parent="1">
          <mxGeometry x="995" y="117" width="120" height="60" as="geometry" />
        </mxCell>
        <mxCell id="K9o9ax7KUyAUVBjDeXE--227" style="edgeStyle=orthogonalEdgeStyle;rounded=0;orthogonalLoop=1;jettySize=auto;html=1;exitX=1;exitY=0.5;exitDx=0;exitDy=0;entryX=0;entryY=0.5;entryDx=0;entryDy=0;fontSize=14;" edge="1" parent="1" source="K9o9ax7KUyAUVBjDeXE--219" target="K9o9ax7KUyAUVBjDeXE--220">
          <mxGeometry relative="1" as="geometry" />
        </mxCell>
        <mxCell id="K9o9ax7KUyAUVBjDeXE--219" value="Transformer模型异常识别" style="rounded=0;whiteSpace=wrap;html=1;fontSize=14;fillColor=#e1d5e7;strokeColor=#9673a6;" vertex="1" parent="1">
          <mxGeometry x="1172" y="117" width="120" height="60" as="geometry" />
        </mxCell>
        <mxCell id="K9o9ax7KUyAUVBjDeXE--228" style="edgeStyle=orthogonalEdgeStyle;rounded=0;orthogonalLoop=1;jettySize=auto;html=1;exitX=1;exitY=0.5;exitDx=0;exitDy=0;entryX=0;entryY=0.5;entryDx=0;entryDy=0;fontSize=14;" edge="1" parent="1" source="K9o9ax7KUyAUVBjDeXE--220" target="K9o9ax7KUyAUVBjDeXE--221">
          <mxGeometry relative="1" as="geometry" />
        </mxCell>
        <mxCell id="K9o9ax7KUyAUVBjDeXE--220" value="攻击类别" style="rounded=0;whiteSpace=wrap;html=1;fontSize=14;fillColor=#fff2cc;strokeColor=#d6b656;" vertex="1" parent="1">
          <mxGeometry x="1349" y="117" width="120" height="60" as="geometry" />
        </mxCell>
        <mxCell id="K9o9ax7KUyAUVBjDeXE--221" value="动态访问控制规则生成" style="rounded=0;whiteSpace=wrap;html=1;fontSize=14;fillColor=#ffe6cc;strokeColor=#d79b00;" vertex="1" parent="1">
          <mxGeometry x="1526" y="117" width="120" height="60" as="geometry" />
        </mxCell>
        <mxCell id="K9o9ax7KUyAUVBjDeXE--231" style="edgeStyle=orthogonalEdgeStyle;rounded=0;orthogonalLoop=1;jettySize=auto;html=1;entryX=0;entryY=0.5;entryDx=0;entryDy=0;fontSize=14;" edge="1" parent="1" source="K9o9ax7KUyAUVBjDeXE--222" target="K9o9ax7KUyAUVBjDeXE--223">
          <mxGeometry relative="1" as="geometry" />
        </mxCell>
        <mxCell id="K9o9ax7KUyAUVBjDeXE--222" value="数据分级策略" style="rounded=0;whiteSpace=wrap;html=1;fontSize=14;fillColor=#b1ddf0;strokeColor=#10739e;" vertex="1" parent="1">
          <mxGeometry x="995" y="219" width="120" height="60" as="geometry" />
        </mxCell>
        <mxCell id="K9o9ax7KUyAUVBjDeXE--223" value="初始访问控制规则" style="shape=document;whiteSpace=wrap;html=1;boundedLbl=1;fontSize=14;fillColor=#b0e3e6;strokeColor=#0e8088;" vertex="1" parent="1">
          <mxGeometry x="1172" y="209" width="120" height="80" as="geometry" />
        </mxCell>
        <mxCell id="K9o9ax7KUyAUVBjDeXE--224" value="ACL控制实施（IPTables）" style="shape=process;whiteSpace=wrap;html=1;backgroundOutline=1;fontSize=14;fillColor=#f8cecc;strokeColor=#b85450;" vertex="1" parent="1">
          <mxGeometry x="1345.5" y="315" width="120" height="60" as="geometry" />
        </mxCell>
        <mxCell id="K9o9ax7KUyAUVBjDeXE--230" style="edgeStyle=orthogonalEdgeStyle;rounded=0;orthogonalLoop=1;jettySize=auto;html=1;entryX=0.5;entryY=0;entryDx=0;entryDy=0;fontSize=14;" edge="1" parent="1" source="K9o9ax7KUyAUVBjDeXE--225" target="K9o9ax7KUyAUVBjDeXE--224">
          <mxGeometry relative="1" as="geometry" />
        </mxCell>
        <mxCell id="K9o9ax7KUyAUVBjDeXE--225" value="访问控制规则集" style="shape=cylinder3;whiteSpace=wrap;html=1;boundedLbl=1;backgroundOutline=1;size=15;fontSize=14;fillColor=#d5e8d4;strokeColor=#82b366;" vertex="1" parent="1">
          <mxGeometry x="1366" y="197" width="79" height="79" as="geometry" />
        </mxCell>
        <mxCell id="K9o9ax7KUyAUVBjDeXE--229" style="edgeStyle=orthogonalEdgeStyle;rounded=0;orthogonalLoop=1;jettySize=auto;html=1;exitX=0.5;exitY=1;exitDx=0;exitDy=0;entryX=1;entryY=0.5;entryDx=0;entryDy=0;entryPerimeter=0;fontSize=14;" edge="1" parent="1" source="K9o9ax7KUyAUVBjDeXE--221" target="K9o9ax7KUyAUVBjDeXE--225">
          <mxGeometry relative="1" as="geometry" />
        </mxCell>
        <mxCell id="K9o9ax7KUyAUVBjDeXE--232" style="edgeStyle=orthogonalEdgeStyle;rounded=0;orthogonalLoop=1;jettySize=auto;html=1;entryX=0;entryY=0;entryDx=0;entryDy=52.5;entryPerimeter=0;fontSize=14;" edge="1" parent="1" source="K9o9ax7KUyAUVBjDeXE--223" target="K9o9ax7KUyAUVBjDeXE--225">
          <mxGeometry relative="1" as="geometry" />
        </mxCell>
      </root>
    </mxGraphModel>
  </diagram>
</mxfile>
